{
.appVersion = "1267";
DisplayStrings = (
"Ò/Ohookabove/Ohorn/Ohornacute/Ohorndotbelow/Ohorngrave/Ohornhookabove/Ohorntilde/Ohungarumlaut/Oinvertedbreve/Omacron/Oslashacute Õ/Otildemacron/Racute/Rcaron/Rcommaaccent/Rdblgrave/Rinvertedbreve/Tbar/Tcaron/Tcedilla/Tcommaaccent Ú/Ubreve/Ucaron Û/Udblgrave Ü/Udotbelow Ù/Uhookabove/Uhorn/Uhornacute/Uhorndotbelow/Uhorngrave/Uhornhookabove/Uhorntilde/Uhungarumlaut/Uinvertedbreve/Umacron/Uring/Utilde/Wacute/Wcircumflex/Wdieresis/Wgrave Ý/Ycircumflex/Ydieresis/Ydotbelow/Ygrave/Yhookabove/Ymacron/Ytilde/Zacute/Zdotaccent á/abreve/abreveacute/abrevedotbelow/abrevegrave/abrevehookabove/abrevetilde â/acircumflexacute/acircumflexdotbelow/acircumflexgrave/acircumflexhookabove/acircumflextilde/adblgrave ä/adotbelow à/ahookabove/ainvertedbreve/amacron å/aringacute ã/aeacute/cacute/ccaron ç/ccircumflex/cdotaccent/dcroat/gbreve/gcaron/gcircumflex/gdotaccent ií/ibreve î/idblgrave ï/idotaccent/idotbelow ì/ihookabove/iinvertedbreve/ij/imacron/itilde/jcircumflex/kcommaaccent/lacute/lcommaaccent/lj/nj ó/obreve ô/ocircumflexacute/ocircumflexdotbelow/ocircumflexgrave/ocircumflexhookabove/ocircumflextilde/odblgrave ö/odieresismacron/odotaccentmacron/odotbelow ò/ohookabove/ohorn/ohornacute/ohorndotbelow/ohorngrave/ohornhookabove/ohorntilde/ohungarumlaut/oinvertedbreve/omacron õ/otildemacron/racute/rcaron/rcommaaccent/rdblgrave/rinvertedbreve/sacute/scaron/scedilla/scircumflex/scommaaccent/tbar/tcaron/tcedilla/tcommaaccent ú/ubreve û/udblgrave ü/udotbelow ù/uhookabove/uhornacute/uhorndotbelow/uhorngrave/uhornhookabove/uhorntilde/uhungarumlaut/uinvertedbreve/umacron/uring/utilde/wacute/wcircumflex/wdieresis/wgrave ý/ycircumflex/ydieresis/ydotbelow/ygrave/yhookabove/ymacron/ytilde/zacute/zdotaccent/f_f_i/f_f_ij/f_f_l/f_ij/IJacute/f_f_ij"
);
classes = (
{
automatic = 1;

glyphs = (
{
glyphname = A;
layers = (
{
anchors = (
{
name = bottom;
position = "{348, 0}";
},
{
name = ogonek;
position = "{620, 10}";
},
{
name = top;
position = "{348, 776}";
}
);
layerId = UUID1;
paths = (
{
closed = 1;
nodes = (
"155 0 LINE",
"409 610 LINE",
"304 538 LINE",
"516 0 LINE",
"684 0 LINE",
"352 765 LINE",
"344 765 LINE",
"12 0 LINE"
);
},
{
closed = 1;
nodes = (
"194 144 LINE",
"511 144 LINE",
"460 266 LINE",
"239 266 LINE"
);
}
);
width = 696;
},
{
anchors = (
{
name = bottom;
position = "{353, 0}";
},
{
name = ogonek;
position = "{627, 10}";
},
{
name = top;
position = "{353, 720}";
}
);
layerId = "4C85334C-E1D4-4EB0-A0B2-9D58DDEA71D9";
paths = (
{
closed = 1;
nodes = (
"100 0 LINE",
"373 682 LINE",
"339 663 LINE",
"600 0 LINE",
"655 0 LINE",
"355 741 LINE",
"351 741 LINE",
"51 0 LINE"
);
},
{
closed = 1;
nodes = (
"184 235 LINE",
"525 235 LINE",
"511 281 LINE",
"196 281 LINE"
);
}
);
width = 706;
},
{
anchors = (
{
name = bottom;
position = "{354.667, 0}";
},
{
name = ogonek;
position = "{628.667, 10}";
},
{
name = top;
position = "{354.667, 703.333}";
}
);
layerId = "93649EC8-ADF5-4C20-AD08-3ED15854CD33";
paths = (
{
closed = 1;
nodes = (
"83.333 0 LINE",
"362.167 703.667 LINE",
"349 700.5 LINE",
"625 0 LINE",
"646.667 0 LINE",
"355.833 733.5 LINE",
"353.5 733.5 LINE",
"62.667 0 LINE"
);
},
{
closed = 1;
nodes = (
"181.5 262.5 LINE",
"529.167 262.5 LINE",
"526.833 281 LINE",
"183.5 281 LINE"
);
}
);
width = 709;
}
);
leftKerningGroup = A;
rightKerningGroup = A;
unicode = 0041;
},
{
glyphname = AE;
layers = (
{
anchors = (
{
name = bottom;
position = "{563, 0}";
},
{
name = top;
position = "{673, 756}";
}
);
layerId = UUID1;
paths = (
{
closed = 1;
nodes = (
"486 0 LINE",
"912 0 LINE",
"912 140 LINE",
"631 140 LINE",
"631 297 LINE",
"857 297 LINE",
"857 437 LINE",
"631 437 LINE",
"631 596 LINE",
"898 596 LINE",
"898 736 LINE",
"486 736 LINE"
);
},
{
closed = 1;
nodes = (
"486 736 LINE",
"5 0 LINE",
"173 0 LINE",
"490 524 LINE",
"490 524 OFFCURVE",
"498 550 OFFCURVE",
"501 565 CURVE"
);
},
{
closed = 1;
nodes = (
"227 161 LINE",
"503 161 LINE",
"503 276 LINE",
"272 276 LINE"
);
}
);
width = 967;
},
{
anchors = (
{
name = bottom;
position = "{497, 0}";
},
{
name = top;
position = "{634, 715}";
}
);
layerId = "4C85334C-E1D4-4EB0-A0B2-9D58DDEA71D9";
paths = (
{
closed = 1;
nodes = (
"468 0 LINE",
"860 0 LINE",
"860 47 LINE",
"517 47 LINE",
"517 333 LINE",
"806 333 LINE",
"806 380 LINE",
"517 380 LINE",
"517 662 LINE",
"846 662 LINE",
"846 710 LINE",
"468 710 LINE"
);
},
{
closed = 1;
nodes = (
"468 710 LINE",
"20 0 LINE",
"75 0 LINE",
"472 635 LINE",
"475 641 OFFCURVE",
"479 654 OFFCURVE",
"482 664 CURVE"
);
},
{
closed = 1;
nodes = (
"178 196 LINE",
"479 196 LINE",
"479 236 LINE",
"190 236 LINE"
);
}
);
width = 934;
},
{
anchors = (
{
name = bottom;
position = "{477, 0}";
},
{
name = top;
position = "{622.333, 702.5}";
}
);
layerId = "93649EC8-ADF5-4C20-AD08-3ED15854CD33";
paths = (
{
closed = 1;
nodes = (
"463 0 LINE",
"844.167 0 LINE",
"844.167 19.5 LINE",
"482.833 19.5 LINE",
"482.833 343.833 LINE",
"791 343.833 LINE",
"791 363.333 LINE",
"482.833 363.333 LINE",
"482.833 682 LINE",
"830.167 682 LINE",
"830.167 701.667 LINE",
"463 701.667 LINE"
);
},
{
closed = 1;
nodes = (
"463 701.667 LINE",
"24.167 0 LINE",
"45.833 0 LINE",
"467 668.333 LINE",
"470 676 OFFCURVE",
"473.167 685.667 OFFCURVE",
"476.167 694 CURVE"
);
},
{
closed = 1;
nodes = (
"163.833 206 LINE",
"471.5 206 LINE",
"471.5 224.333 LINE",
"165.833 224.333 LINE"
);
}
);
width = 923;
}
);
rightMetricsKey = E;
unicode = 00C6;
},
{
glyphname = B;
layers = (
{
anchors = (
{
name = bottom;
position = "{336, 0}";
},
{
name = top;
position = "{336, 736}";
}
);
layerId = UUID1;
paths = (
{
closed = 1;
nodes = (
"95 736 LINE",
"95 0 LINE",
"340 0 LINE",
"471 0 OFFCURVE",
"597 57 OFFCURVE",
"597 217 CURVE",
"597 346 OFFCURVE",
"464 425 OFFCURVE",
"283 425 CURVE",
"306 347 LINE",
"453 347 OFFCURVE",
"562 415 OFFCURVE",
"562 551 CURVE",
"562 673 OFFCURVE",
"464 736 OFFCURVE",
"311 736 CURVE"
);
},
{
closed = 1;
nodes = (
"240 435 LINE",
"240 596 LINE",
"318 596 LINE",
"375 596 OFFCURVE",
"412 571 OFFCURVE",
"412 520 CURVE",
"412 476 OFFCURVE",
"385 435 OFFCURVE",
"328 435 CURVE"
);
},
{
closed = 1;
nodes = (
"240 135 LINE",
"240 295 LINE",
"323 295 LINE",
"385 295 OFFCURVE",
"447 280 OFFCURVE",
"447 217 CURVE",
"447 160 OFFCURVE",
"397 135 OFFCURVE",
"333 135 CURVE"
);
}
);
width = 647;
},
{
anchors = (
{
name = bottom;
position = "{290, 0}";
},
{
name = top;
position = "{290, 710}";
}
);
layerId = "4C85334C-E1D4-4EB0-A0B2-9D58DDEA71D9";
paths = (
{
closed = 1;
nodes = (
"113 710 LINE",
"113 0 LINE",
"298 0 LINE SMOOTH",
"414 0 OFFCURVE",
"522 61 OFFCURVE",
"522 189 CURVE SMOOTH",
"522 295 OFFCURVE",
"430 363 OFFCURVE",
"321 372 CURVE",
"326 348 LINE",
"432 361 OFFCURVE",
"486 436 OFFCURVE",
"486 530 CURVE SMOOTH",
"486 656 OFFCURVE",
"407 710 OFFCURVE",
"270 710 CURVE SMOOTH"
);
},
{
closed = 1;
nodes = (
"162 378 LINE",
"162 663 LINE",
"272 663 LINE SMOOTH",
"372 663 OFFCURVE",
"436 622 OFFCURVE",
"436 521 CURVE SMOOTH",
"436 440 OFFCURVE",
"394 378 OFFCURVE",
"293 378 CURVE SMOOTH"
);
},
{
closed = 1;
nodes = (
"162 45 LINE",
"162 331 LINE",
"293 331 LINE SMOOTH",
"378 331 OFFCURVE",
"472 290 OFFCURVE",
"472 187 CURVE SMOOTH",
"472 92 OFFCURVE",
"392 45 OFFCURVE",
"296 45 CURVE SMOOTH"
);
}
);
width = 590;
},
{
anchors = (
{
name = bottom;
position = "{275.833, 0}";
},
{
name = top;
position = "{275.833, 701.667}";
}
);
layerId = "93649EC8-ADF5-4C20-AD08-3ED15854CD33";
paths = (
{
closed = 1;
nodes = (
"118.833 701.667 LINE",
"118.833 0 LINE",
"285.5 0 LINE SMOOTH",
"396.5 0 OFFCURVE",
"499.5 61.833 OFFCURVE",
"499.5 180.667 CURVE SMOOTH",
"499.5 279.167 OFFCURVE",
"420 343.833 OFFCURVE",
"331.833 356.167 CURVE",
"331.833 348.833 LINE",
"425.333 365.167 OFFCURVE",
"462.667 442.667 OFFCURVE",
"462.667 523.333 CURVE SMOOTH",
"462.667 651 OFFCURVE",
"390.333 701.667 OFFCURVE",
"257.5 701.667 CURVE SMOOTH"
);
},
{
closed = 1;
nodes = (
"138.667 360.5 LINE",
"138.667 683 LINE",
"258.667 683 LINE SMOOTH",
"371.167 683 OFFCURVE",
"442.667 637.833 OFFCURVE",
"442.667 521.833 CURVE SMOOTH",
"442.667 429.167 OFFCURVE",
"396.5 360.5 OFFCURVE",
"283 360.5 CURVE SMOOTH"
);
},
{
closed = 1;
nodes = (
"138.667 18.333 LINE",
"138.667 341.833 LINE",
"283.833 341.833 LINE SMOOTH",
"375.5 341.833 OFFCURVE",
"479.5 292.5 OFFCURVE",
"479.5 177.833 CURVE SMOOTH",
"479.5 72 OFFCURVE",
"390.333 18.333 OFFCURVE",
"284.333 18.333 CURVE SMOOTH"
);
}
);
width = 573;
}
);
leftMetricsKey = H;
rightKerningGroup = B;
rightMetricsKey = O;
unicode = 0042;
},
{
glyphname = C;
layers = (
{
anchors = (
{
name = bottom;
position = "{399, 0}";
},
{
name = top;
position = "{389, 756}";
}
);
layerId = UUID1;
paths = (
{
closed = 1;
nodes = (
"587 191 LINE",
"558 163 OFFCURVE",
"501 132 OFFCURVE",
"422 132 CURVE SMOOTH",
"287 132 OFFCURVE",
"201 228 OFFCURVE",
"201 370 CURVE SMOOTH",
"201 503 OFFCURVE",
"300 604 OFFCURVE",
"413 604 CURVE",
"485 604 OFFCURVE",
"542 569 OFFCURVE",
"575 544 CURVE",
"632 681 LINE",
"584 711 OFFCURVE",
"506 744 OFFCURVE",
"408 744 CURVE SMOOTH",
"194 744 OFFCURVE",
"50 586 OFFCURVE",
"50 362 CURVE SMOOTH",
"50 163 OFFCURVE",
"186 -4 OFFCURVE",
"419 -8 CURVE SMOOTH",
"532 -10 OFFCURVE",
"622 41 OFFCURVE",
"647 61 CURVE"
);
}
);
width = 697;
},
{
anchors = (
{
name = bottom;
position = "{411, 0}";
},
{
name = top;
position = "{408, 722}";
}
);
layerId = "4C85334C-E1D4-4EB0-A0B2-9D58DDEA71D9";
paths = (
{
closed = 1;
nodes = (
"600 90 LINE",
"554 61 OFFCURVE",
"496 39 OFFCURVE",
"427 39 CURVE SMOOTH",
"239 39 OFFCURVE",
"119 180 OFFCURVE",
"119 352 CURVE SMOOTH",
"119 530 OFFCURVE",
"258 671 OFFCURVE",
"427 671 CURVE SMOOTH",
"492 671 OFFCURVE",
"552 648 OFFCURVE",
"599 619 CURVE",
"620 664 LINE",
"567 696 OFFCURVE",
"501 718 OFFCURVE",
"426 718 CURVE SMOOTH",
"224 718 OFFCURVE",
"68 559 OFFCURVE",
"68 350 CURVE SMOOTH",
"68 156 OFFCURVE",
"209 -7 OFFCURVE",
"426 -8 CURVE SMOOTH",
"509 -9 OFFCURVE",
"577 19 OFFCURVE",
"623 47 CURVE"
);
}
);
width = 691;
},
{
anchors = (
{
name = bottom;
position = "{414.333, 0}";
},
{
name = top;
position = "{413.833, 712}";
}
);
layerId = "93649EC8-ADF5-4C20-AD08-3ED15854CD33";
paths = (
{
closed = 1;
nodes = (
"604.167 60 LINE",
"553.167 30.167 OFFCURVE",
"494.333 10.667 OFFCURVE",
"428.667 10.667 CURVE SMOOTH",
"224.833 10.667 OFFCURVE",
"94 165.833 OFFCURVE",
"94 346.167 CURVE SMOOTH",
"94 538.333 OFFCURVE",
"245.5 691 OFFCURVE",
"431.167 691 CURVE SMOOTH",
"494.5 691 OFFCURVE",
"555.333 672.167 OFFCURVE",
"605.667 641.5 CURVE",
"615.833 659 LINE",
"562 691 OFFCURVE",
"499.333 709.667 OFFCURVE",
"431 709.667 CURVE SMOOTH",
"233.167 709.667 OFFCURVE",
"73.833 550.667 OFFCURVE",
"73.833 346.667 CURVE SMOOTH",
"73.833 154.333 OFFCURVE",
"215.667 -7.833 OFFCURVE",
"428.5 -8 CURVE SMOOTH",
"502.333 -8.167 OFFCURVE",
"563.667 12.333 OFFCURVE",
"615.5 42.833 CURVE"
);
}
);
width = 690;
}
);
leftKerningGroup = O;
leftMetricsKey = O;
rightMetricsKey = O;
unicode = 0043;
},
{
glyphname = D;
layers = (
{
anchors = (
{
name = bottom;
position = "{398, 0}";
},
{
name = center;
position = "{167, 368}";
},
{
name = top;
position = "{318, 736}";
}
);
layerId = UUID1;
paths = (
{
closed = 1;
nodes = (
"351 0 LINE",
"551 0 OFFCURVE",
"721 136 OFFCURVE",
"721 355 CURVE",
"721 540 OFFCURVE",
"612 736 OFFCURVE",
"315 736 CURVE",
"95 736 LINE",
"95 0 LINE"
);
},
{
closed = 1;
nodes = (
"240 597 LINE",
"358 597 LINE",
"425 597 OFFCURVE",
"571 557 OFFCURVE",
"571 365 CURVE",
"571 217 OFFCURVE",
"473 140 OFFCURVE",
"326 140 CURVE",
"240 140 LINE"
);
}
);
width = 771;
},
{
anchors = (
{
name = bottom;
position = "{363, 0}";
},
{
name = center;
position = "{136, 355}";
},
{
name = top;
position = "{297, 710}";
}
);
layerId = "4C85334C-E1D4-4EB0-A0B2-9D58DDEA71D9";
paths = (
{
closed = 1;
nodes = (
"322 0 LINE SMOOTH",
"505 0 OFFCURVE",
"668 136 OFFCURVE",
"668 351 CURVE SMOOTH",
"668 516 OFFCURVE",
"563 710 OFFCURVE",
"288 710 CURVE SMOOTH",
"113 710 LINE",
"113 0 LINE"
);
},
{
closed = 1;
nodes = (
"162 662 LINE",
"295 662 LINE SMOOTH",
"507 662 OFFCURVE",
"618 516 OFFCURVE",
"618 354 CURVE SMOOTH",
"618 163 OFFCURVE",
"480 47 OFFCURVE",
"309 47 CURVE",
"162 47 LINE"
);
}
);
width = 736;
},
{
anchors = (
{
name = bottom;
position = "{352.167, 0}";
},
{
name = center;
position = "{126.833, 350.833}";
},
{
name = top;
position = "{291.167, 701.667}";
}
);
layerId = "93649EC8-ADF5-4C20-AD08-3ED15854CD33";
paths = (
{
closed = 1;
nodes = (
"312.833 0 LINE SMOOTH",
"490.833 0 OFFCURVE",
"652.167 136 OFFCURVE",
"652.167 350.167 CURVE SMOOTH",
"652.167 509.333 OFFCURVE",
"548 701.667 OFFCURVE",
"279.667 701.667 CURVE SMOOTH",
"118.833 701.667 LINE",
"118.833 0 LINE"
);
},
{
closed = 1;
nodes = (
"138.667 682 LINE",
"275.833 682 LINE SMOOTH",
"532 682 OFFCURVE",
"632.167 503.5 OFFCURVE",
"632.167 350.667 CURVE SMOOTH",
"632.167 147.167 OFFCURVE",
"482.5 18.667 OFFCURVE",
"304 18.667 CURVE",
"138.667 18.667 LINE"
);
}
);
width = 726;
}
);
leftMetricsKey = H;
rightKerningGroup = O;
rightMetricsKey = O;
unicode = 0044;
},
{
glyphname = E;
layers = (
{
anchors = (
{
name = bottom;
position = "{346, 0}";
},
{
name = ogonek;
position = "{547, 10}";
},
{
name = top;
position = "{346, 756}";
},
{
name = topleft;
position = "{45, 736}";
}
);
layerId = UUID1;
paths = (
{
closed = 1;
nodes = (
"95 0 LINE",
"611 0 LINE",
"611 140 LINE",
"240 140 LINE",
"240 299 LINE",
"556 299 LINE",
"556 439 LINE",
"240 439 LINE",
"240 596 LINE",
"597 596 LINE",
"597 736 LINE",
"95 736 LINE"
);
}
);
width = 666;
},
{
anchors = (
{
name = bottom;
position = "{323, 0}";
},
{
name = ogonek;
position = "{536, 10}";
},
{
name = top;
position = "{323, 715}";
},
{
name = topleft;
position = "{12, 710}";
}
);
layerId = "4C85334C-E1D4-4EB0-A0B2-9D58DDEA71D9";
paths = (
{
closed = 1;
nodes = (
"113 0 LINE",
"565 0 LINE",
"565 47 LINE",
"162 47 LINE",
"162 334 LINE",
"512 334 LINE",
"512 381 LINE",
"162 381 LINE",
"162 663 LINE",
"551 663 LINE",
"551 710 LINE",
"113 710 LINE"
);
}
);
width = 639;
},
{
anchors = (
{
name = bottom;
position = "{316.333, 0}";
},
{
name = ogonek;
position = "{532.667, 10}";
},
{
name = top;
position = "{316.333, 702.5}";
},
{
name = topleft;
position = "{2, 701.667}";
}
);
layerId = "93649EC8-ADF5-4C20-AD08-3ED15854CD33";
paths = (
{
closed = 1;
nodes = (
"118.833 0 LINE",
"551.667 0 LINE",
"551.667 18.667 LINE",
"138.667 18.667 LINE",
"138.667 344.833 LINE",
"498.667 344.833 LINE",
"498.667 363.5 LINE",
"138.667 363.5 LINE",
"138.667 683 LINE",
"537.667 683 LINE",
"537.667 701.667 LINE",
"118.833 701.667 LINE"
);
}
);
width = 631;
}
);
leftMetricsKey = H;
unicode = 0045;
},
{
glyphname = F;
layers = (
{
anchors = (
{
name = bottom;
position = "{313, 0}";
},
{
name = top;
position = "{313, 736}";
}
);
layerId = UUID1;
paths = (
{
closed = 1;
nodes = (
"95 0 LINE",
"240 0 LINE",
"240 289 LINE",
"513 289 LINE",
"513 429 LINE",
"240 429 LINE",
"240 596 LINE",
"555 596 LINE",
"555 736 LINE",
"95 736 LINE"
);
}
);
width = 600;
},
{
anchors = (
{
name = bottom;
position = "{295, 0}";
},
{
name = top;
position = "{295, 710}";
}
);
layerId = "4C85334C-E1D4-4EB0-A0B2-9D58DDEA71D9";
paths = (
{
closed = 1;
nodes = (
"113 0 LINE",
"162 0 LINE",
"162 324 LINE",
"471 324 LINE",
"471 370 LINE",
"162 370 LINE",
"162 663 LINE",
"511 663 LINE",
"511 710 LINE",
"113 710 LINE"
);
}
);
width = 578;
},
{
anchors = (
{
name = bottom;
position = "{289.167, 0}";
},
{
name = top;
position = "{289.167, 701.667}";
}
);
layerId = "93649EC8-ADF5-4C20-AD08-3ED15854CD33";
paths = (
{
closed = 1;
nodes = (
"118.833 0 LINE",
"138.667 0 LINE",
"138.667 334 LINE",
"458.5 334 LINE",
"458.5 352.5 LINE",
"138.667 352.5 LINE",
"138.667 683 LINE",
"497.667 683 LINE",
"497.667 701.667 LINE",
"118.833 701.667 LINE"
);
}
);
width = 571;
}
);
leftMetricsKey = H;
rightKerningGroup = F;
unicode = 0046;
},
{
glyphname = G;
layers = (
{
anchors = (
{
name = bottom;
position = "{381, 0}";
},
{
name = top;
position = "{411, 736}";
}
);
layerId = UUID1;
paths = (
{
closed = 1;
nodes = (
"692 385 LINE",
"418 385 LINE",
"418 245 LINE",
"545 245 LINE",
"545 156 LINE",
"521 142 OFFCURVE",
"485 137 OFFCURVE",
"444 137 CURVE",
"301 137 OFFCURVE",
"200 221 OFFCURVE",
"200 360 CURVE",
"200 518 OFFCURVE",
"288 598 OFFCURVE",
"447 598 CURVE",
"494 598 OFFCURVE",
"574 575 OFFCURVE",
"611 555 CURVE",
"658 690 LINE",
"603 720 OFFCURVE",
"523 744 OFFCURVE",
"428 744 CURVE",
"227 744 OFFCURVE",
"50 616 OFFCURVE",
"50 347 CURVE",
"50 141 OFFCURVE",
"201 -8 OFFCURVE",
"440 -8 CURVE",
"530 -8 OFFCURVE",
"657 37 OFFCURVE",
"692 74 CURVE"
);
}
);
width = 762;
},
{
anchors = (
{
name = bottom;
position = "{388, 0}";
},
{
name = top;
position = "{403, 710}";
}
);
layerId = "4C85334C-E1D4-4EB0-A0B2-9D58DDEA71D9";
paths = (
{
closed = 1;
nodes = (
"649 323 LINE",
"440 323 LINE",
"440 276 LINE",
"600 276 LINE",
"600 79 LINE",
"556 54 OFFCURVE",
"489 40 OFFCURVE",
"433 40 CURVE SMOOTH",
"243 40 OFFCURVE",
"118 175 OFFCURVE",
"118 351 CURVE SMOOTH",
"118 533 OFFCURVE",
"255 669 OFFCURVE",
"436 669 CURVE SMOOTH",
"495 669 OFFCURVE",
"561 650 OFFCURVE",
"608 622 CURVE",
"626 666 LINE",
"572 698 OFFCURVE",
"505 718 OFFCURVE",
"431 718 CURVE SMOOTH",
"233 718 OFFCURVE",
"68 565 OFFCURVE",
"68 348 CURVE SMOOTH",
"68 149 OFFCURVE",
"211 -8 OFFCURVE",
"434 -8 CURVE SMOOTH",
"507 -8 OFFCURVE",
"601 18 OFFCURVE",
"649 50 CURVE"
);
}
);
width = 741;
},
{
anchors = (
{
name = bottom;
position = "{389.667, 0}";
},
{
name = top;
position = "{400.5, 701.667}";
}
);
layerId = "93649EC8-ADF5-4C20-AD08-3ED15854CD33";
paths = (
{
closed = 1;
nodes = (
"636.5 303.833 LINE",
"446.667 303.833 LINE",
"446.667 285.167 LINE",
"616.667 285.167 LINE",
"616.667 55.667 LINE",
"566.833 27.333 OFFCURVE",
"490.667 10.833 OFFCURVE",
"429.667 10.833 CURVE SMOOTH",
"225.5 10.833 OFFCURVE",
"93.833 161.667 OFFCURVE",
"93.833 348.5 CURVE SMOOTH",
"93.833 537.167 OFFCURVE",
"245 690.667 OFFCURVE",
"432.667 690.667 CURVE SMOOTH",
"495 690.667 OFFCURVE",
"556.833 672.5 OFFCURVE",
"607.167 642 CURVE",
"616.833 659.333 LINE",
"562.833 691.333 OFFCURVE",
"500 709.667 OFFCURVE",
"431.833 709.667 CURVE SMOOTH",
"234.667 709.667 OFFCURVE",
"73.833 550 OFFCURVE",
"73.833 348.833 CURVE SMOOTH",
"73.833 151.5 OFFCURVE",
"214.333 -8 OFFCURVE",
"432.333 -8 CURVE SMOOTH",
"500.333 -8 OFFCURVE",
"584.333 12.167 OFFCURVE",
"636.5 43.333 CURVE"
);
}
);
width = 735;
}
);
leftKerningGroup = O;
leftMetricsKey = O;
unicode = 0047;
},
{
glyphname = H;
layers = (
{
anchors = (
{
name = bottom;
position = "{405, 0}";
},
{
name = center;
position = "{405, 368}";
},
{
name = top;
position = "{405, 736}";
},
{
name = topleft;
position = "{45, 736}";
}
);
layerId = UUID1;
paths = (
{
closed = 1;
nodes = (
"569 736 LINE",
"569 439 LINE",
"240 439 LINE",
"240 736 LINE",
"95 736 LINE",
"95 0 LINE",
"240 0 LINE",
"240 299 LINE",
"569 299 LINE",
"569 0 LINE",
"714 0 LINE",
"714 736 LINE"
);
}
);
width = 809;
},
{
anchors = (
{
name = bottom;
position = "{376, 0}";
},
{
name = center;
position = "{376, 355}";
},
{
name = top;
position = "{376, 710}";
},
{
name = topleft;
position = "{12, 710}";
}
);
layerId = "4C85334C-E1D4-4EB0-A0B2-9D58DDEA71D9";
paths = (
{
closed = 1;
nodes = (
"590 710 LINE",
"590 380 LINE",
"162 380 LINE",
"162 710 LINE",
"113 710 LINE",
"113 0 LINE",
"162 0 LINE",
"162 334 LINE",
"590 334 LINE",
"590 0 LINE",
"639 0 LINE",
"639 710 LINE"
);
}
);
width = 752;
},
{
anchors = (
{
name = bottom;
position = "{367.667, 0}";
},
{
name = center;
position = "{367.667, 350.833}";
},
{
name = top;
position = "{367.667, 701.667}";
},
{
name = topleft;
position = "{2, 701.667}";
}
);
layerId = "93649EC8-ADF5-4C20-AD08-3ED15854CD33";
paths = (
{
closed = 1;
nodes = (
"596.667 701.667 LINE",
"596.667 362.5 LINE",
"138.667 362.5 LINE",
"138.667 701.667 LINE",
"118.833 701.667 LINE",
"118.833 0 LINE",
"138.667 0 LINE",
"138.667 344 LINE",
"596.667 344 LINE",
"596.667 0 LINE",
"616.5 0 LINE",
"616.5 701.667 LINE"
);
}
);
width = 735;
}
);
unicode = 0048;
},
{
glyphname = Hbar;
layers = (
{
components = (
{
name = H;
transform = "{1, 0, 0, 1, 92, 0}";
}
);
layerId = UUID1;
paths = (
{
closed = 1;
nodes = (
"95 499 LINE",
"880 499 LINE",
"880 606 LINE",
"95 606 LINE"
);
}
);
width = 975;
},
{
components = (
{
name = H;
transform = "{1, 0, 0, 1, 60, 0}";
}
);
layerId = "4C85334C-E1D4-4EB0-A0B2-9D58DDEA71D9";
paths = (
{
closed = 1;
nodes = (
"113 494 LINE",
"799 494 LINE",
"799 532 LINE",
"113 532 LINE"
);
}
);
width = 912;
},
{
components = (
{
alignment = -1;
name = H;
transform = "{1, 0, 0, 1, 50, 0}";
}
);
layerId = "93649EC8-ADF5-4C20-AD08-3ED15854CD33";
paths = (
{
closed = 1;
nodes = (
"118.833 492.333 LINE",
"774.833 492.333 LINE",
"774.833 510.333 LINE",
"118.833 510.333 LINE"
);
}
);
width = 894;
}
);
leftMetricsKey = H;
rightKerningGroup = z;
rightMetricsKey = H;
unicode = 0126;
},
{
glyphname = I;
layers = (
{
anchors = (
{
name = bottom;
position = "{168, 0}";
},
{
name = ogonek;
position = "{213, 10}";
},
{
name = top;
position = "{168, 756}";
},
{
name = topleft;
position = "{45, 736}";
}
);
layerId = UUID1;
paths = (
{
closed = 1;
nodes = (
"95 0 LINE",
"240 0 LINE",
"240 736 LINE",
"95 736 LINE"
);
}
);
width = 335;
},
{
anchors = (
{
name = bottom;
position = "{138, 0}";
},
{
name = ogonek;
position = "{142, 10}";
},
{
name = top;
position = "{138, 715}";
},
{
name = topleft;
position = "{12, 710}";
}
);
layerId = "4C85334C-E1D4-4EB0-A0B2-9D58DDEA71D9";
paths = (
{
closed = 1;
nodes = (
"113 0 LINE",
"162 0 LINE",
"162 710 LINE",
"113 710 LINE"
);
}
);
width = 275;
},
{
anchors = (
{
name = bottom;
position = "{128.833, 0}";
},
{
name = ogonek;
position = "{120.333, 10}";
},
{
name = top;
position = "{128.833, 702.5}";
},
{
name = topleft;
position = "{2, 701.667}";
}
);
layerId = "93649EC8-ADF5-4C20-AD08-3ED15854CD33";
paths = (
{
closed = 1;
nodes = (
"118.833 0 LINE",
"138.667 0 LINE",
"138.667 701.667 LINE",
"118.833 701.667 LINE"
);
}
);
width = 258;
}
);
leftMetricsKey = H;
rightMetricsKey = H;
unicode = 0049;
},
{
glyphname = Iogonek;
layers = (
{
components = (
{
name = I;
}
);
layerId = UUID1;
paths = (
{
closed = 1;
nodes = (
"199 -232 OFFCURVE",
"258 -201 OFFCURVE",
"288 -157 CURVE",
"238 -85 LINE",
"216 -118 OFFCURVE",
"193 -134 OFFCURVE",
"166 -134 CURVE",
"143 -134 OFFCURVE",
"122 -126 OFFCURVE",
"122 -92 CURVE SMOOTH",
"122 -50 OFFCURVE",
"167 -26 OFFCURVE",
"235 0 CURVE",
"210 6 LINE",
"92 0 LINE",
"37 -22 OFFCURVE",
"7 -69 OFFCURVE",
"7 -113 CURVE SMOOTH",
"7 -191 OFFCURVE",
"71 -232 OFFCURVE",
"153 -232 CURVE"
);
}
);
width = 285;
},
{
components = (
{
name = I;
}
);
layerId = "4C85334C-E1D4-4EB0-A0B2-9D58DDEA71D9";
paths = (
{
closed = 1;
nodes = (
"147 -198 OFFCURVE",
"182 -172 OFFCURVE",
"200 -139 CURVE",
"178 -116 LINE",
"162 -143 OFFCURVE",
"141 -162 OFFCURVE",
"115 -162 CURVE",
"88 -162 OFFCURVE",
"62 -142 OFFCURVE",
"62 -106 CURVE",
"62 -66 OFFCURVE",
"98 -32 OFFCURVE",
"159 0 CURVE",
"150 6 LINE",
"116 9 LINE",
"63 -17 OFFCURVE",
"21 -62 OFFCURVE",
"21 -112 CURVE",
"21 -165 OFFCURVE",
"62 -198 OFFCURVE",
"110 -198 CURVE"
);
}
);
width = 262;
},
{
components = (
{
alignment = -1;
name = I;
}
);
layerId = "93649EC8-ADF5-4C20-AD08-3ED15854CD33";
paths = (
{
closed = 1;
nodes = (
"131.167 -188 OFFCURVE",
"159.5 -162.833 OFFCURVE",
"173.333 -134 CURVE",
"160.5 -125.167 LINE",
"146.167 -150.5 OFFCURVE",
"125.167 -170.333 OFFCURVE",
"99.167 -170.333 CURVE",
"71.333 -170.333 OFFCURVE",
"44.5 -147 OFFCURVE",
"44.5 -110.167 CURVE",
"44.5 -71 OFFCURVE",
"77.167 -33.667 OFFCURVE",
"136.5 0 CURVE",
"132.5 6 LINE",
"123.5 11.5 LINE",
"71.333 -15.333 OFFCURVE",
"25.167 -60.333 OFFCURVE",
"25.167 -111.167 CURVE",
"25.167 -157.5 OFFCURVE",
"59.5 -188 OFFCURVE",
"97.5 -188 CURVE"
);
}
);
width = 255;
}
);
unicode = 012E;
},
{
glyphname = J;
layers = (
{
anchors = (
{
name = bottom;
position = "{168, 0}";
},
{
name = top;
position = "{238, 756}";
}
);
layerId = UUID1;
paths = (
{
closed = 1;
nodes = (
"305 736 LINE",
"159 736 LINE",
"159 158 LINE SMOOTH",
"159 38 OFFCURVE",
"96 -7 OFFCURVE",
"5 -12 CURVE",
"5 -153 LINE",
"5 -153 LINE",
"182 -148 OFFCURVE",
"305 -37 OFFCURVE",
"305 155 CURVE SMOOTH"
);
}
);
width = 400;
},
{
anchors = (
{
name = bottom;
position = "{168, 0}";
},
{
name = top;
position = "{187, 715}";
}
);
layerId = "4C85334C-E1D4-4EB0-A0B2-9D58DDEA71D9";
paths = (
{
closed = 1;
nodes = (
"217 710 LINE",
"168 710 LINE",
"168 110 LINE SMOOTH",
"168 -21 OFFCURVE",
"97 -93 OFFCURVE",
"1 -98 CURVE",
"1 -145 LINE",
"1 -145 LINE",
"122 -141 OFFCURVE",
"217 -52 OFFCURVE",
"217 107 CURVE SMOOTH"
);
}
);
width = 330;
},
{
anchors = (
{
name = bottom;
position = "{168, 0}";
},
{
name = top;
position = "{171.167, 702.5}";
}
);
layerId = "93649EC8-ADF5-4C20-AD08-3ED15854CD33";
paths = (
{
closed = 1;
nodes = (
"190.333 701.667 LINE",
"170.5 701.667 LINE",
"170.5 95.833 LINE SMOOTH",
"170.5 -38.5 OFFCURVE",
"97.833 -118.833 OFFCURVE",
"0.167 -123.833 CURVE",
"0.167 -142.5 LINE",
"0.167 -142.5 LINE",
"104.5 -138.5 OFFCURVE",
"190.333 -57 OFFCURVE",
"190.333 92.833 CURVE SMOOTH"
);
}
);
width = 309;
}
);
rightMetricsKey = H;
unicode = 004A;
},
{
glyphname = K;
layers = (
{
anchors = (
{
name = bottom;
position = "{330, 0}";
},
{
name = top;
position = "{380, 736}";
}
);
layerId = UUID1;
paths = (
{
closed = 1;
nodes = (
"242 736 LINE",
"95 736 LINE",
"95 0 LINE",
"242 0 LINE",
"242 278 LINE",
"278 314 LINE",
"505 0 LINE",
"689 0 LINE",
"384 406 LINE",
"688 736 LINE",
"500 736 LINE",
"260 465 LINE",
"238 437 LINE",
"242 474 LINE"
);
}
);
width = 704;
},
{
anchors = (
{
name = bottom;
position = "{311, 0}";
},
{
name = top;
position = "{324, 710}";
}
);
layerId = "4C85334C-E1D4-4EB0-A0B2-9D58DDEA71D9";
paths = (
{
closed = 1;
nodes = (
"163 710 LINE",
"113 710 LINE",
"113 0 LINE",
"163 0 LINE",
"162 306 LINE",
"248 388 LINE",
"549 0 LINE",
"611 0 LINE",
"284 419 LINE",
"578 710 LINE",
"515 710 LINE",
"164 364 LINE",
"161 355 LINE",
"163 390 LINE"
);
}
);
width = 655;
},
{
anchors = (
{
name = bottom;
position = "{305.167, 0}";
},
{
name = top;
position = "{307.333, 701.667}";
}
);
layerId = "93649EC8-ADF5-4C20-AD08-3ED15854CD33";
paths = (
{
closed = 1;
nodes = (
"138.833 701.667 LINE",
"118.833 701.667 LINE",
"118.833 0 LINE",
"138.833 0 LINE",
"137.833 314.333 LINE",
"238.833 409.667 LINE",
"562.333 0 LINE",
"587.667 0 LINE",
"254 423.167 LINE",
"544.667 701.667 LINE",
"519.167 701.667 LINE",
"134.833 334 LINE",
"137.667 330.833 LINE",
"138.833 365 LINE"
);
}
);
width = 641;
}
);
leftMetricsKey = H;
rightKerningGroup = K;
unicode = 004B;
},
{
glyphname = L;
layers = (
{
anchors = (
{
name = bottom;
position = "{328, 0}";
},
{
name = center;
position = "{328, 368}";
},
{
name = top;
position = "{165, 756}";
},
{
name = topright;
position = "{611, 736}";
}
);
layerId = UUID1;
paths = (
{
closed = 1;
nodes = (
"95 0 LINE",
"586 0 LINE",
"586 140 LINE",
"240 140 LINE",
"240 736 LINE",
"95 736 LINE"
);
}
);
width = 641;
},
{
anchors = (
{
name = bottom;
position = "{315, 0}";
},
{
name = center;
position = "{315, 355}";
},
{
name = top;
position = "{137, 715}";
},
{
name = topright;
position = "{617, 710}";
}
);
layerId = "4C85334C-E1D4-4EB0-A0B2-9D58DDEA71D9";
paths = (
{
closed = 1;
nodes = (
"113 0 LINE",
"551 0 LINE",
"551 47 LINE",
"162 47 LINE",
"162 710 LINE",
"113 710 LINE"
);
}
);
width = 603;
},
{
anchors = (
{
name = bottom;
position = "{310.833, 0}";
},
{
name = center;
position = "{310.833, 350.833}";
},
{
name = top;
position = "{128.667, 702.5}";
},
{
name = topright;
position = "{618.667, 701.667}";
}
);
layerId = "93649EC8-ADF5-4C20-AD08-3ED15854CD33";
paths = (
{
closed = 1;
nodes = (
"118.833 0 LINE",
"541 0 LINE",
"541 18.667 LINE",
"138.667 18.667 LINE",
"138.667 701.667 LINE",
"118.833 701.667 LINE"
);
}
);
width = 591;
}
);
leftMetricsKey = H;
rightKerningGroup = L;
unicode = 004C;
},
{
glyphname = Lslash;
layers = (
{
components = (
{
name = L;
}
);
layerId = UUID1;
paths = (
{
closed = 1;
nodes = (
"5 368 LINE",
"35 255 LINE",
"441 381 LINE",
"411 494 LINE"
);
}
);
width = 640;
},
{
components = (
{
name = L;
}
);
layerId = "4C85334C-E1D4-4EB0-A0B2-9D58DDEA71D9";
paths = (
{
closed = 1;
nodes = (
"26 313 LINE",
"34 273 LINE",
"372 391 LINE",
"364 431 LINE"
);
}
);
width = 589;
},
{
components = (
{
alignment = -1;
name = L;
}
);
layerId = "93649EC8-ADF5-4C20-AD08-3ED15854CD33";
paths = (
{
closed = 1;
nodes = (
"31.833 296.333 LINE",
"33.167 278 LINE",
"351.167 393.5 LINE",
"349.833 411.833 LINE"
);
}
);
width = 573;
}
);
unicode = 0141;
},
{
glyphname = M;
layers = (
{
anchors = (
{
name = bottom;
position = "{474, 0}";
},
{
name = top;
position = "{474, 736}";
}
);
layerId = UUID1;
paths = (
{
closed = 1;
nodes = (
"235 0 LINE",
"235 433 LINE",
"210 364 LINE",
"466 10 LINE",
"468 10 LINE",
"717 364 LINE",
"708 439 LINE",
"708 0 LINE",
"853 0 LINE",
"853 766 LINE",
"851 766 LINE",
"443 200 LINE",
"505 186 LINE",
"96 766 LINE",
"95 766 LINE",
"95 0 LINE"
);
}
);
width = 948;
},
{
anchors = (
{
name = bottom;
position = "{453, 0}";
},
{
name = top;
position = "{453, 710}";
}
);
layerId = "4C85334C-E1D4-4EB0-A0B2-9D58DDEA71D9";
paths = (
{
closed = 1;
nodes = (
"161 0 LINE",
"161 611 LINE",
"153 589 LINE",
"451 172 LINE",
"453 172 LINE",
"749 589 LINE",
"745 613 LINE",
"745 0 LINE",
"793 0 LINE",
"793 726 LINE",
"792 726 LINE",
"443 232 LINE",
"464 229 LINE",
"114 726 LINE",
"113 726 LINE",
"113 0 LINE"
);
}
);
width = 906;
},
{
anchors = (
{
name = bottom;
position = "{447.167, 0}";
},
{
name = top;
position = "{447.167, 701.667}";
}
);
layerId = "93649EC8-ADF5-4C20-AD08-3ED15854CD33";
paths = (
{
closed = 1;
nodes = (
"138.5 0 LINE",
"138.5 664.333 LINE",
"135.5 656.5 LINE",
"446 220.333 LINE",
"448 220.333 LINE",
"758.167 656.5 LINE",
"755.833 664.667 LINE",
"755.833 0 LINE",
"775.5 0 LINE",
"775.5 713.5 LINE",
"774.5 713.5 LINE",
"443 242 LINE",
"451.5 241.5 LINE",
"119.833 713.5 LINE",
"118.833 713.5 LINE",
"118.833 0 LINE"
);
}
);
width = 894;
}
);
leftMetricsKey = H;
rightMetricsKey = H;
unicode = 004D;
},
{
glyphname = N;
layers = (
{
anchors = (
{
name = bottom;
position = "{427, 0}";
},
{
name = top;
position = "{407, 736}";
}
);
layerId = UUID1;
paths = (
{
closed = 1;
nodes = (
"758 -30 LINE",
"758 736 LINE",
"612 736 LINE",
"615 277 LINE",
"647 263 LINE",
"101 765 LINE",
"95 765 LINE",
"95 0 LINE",
"242 0 LINE",
"239 450 LINE",
"196 474 LINE",
"754 -30 LINE"
);
}
);
width = 853;
},
{
anchors = (
{
name = bottom;
position = "{412, 0}";
},
{
name = top;
position = "{406, 710}";
}
);
layerId = "4C85334C-E1D4-4EB0-A0B2-9D58DDEA71D9";
paths = (
{
closed = 1;
nodes = (
"709 -17 LINE",
"709 710 LINE",
"662 710 LINE",
"663 85 LINE",
"676 89 LINE",
"116 725 LINE",
"113 725 LINE",
"113 0 LINE",
"161 0 LINE",
"160 624 LINE",
"147 614 LINE",
"707 -17 LINE"
);
}
);
width = 822;
},
{
anchors = (
{
name = bottom;
position = "{407, 0}";
},
{
name = top;
position = "{406, 701.667}";
}
);
layerId = "93649EC8-ADF5-4C20-AD08-3ED15854CD33";
paths = (
{
closed = 1;
nodes = (
"694 -12.833 LINE",
"694 701.667 LINE",
"674.5 701.667 LINE",
"674.667 27.5 LINE",
"685.167 26.5 LINE",
"120.167 713.333 LINE",
"118.833 713.333 LINE",
"118.833 0 LINE",
"138.5 0 LINE",
"138.333 675.667 LINE",
"132.833 665.667 LINE",
"692.833 -12.833 LINE"
);
}
);
width = 813;
}
);
leftMetricsKey = H;
rightMetricsKey = H;
unicode = 004E;
},
{
glyphname = Eng;
layers = (
{
layerId = UUID1;
paths = (
{
closed = 1;
nodes = (
"733 4 LINE",
"733 736 LINE",
"587 736 LINE",
"590 277 LINE",
"622 263 LINE",
"76 765 LINE",
"70 765 LINE",
"70 0 LINE",
"217 0 LINE",
"214 450 LINE",
"171 474 LINE",
"729 -30 LINE"
);
},
{
closed = 1;
nodes = (
"594 163 LINE",
"594 8 LINE",
"594 -53 OFFCURVE",
"571 -95 OFFCURVE",
"531 -124 CURVE",
"611 -211 LINE",
"695 -167 OFFCURVE",
"733 -96 OFFCURVE",
"733 0 CURVE",
"733 30 LINE"
);
}
);
width = 803;
},
{
layerId = "4C85334C-E1D4-4EB0-A0B2-9D58DDEA71D9";
paths = (
{
closed = 1;
nodes = (
"702 -8 LINE",
"702 710 LINE",
"655 710 LINE",
"656 85 LINE",
"670 86 LINE",
"109 725 LINE",
"107 725 LINE",
"107 0 LINE",
"154 0 LINE",
"153 624 LINE",
"141 617 LINE",
"700 -17 LINE"
);
},
{
closed = 1;
nodes = (
"655 89 LINE",
"655 -6 LINE SMOOTH",
"655 -72 OFFCURVE",
"633 -124 OFFCURVE",
"598 -159 CURVE",
"628 -188 LINE",
"676 -148 OFFCURVE",
"702 -86 OFFCURVE",
"702 -5 CURVE SMOOTH",
"702 54 LINE"
);
}
);
width = 809;
},
{
layerId = "93649EC8-ADF5-4C20-AD08-3ED15854CD33";
paths = (
{
closed = 1;
nodes = (
"692.833 -11.333 LINE",
"692.833 701.667 LINE",
"673.333 701.667 LINE",
"673.5 27.5 LINE",
"684.167 26 LINE",
"119 713.333 LINE",
"117.833 713.333 LINE",
"117.833 0 LINE",
"137.333 0 LINE",
"137.167 675.667 LINE",
"131.833 666.167 LINE",
"691.667 -12.833 LINE"
);
},
{
closed = 1;
nodes = (
"673.333 66.5 LINE",
"673.333 -10.167 LINE SMOOTH",
"673.333 -77.833 OFFCURVE",
"651.333 -132.333 OFFCURVE",
"618 -169 CURVE",
"633 -181.333 LINE",
"670.167 -142.167 OFFCURVE",
"692.833 -83.5 OFFCURVE",
"692.833 -6.667 CURVE SMOOTH",
"692.833 60.667 LINE"
);
}
);
width = 811;
}
);
unicode = 014A;
},
{
glyphname = Nhookleft;
production = uni019D;
layers = (
{
layerId = UUID1;
paths = (
{
closed = 1;
nodes = (
"733 4 LINE",
"733 736 LINE",
"587 736 LINE",
"590 277 LINE",
"622 263 LINE",
"76 765 LINE",
"70 765 LINE",
"70 0 LINE",
"217 0 LINE",
"214 450 LINE",
"171 474 LINE",
"729 -30 LINE"
);
},
{
closed = 1;
nodes = (
"70 163 LINE",
"70 8 LINE",
"70 -53 OFFCURVE",
"47 -95 OFFCURVE",
"7 -124 CURVE",
"95 -211 LINE",
"179 -167 OFFCURVE",
"217 -96 OFFCURVE",
"217 0 CURVE",
"217 30 LINE"
);
}
);
width = 828;
},
{
layerId = "4C85334C-E1D4-4EB0-A0B2-9D58DDEA71D9";
paths = (
{
closed = 1;
nodes = (
"702 -8 LINE",
"702 710 LINE",
"655 710 LINE",
"656 85 LINE",
"670 89 LINE",
"109 725 LINE",
"107 725 LINE",
"107 0 LINE",
"154 0 LINE",
"153 624 LINE",
"141 616 LINE",
"700 -17 LINE"
);
},
{
closed = 1;
nodes = (
"107 89 LINE",
"107 -6 LINE SMOOTH",
"107 -72 OFFCURVE",
"85 -124 OFFCURVE",
"50 -159 CURVE",
"82 -188 LINE",
"130 -148 OFFCURVE",
"154 -86 OFFCURVE",
"154 -5 CURVE SMOOTH",
"154 54 LINE"
);
}
);
width = 815;
},
{
layerId = "93649EC8-ADF5-4C20-AD08-3ED15854CD33";
paths = (
{
closed = 1;
nodes = (
"692.833 -11.333 LINE",
"692.833 701.667 LINE",
"673.333 701.667 LINE",
"673.5 27.5 LINE",
"684.167 26.5 LINE",
"119 713.333 LINE",
"117.833 713.333 LINE",
"117.833 0 LINE",
"137.333 0 LINE",
"137.167 675.667 LINE",
"131.833 666 LINE",
"691.667 -12.833 LINE"
);
},
{
closed = 1;
nodes = (
"117.833 66.5 LINE",
"117.833 -10.167 LINE SMOOTH",
"117.833 -77.833 OFFCURVE",
"95.833 -132.333 OFFCURVE",
"62.5 -169 CURVE",
"77.833 -181.333 LINE",
"115 -142.167 OFFCURVE",
"137.333 -83.5 OFFCURVE",
"137.333 -6.667 CURVE SMOOTH",
"137.333 60.667 LINE"
);
}
);
width = 811.66667;
}
);
rightMetricsKey = N;
unicode = 019D;
},
{
glyphname = O;
layers = (
{
anchors = (
{
name = bottom;
position = "{426, 0}";
},
{
name = center;
position = "{426, 368}";
},
{
name = ogonek;
position = "{597, 10}";
},
{
name = top;
position = "{426, 746}";
},
{
name = topleft;
position = "{20, 736}";
},
{
name = topright;
position = "{503, 840}";
}
);
annotations = (
{
position = "{300.18, 381.51}";
type = Text;
}
);
layerId = UUID1;
paths = (
{
closed = 1;
nodes = (
"50 159 OFFCURVE",
"218 -8 OFFCURVE",
"425 -8 CURVE",
"630 -8 OFFCURVE",
"802 160 OFFCURVE",
"802 367 CURVE",
"802 570 OFFCURVE",
"630 744 OFFCURVE",
"425 744 CURVE",
"218 744 OFFCURVE",
"50 570 OFFCURVE",
"50 367 CURVE"
);
},
{
closed = 1;
nodes = (
"200 500 OFFCURVE",
"298 604 OFFCURVE",
"426 604 CURVE",
"553 604 OFFCURVE",
"652 500 OFFCURVE",
"652 367 CURVE",
"652 236 OFFCURVE",
"556 132 OFFCURVE",
"430 132 CURVE",
"300 132 OFFCURVE",
"200 237 OFFCURVE",
"200 367 CURVE"
);
}
);
width = 852;
},
{
anchors = (
{
name = bottom;
position = "{431, 0}";
},
{
name = center;
position = "{431, 355}";
},
{
name = ogonek;
position = "{544, 10}";
},
{
name = top;
position = "{431, 712}";
},
{
name = topleft;
position = "{24, 710}";
},
{
name = topright;
position = "{523, 829}";
}
);
layerId = "4C85334C-E1D4-4EB0-A0B2-9D58DDEA71D9";
paths = (
{
closed = 1;
nodes = (
"68 146 OFFCURVE",
"231 -8 OFFCURVE",
"430 -8 CURVE SMOOTH",
"630 -8 OFFCURVE",
"794 154 OFFCURVE",
"794 354 CURVE SMOOTH",
"794 553 OFFCURVE",
"630 718 OFFCURVE",
"430 718 CURVE SMOOTH",
"231 718 OFFCURVE",
"68 553 OFFCURVE",
"68 354 CURVE"
);
},
{
closed = 1;
nodes = (
"118 524 OFFCURVE",
"253 671 OFFCURVE",
"430 671 CURVE SMOOTH",
"603 671 OFFCURVE",
"744 528 OFFCURVE",
"744 354 CURVE SMOOTH",
"744 179 OFFCURVE",
"604 39 OFFCURVE",
"429 39 CURVE SMOOTH",
"257 39 OFFCURVE",
"118 180 OFFCURVE",
"118 353 CURVE"
);
}
);
width = 862;
},
{
anchors = (
{
name = bottom;
position = "{432.667, 0}";
},
{
name = center;
position = "{432.667, 350.833}";
},
{
name = ogonek;
position = "{528.167, 10}";
},
{
name = top;
position = "{432.667, 702}";
},
{
name = topleft;
position = "{24.833, 701.667}";
},
{
name = topright;
position = "{528.833, 825.667}";
}
);
layerId = "93649EC8-ADF5-4C20-AD08-3ED15854CD33";
paths = (
{
closed = 1;
nodes = (
"73.833 141.833 OFFCURVE",
"234.333 -8 OFFCURVE",
"431.667 -8 CURVE SMOOTH",
"630 -8 OFFCURVE",
"791.5 152.333 OFFCURVE",
"791.5 349.833 CURVE SMOOTH",
"791.5 548 OFFCURVE",
"630 709.667 OFFCURVE",
"431.667 709.667 CURVE SMOOTH",
"234.333 709.667 OFFCURVE",
"73.833 548 OFFCURVE",
"73.833 349.833 CURVE"
);
},
{
closed = 1;
nodes = (
"93.833 530.667 OFFCURVE",
"239.667 691 OFFCURVE",
"431.667 691 CURVE SMOOTH",
"618 691 OFFCURVE",
"771.5 536.333 OFFCURVE",
"771.5 349.833 CURVE SMOOTH",
"771.5 161.5 OFFCURVE",
"618.167 10.667 OFFCURVE",
"429 10.667 CURVE SMOOTH",
"244.5 10.667 OFFCURVE",
"93.833 162.5 OFFCURVE",
"93.833 348.833 CURVE"
);
}
);
width = 865;
}
);
leftKerningGroup = O;
rightKerningGroup = O;
unicode = 004F;
},
{
glyphname = Oogonek;
production = uni01EA;
layers = (
{
background = {
paths = (
{
closed = 1;
nodes = (
"481 0 LINE",
"426 -22 OFFCURVE",
"396 -69 OFFCURVE",
"396 -113 CURVE SMOOTH",
"396 -191 OFFCURVE",
"458 -226 OFFCURVE",
"540 -226 CURVE SMOOTH",
"597 -226 OFFCURVE",
"660 -193 OFFCURVE",
"680 -144 CURVE",
"610 -92 LINE",
"604 -110 OFFCURVE",
"582 -134 OFFCURVE",
"555 -134 CURVE SMOOTH",
"532 -134 OFFCURVE",
"511 -126 OFFCURVE",
"511 -71 CURVE SMOOTH",
"511 -9 OFFCURVE",
"554 11 OFFCURVE",
"620 47 CURVE SMOOTH",
"732 108 OFFCURVE",
"802 231 OFFCURVE",
"802 367 CURVE",
"802 570 OFFCURVE",
"630 744 OFFCURVE",
"425 744 CURVE",
"218 744 OFFCURVE",
"50 570 OFFCURVE",
"50 367 CURVE",
"50 160 OFFCURVE",
"218 -8 OFFCURVE",
"425 -8 CURVE",
"496 -8 OFFCURVE",
"555 12 OFFCURVE",
"613 47 CURVE"
);
},
{
closed = 1;
nodes = (
"200 496 OFFCURVE",
"298 600 OFFCURVE",
"426 600 CURVE",
"553 600 OFFCURVE",
"652 496 OFFCURVE",
"652 367 CURVE",
"652 237 OFFCURVE",
"556 133 OFFCURVE",
"430 133 CURVE",
"300 133 OFFCURVE",
"200 238 OFFCURVE",
"200 367 CURVE"
);
}
);
};
layerId = UUID1;
paths = (
{
closed = 1;
nodes = (
"496 -8 OFFCURVE",
"555 12 OFFCURVE",
"613 47 CURVE",
"481 0 LINE",
"426 -22 OFFCURVE",
"396 -69 OFFCURVE",
"396 -113 CURVE SMOOTH",
"396 -191 OFFCURVE",
"460 -232 OFFCURVE",
"542 -232 CURVE",
"588 -232 OFFCURVE",
"647 -201 OFFCURVE",
"677 -157 CURVE",
"627 -85 LINE",
"605 -118 OFFCURVE",
"582 -134 OFFCURVE",
"555 -134 CURVE",
"532 -134 OFFCURVE",
"511 -126 OFFCURVE",
"511 -90 CURVE SMOOTH",
"511 -38 OFFCURVE",
"588 -3 OFFCURVE",
"663 64 CURVE SMOOTH",
"734 126 OFFCURVE",
"802 214 OFFCURVE",
"802 367 CURVE",
"802 570 OFFCURVE",
"630 744 OFFCURVE",
"425 744 CURVE",
"218 744 OFFCURVE",
"50 570 OFFCURVE",
"50 367 CURVE",
"50 160 OFFCURVE",
"218 -8 OFFCURVE",
"425 -8 CURVE"
);
},
{
closed = 1;
nodes = (
"300 133 OFFCURVE",
"200 238 OFFCURVE",
"200 367 CURVE",
"200 496 OFFCURVE",
"298 600 OFFCURVE",
"426 600 CURVE",
"553 600 OFFCURVE",
"652 496 OFFCURVE",
"652 367 CURVE",
"652 237 OFFCURVE",
"556 133 OFFCURVE",
"430 133 CURVE"
);
}
);
width = 852;
},
{
layerId = "4C85334C-E1D4-4EB0-A0B2-9D58DDEA71D9";
paths = (
{
closed = 1;
nodes = (
"475 -8 OFFCURVE",
"531 4 OFFCURVE",
"566 21 CURVE",
"534 15 LINE",
"480 -8 OFFCURVE",
"425 -47 OFFCURVE",
"425 -112 CURVE",
"425 -165 OFFCURVE",
"466 -198 OFFCURVE",
"514 -198 CURVE",
"551 -198 OFFCURVE",
"586 -172 OFFCURVE",
"603 -139 CURVE",
"582 -116 LINE",
"566 -143 OFFCURVE",
"545 -162 OFFCURVE",
"518 -162 CURVE",
"492 -162 OFFCURVE",
"466 -142 OFFCURVE",
"466 -105 CURVE",
"466 -25 OFFCURVE",
"562 -4 OFFCURVE",
"651 65 CURVE",
"724 121 OFFCURVE",
"794 211 OFFCURVE",
"794 354 CURVE",
"794 553 OFFCURVE",
"630 718 OFFCURVE",
"430 718 CURVE",
"231 718 OFFCURVE",
"68 553 OFFCURVE",
"68 354 CURVE",
"68 146 OFFCURVE",
"231 -8 OFFCURVE",
"430 -8 CURVE"
);
},
{
closed = 1;
nodes = (
"257 39 OFFCURVE",
"118 180 OFFCURVE",
"118 353 CURVE",
"118 522 OFFCURVE",
"253 670 OFFCURVE",
"430 670 CURVE",
"603 670 OFFCURVE",
"744 527 OFFCURVE",
"744 354 CURVE",
"744 179 OFFCURVE",
"604 39 OFFCURVE",
"431 39 CURVE"
);
}
);
width = 862;
},
{
layerId = "93649EC8-ADF5-4C20-AD08-3ED15854CD33";
paths = (
{
closed = 1;
nodes = (
"468.333 -8 OFFCURVE",
"524.333 1.5 OFFCURVE",
"551.833 13.5 CURVE",
"549.833 20 LINE",
"496.667 -3.833 OFFCURVE",
"433.333 -40.333 OFFCURVE",
"433.333 -111.167 CURVE",
"433.333 -157.5 OFFCURVE",
"467.667 -188 OFFCURVE",
"505.667 -188 CURVE",
"539.333 -188 OFFCURVE",
"567.667 -162.833 OFFCURVE",
"581.333 -134 CURVE",
"568.667 -125.167 LINE",
"554.333 -150.5 OFFCURVE",
"533.333 -170.333 OFFCURVE",
"507.167 -170.333 CURVE",
"479.5 -170.333 OFFCURVE",
"452.667 -147 OFFCURVE",
"452.667 -110 CURVE",
"452.667 -20.833 OFFCURVE",
"554.5 -4 OFFCURVE",
"647.667 65 CURVE",
"721.5 119.333 OFFCURVE",
"791.5 210.167 OFFCURVE",
"791.5 349.833 CURVE",
"791.5 548 OFFCURVE",
"630 709.667 OFFCURVE",
"431.667 709.667 CURVE",
"234.333 709.667 OFFCURVE",
"73.833 548 OFFCURVE",
"73.833 349.833 CURVE",
"73.833 141.833 OFFCURVE",
"234.333 -8 OFFCURVE",
"431.667 -8 CURVE"
);
},
{
closed = 1;
nodes = (
"244.5 10.667 OFFCURVE",
"93.833 162.5 OFFCURVE",
"93.833 348.833 CURVE",
"93.833 530.333 OFFCURVE",
"239.667 690.833 OFFCURVE",
"431.667 690.833 CURVE",
"618 690.833 OFFCURVE",
"771.5 536.167 OFFCURVE",
"771.5 349.833 CURVE",
"771.5 161.5 OFFCURVE",
"618.167 10.667 OFFCURVE",
"431.833 10.667 CURVE"
);
}
);
width = 865;
}
);
leftKerningGroup = O;
rightKerningGroup = O;
unicode = 01EA;
},
{
glyphname = Oslash;
layers = (
{
anchors = (
{
name = bottom;
position = "{429, 0}";
},
{
name = top;
position = "{429, 736}";
}
);
components = (
{
name = O;
}
);
layerId = UUID1;
paths = (
{
closed = 1;
nodes = (
"681 759 LINE",
"76 60 LINE",
"168 -23 LINE",
"771 675 LINE"
);
}
);
width = 858;
},
{
anchors = (
{
name = bottom;
position = "{428, 0}";
},
{
name = top;
position = "{428, 710}";
}
);
components = (
{
name = O;
}
);
layerId = "4C85334C-E1D4-4EB0-A0B2-9D58DDEA71D9";
paths = (
{
closed = 1;
nodes = (
"705 727 LINE",
"110 22 LINE",
"140 -6 LINE",
"735 699 LINE"
);
}
);
width = 857;
},
{
anchors = (
{
name = bottom;
position = "{428, 0}";
},
{
name = top;
position = "{428, 701.667}";
}
);
components = (
{
alignment = -1;
name = O;
}
);
layerId = "93649EC8-ADF5-4C20-AD08-3ED15854CD33";
paths = (
{
closed = 1;
nodes = (
"712.5 717.833 LINE",
"120 10.333 LINE",
"131.667 -1 LINE",
"724.167 706.5 LINE"
);
}
);
width = 856;
}
);
unicode = 00D8;
},
{
glyphname = OE;
layers = (
{
anchors = (
{
name = bottom;
position = "{511, 0}";
},
{
name = top;
position = "{511, 736}";
}
);
layerId = UUID1;
paths = (
{
closed = 1;
nodes = (
"529 731 LINE",
"499 739 OFFCURVE",
"467 744 OFFCURVE",
"434 744 CURVE SMOOTH",
"227 744 OFFCURVE",
"59 570 OFFCURVE",
"59 367 CURVE SMOOTH",
"59 160 OFFCURVE",
"227 -8 OFFCURVE",
"434 -8 CURVE SMOOTH",
"466 -8 OFFCURVE",
"496 -4 OFFCURVE",
"526 4 CURVE",
"489 139 LINE",
"473 135 OFFCURVE",
"456 133 OFFCURVE",
"439 133 CURVE SMOOTH",
"311 133 OFFCURVE",
"209 238 OFFCURVE",
"209 367 CURVE SMOOTH",
"209 496 OFFCURVE",
"309 600 OFFCURVE",
"435 600 CURVE SMOOTH",
"452 600 OFFCURVE",
"468 598 OFFCURVE",
"484 594 CURVE"
);
},
{
closed = 1;
nodes = (
"477 0 LINE",
"963 0 LINE",
"963 139 LINE",
"627 139 LINE",
"627 299 LINE",
"908 299 LINE",
"908 437 LINE",
"627 437 LINE",
"627 601 LINE",
"949 601 LINE",
"949 736 LINE",
"477 736 LINE"
);
}
);
width = 1021;
},
{
anchors = (
{
name = bottom;
position = "{506, 0}";
},
{
name = top;
position = "{506, 710}";
}
);
layerId = "4C85334C-E1D4-4EB0-A0B2-9D58DDEA71D9";
paths = (
{
closed = 1;
nodes = (
"528 705 LINE",
"499 713 OFFCURVE",
"468 718 OFFCURVE",
"436 718 CURVE SMOOTH",
"237 718 OFFCURVE",
"74 553 OFFCURVE",
"74 354 CURVE SMOOTH",
"74 154 OFFCURVE",
"237 -8 OFFCURVE",
"436 -8 CURVE SMOOTH",
"467 -8 OFFCURVE",
"497 -4 OFFCURVE",
"526 3 CURVE",
"505 47 LINE",
"483 42 OFFCURVE",
"460 39 OFFCURVE",
"438 39 CURVE SMOOTH",
"264 39 OFFCURVE",
"124 180 OFFCURVE",
"124 353 CURVE SMOOTH",
"124 527 OFFCURVE",
"264 670 OFFCURVE",
"436 670 CURVE SMOOTH",
"460 670 OFFCURVE",
"483 667 OFFCURVE",
"505 662 CURVE"
);
},
{
closed = 1;
nodes = (
"498 0 LINE",
"920 0 LINE",
"920 47 LINE",
"548 47 LINE",
"548 334 LINE",
"867 334 LINE",
"867 380 LINE",
"548 380 LINE",
"548 664 LINE",
"906 664 LINE",
"906 710 LINE",
"498 710 LINE"
);
}
);
width = 1011;
},
{
anchors = (
{
name = bottom;
position = "{504.333, 0}";
},
{
name = top;
position = "{504.333, 701.667}";
}
);
layerId = "93649EC8-ADF5-4C20-AD08-3ED15854CD33";
paths = (
{
closed = 1;
nodes = (
"528 697.5 LINE",
"499 705.5 OFFCURVE",
"468.833 709.667 OFFCURVE",
"436.833 709.667 CURVE SMOOTH",
"239.5 709.667 OFFCURVE",
"79 548 OFFCURVE",
"79 349.833 CURVE SMOOTH",
"79 152.333 OFFCURVE",
"239.5 -8 OFFCURVE",
"436.833 -8 CURVE SMOOTH",
"467.833 -8 OFFCURVE",
"497.833 -4 OFFCURVE",
"526 3 CURVE",
"510 19.5 LINE",
"485.5 13.667 OFFCURVE",
"460.833 10.667 OFFCURVE",
"438 10.667 CURVE SMOOTH",
"249.833 10.667 OFFCURVE",
"99 162.5 OFFCURVE",
"99 348.833 CURVE SMOOTH",
"99 536.167 OFFCURVE",
"250.667 690.833 OFFCURVE",
"436.833 690.833 CURVE SMOOTH",
"462.5 690.833 OFFCURVE",
"487.167 687.833 OFFCURVE",
"510.833 682.833 CURVE"
);
},
{
closed = 1;
nodes = (
"504.667 0 LINE",
"907.5 0 LINE",
"907.5 19.5 LINE",
"524.667 19.5 LINE",
"524.667 344 LINE",
"854.5 344 LINE",
"854.5 363.333 LINE",
"524.667 363.333 LINE",
"524.667 682.333 LINE",
"893.5 682.333 LINE",
"893.5 701.667 LINE",
"504.667 701.667 LINE"
);
}
);
width = 1009;
}
);
leftKerningGroup = O;
unicode = 0152;
},
{
glyphname = P;
layers = (
{
anchors = (
{
name = bottom;
position = "{331, 0}";
},
{
name = top;
position = "{331, 736}";
}
);
layerId = UUID1;
paths = (
{
closed = 1;
nodes = (
"95 736 LINE",
"95 0 LINE",
"240 0 LINE",
"240 233 LINE",
"344 233 LINE SMOOTH",
"536 233 OFFCURVE",
"601 367 OFFCURVE",
"601 488 CURVE SMOOTH",
"601 639 OFFCURVE",
"500 736 OFFCURVE",
"318 736 CURVE SMOOTH"
);
},
{
closed = 1;
nodes = (
"240 374 LINE",
"240 596 LINE",
"344 596 LINE SMOOTH",
"446 596 OFFCURVE",
"456 513 OFFCURVE",
"456 484 CURVE SMOOTH",
"456 446 OFFCURVE",
"431 374 OFFCURVE",
"343 374 CURVE SMOOTH"
);
}
);
width = 636;
},
{
anchors = (
{
name = bottom;
position = "{275, 0}";
},
{
name = top;
position = "{275, 710}";
}
);
layerId = "4C85334C-E1D4-4EB0-A0B2-9D58DDEA71D9";
paths = (
{
closed = 1;
nodes = (
"113 710 LINE",
"113 0 LINE",
"162 0 LINE",
"162 298 LINE",
"272 298 LINE SMOOTH",
"432 298 OFFCURVE",
"497 403 OFFCURVE",
"497 509 CURVE SMOOTH",
"497 643 OFFCURVE",
"408 710 OFFCURVE",
"277 710 CURVE SMOOTH"
);
},
{
closed = 1;
nodes = (
"162 345 LINE",
"162 663 LINE",
"282 663 LINE SMOOTH",
"389 663 OFFCURVE",
"449 599 OFFCURVE",
"449 509 CURVE SMOOTH",
"449 446 OFFCURVE",
"411 345 OFFCURVE",
"272 345 CURVE SMOOTH"
);
}
);
width = 554;
},
{
anchors = (
{
name = bottom;
position = "{258.333, 0}";
},
{
name = top;
position = "{258.333, 701.667}";
}
);
layerId = "93649EC8-ADF5-4C20-AD08-3ED15854CD33";
paths = (
{
closed = 1;
nodes = (
"118.833 701.667 LINE",
"118.833 0 LINE",
"138.667 0 LINE",
"138.667 317.167 LINE",
"250.333 317.167 LINE SMOOTH",
"401.167 317.167 OFFCURVE",
"466.167 413.833 OFFCURVE",
"466.167 514.833 CURVE SMOOTH",
"466.167 643.833 OFFCURVE",
"380.5 701.667 OFFCURVE",
"264.5 701.667 CURVE SMOOTH"
);
},
{
closed = 1;
nodes = (
"138.667 335.833 LINE",
"138.667 683 LINE",
"263.667 683 LINE SMOOTH",
"372.333 683 OFFCURVE",
"446.5 624.833 OFFCURVE",
"446.5 516.5 CURVE SMOOTH",
"446.5 446 OFFCURVE",
"405.167 335.833 OFFCURVE",
"250.333 335.833 CURVE SMOOTH"
);
}
);
width = 530;
}
);
leftMetricsKey = H;
rightKerningGroup = P;
unicode = 0050;
},
{
glyphname = Thorn;
layers = (
{
anchors = (
{
name = bottom;
position = "{272, 0}";
},
{
name = top;
position = "{272, 736}";
}
);
layerId = UUID1;
paths = (
{
closed = 1;
nodes = (
"245 616 LINE",
"245 732 LINE",
"95 732 LINE",
"95 0 LINE",
"245 0 LINE",
"245 113 LINE",
"354 113 LINE SMOOTH",
"546 113 OFFCURVE",
"601 247 OFFCURVE",
"601 368 CURVE SMOOTH",
"601 519 OFFCURVE",
"530 616 OFFCURVE",
"348 616 CURVE SMOOTH"
);
},
{
closed = 1;
nodes = (
"245 254 LINE",
"245 476 LINE",
"339 476 LINE SMOOTH",
"429 476 OFFCURVE",
"451 413 OFFCURVE",
"451 364 CURVE SMOOTH",
"451 306 OFFCURVE",
"414 254 OFFCURVE",
"338 254 CURVE SMOOTH"
);
}
);
width = 636;
},
{
anchors = (
{
name = bottom;
position = "{282, 0}";
},
{
name = top;
position = "{282, 710}";
}
);
layerId = "4C85334C-E1D4-4EB0-A0B2-9D58DDEA71D9";
paths = (
{
closed = 1;
nodes = (
"163 556 LINE",
"163 704 LINE",
"113 704 LINE",
"113 0 LINE",
"163 0 LINE",
"163 145 LINE",
"275 145 LINE SMOOTH",
"435 145 OFFCURVE",
"497 250 OFFCURVE",
"497 356 CURVE SMOOTH",
"497 497 OFFCURVE",
"388 556 OFFCURVE",
"283 556 CURVE SMOOTH"
);
},
{
closed = 1;
nodes = (
"163 192 LINE",
"163 509 LINE",
"274 509 LINE SMOOTH",
"379 509 OFFCURVE",
"447 444 OFFCURVE",
"447 356 CURVE SMOOTH",
"447 288 OFFCURVE",
"407 192 OFFCURVE",
"273 192 CURVE SMOOTH"
);
}
);
width = 554;
},
{
anchors = (
{
name = bottom;
position = "{284.5, 0}";
},
{
name = top;
position = "{284.5, 701.667}";
}
);
layerId = "93649EC8-ADF5-4C20-AD08-3ED15854CD33";
paths = (
{
closed = 1;
nodes = (
"138.833 538.5 LINE",
"138.833 700.667 LINE",
"118.833 700.667 LINE",
"118.833 0 LINE",
"138.833 0 LINE",
"138.833 154.167 LINE",
"250.833 154.167 LINE SMOOTH",
"401.667 154.167 OFFCURVE",
"466.167 250.833 OFFCURVE",
"466.167 351.833 CURVE SMOOTH",
"466.167 490.333 OFFCURVE",
"345.5 538.5 OFFCURVE",
"263.833 538.5 CURVE SMOOTH"
);
},
{
closed = 1;
nodes = (
"138.833 173.667 LINE",
"138.833 519 LINE",
"254 519 LINE SMOOTH",
"364 519 OFFCURVE",
"446.167 453.167 OFFCURVE",
"446.167 353.5 CURVE SMOOTH",
"446.167 282.167 OFFCURVE",
"404.5 173.667 OFFCURVE",
"253 173.667 CURVE SMOOTH"
);
}
);
width = 530;
}
);
leftMetricsKey = H;
rightKerningGroup = P;
rightMetricsKey = P;
unicode = 00DE;
},
{
glyphname = Q;
layers = (
{
anchors = (
{
name = bottom;
position = "{435, 0}";
},
{
name = top;
position = "{435, 736}";
}
);
layerId = UUID1;
paths = (
{
closed = 1;
nodes = (
"425 0 LINE",
"843 0 LINE",
"843 142 LINE",
"615 142 LINE"
);
},
{
closed = 1;
nodes = (
"50 160 OFFCURVE",
"218 -8 OFFCURVE",
"425 -8 CURVE",
"630 -8 OFFCURVE",
"802 160 OFFCURVE",
"802 367 CURVE",
"802 570 OFFCURVE",
"630 744 OFFCURVE",
"425 744 CURVE",
"218 744 OFFCURVE",
"50 570 OFFCURVE",
"50 367 CURVE"
);
},
{
closed = 1;
nodes = (
"200 496 OFFCURVE",
"298 600 OFFCURVE",
"426 600 CURVE",
"553 600 OFFCURVE",
"652 496 OFFCURVE",
"652 367 CURVE",
"652 237 OFFCURVE",
"556 133 OFFCURVE",
"430 133 CURVE",
"300 133 OFFCURVE",
"200 238 OFFCURVE",
"200 367 CURVE"
);
}
);
width = 893;
},
{
anchors = (
{
name = bottom;
position = "{438, 0}";
},
{
name = top;
position = "{438, 710}";
}
);
layerId = "4C85334C-E1D4-4EB0-A0B2-9D58DDEA71D9";
paths = (
{
closed = 1;
nodes = (
"477 0 LINE",
"814 0 LINE",
"814 47 LINE",
"546 47 LINE"
);
},
{
closed = 1;
nodes = (
"68 146 OFFCURVE",
"231 -8 OFFCURVE",
"430 -8 CURVE SMOOTH",
"630 -8 OFFCURVE",
"794 154 OFFCURVE",
"794 354 CURVE SMOOTH",
"794 553 OFFCURVE",
"630 718 OFFCURVE",
"430 718 CURVE SMOOTH",
"231 718 OFFCURVE",
"68 553 OFFCURVE",
"68 354 CURVE"
);
},
{
closed = 1;
nodes = (
"118 522 OFFCURVE",
"253 670 OFFCURVE",
"430 670 CURVE SMOOTH",
"603 670 OFFCURVE",
"744 527 OFFCURVE",
"744 354 CURVE SMOOTH",
"744 179 OFFCURVE",
"604 39 OFFCURVE",
"429 39 CURVE SMOOTH",
"257 39 OFFCURVE",
"118 180 OFFCURVE",
"118 353 CURVE"
);
}
);
width = 882;
},
{
anchors = (
{
name = bottom;
position = "{438.833, 0}";
},
{
name = top;
position = "{438.833, 701.667}";
}
);
layerId = "93649EC8-ADF5-4C20-AD08-3ED15854CD33";
paths = (
{
closed = 1;
nodes = (
"492.833 0 LINE",
"804.833 0 LINE",
"804.833 18.667 LINE",
"525.167 18.667 LINE"
);
},
{
closed = 1;
nodes = (
"73.833 141.833 OFFCURVE",
"234.333 -8 OFFCURVE",
"431.667 -8 CURVE SMOOTH",
"630 -8 OFFCURVE",
"791.5 152.333 OFFCURVE",
"791.5 349.833 CURVE SMOOTH",
"791.5 548 OFFCURVE",
"630 709.667 OFFCURVE",
"431.667 709.667 CURVE SMOOTH",
"234.333 709.667 OFFCURVE",
"73.833 548 OFFCURVE",
"73.833 349.833 CURVE"
);
},
{
closed = 1;
nodes = (
"93.833 530.333 OFFCURVE",
"239.667 690.833 OFFCURVE",
"431.667 690.833 CURVE SMOOTH",
"618 690.833 OFFCURVE",
"771.5 536.167 OFFCURVE",
"771.5 349.833 CURVE SMOOTH",
"771.5 161.5 OFFCURVE",
"618.167 10.667 OFFCURVE",
"429 10.667 CURVE SMOOTH",
"244.5 10.667 OFFCURVE",
"93.833 162.5 OFFCURVE",
"93.833 348.833 CURVE"
);
}
);
width = 879;
}
);
leftKerningGroup = O;
leftMetricsKey = O;
rightMetricsKey = O;
unicode = 0051;
},
{
glyphname = R;
layers = (
{
anchors = (
{
name = bottom;
position = "{361, 0}";
},
{
name = top;
position = "{321, 756}";
}
);
layerId = UUID1;
paths = (
{
closed = 1;
nodes = (
"95 736 LINE",
"95 0 LINE",
"240 0 LINE",
"240 234 LINE",
"344 234 LINE",
"540 234 OFFCURVE",
"606 367 OFFCURVE",
"606 488 CURVE",
"606 639 OFFCURVE",
"503 736 OFFCURVE",
"318 736 CURVE"
);
},
{
closed = 1;
nodes = (
"240 374 LINE",
"240 596 LINE",
"344 596 LINE",
"446 596 OFFCURVE",
"456 514 OFFCURVE",
"456 483 CURVE",
"456 441 OFFCURVE",
"431 374 OFFCURVE",
"343 374 CURVE"
);
},
{
closed = 1;
nodes = (
"306 280 LINE",
"492 0 LINE",
"661 0 LINE",
"479 284 LINE"
);
}
);
width = 686;
},
{
anchors = (
{
name = bottom;
position = "{287, 0}";
},
{
name = top;
position = "{277, 715}";
}
);
layerId = "4C85334C-E1D4-4EB0-A0B2-9D58DDEA71D9";
paths = (
{
closed = 1;
nodes = (
"113 710 LINE",
"113 0 LINE",
"162 0 LINE",
"162 298 LINE",
"272 298 LINE SMOOTH",
"439 298 OFFCURVE",
"499 403 OFFCURVE",
"499 509 CURVE SMOOTH",
"499 650 OFFCURVE",
"381 710 OFFCURVE",
"275 710 CURVE SMOOTH"
);
},
{
closed = 1;
nodes = (
"162 345 LINE",
"162 663 LINE",
"282 663 LINE SMOOTH",
"384 663 OFFCURVE",
"449 591 OFFCURVE",
"449 507 CURVE SMOOTH",
"449 434 OFFCURVE",
"411 345 OFFCURVE",
"269 345 CURVE SMOOTH"
);
},
{
closed = 1;
nodes = (
"313 322 LINE",
"511 0 LINE",
"568 0 LINE",
"371 323 LINE"
);
}
);
width = 633;
},
{
anchors = (
{
name = bottom;
position = "{265.333, 0}";
},
{
name = top;
position = "{263.667, 702.5}";
}
);
layerId = "93649EC8-ADF5-4C20-AD08-3ED15854CD33";
paths = (
{
closed = 1;
nodes = (
"118.833 701.667 LINE",
"118.833 0 LINE",
"138.667 0 LINE",
"138.667 317.167 LINE",
"250.333 317.167 LINE SMOOTH",
"409 317.167 OFFCURVE",
"466.5 413.833 OFFCURVE",
"466.5 514.833 CURVE SMOOTH",
"466.5 653.333 OFFCURVE",
"344.333 701.667 OFFCURVE",
"262.5 701.667 CURVE SMOOTH"
);
},
{
closed = 1;
nodes = (
"138.667 335.833 LINE",
"138.667 683 LINE",
"263.667 683 LINE SMOOTH",
"364.833 683 OFFCURVE",
"446.5 614.333 OFFCURVE",
"446.5 513.667 CURVE SMOOTH",
"446.5 431.5 OFFCURVE",
"405.167 335.833 OFFCURVE",
"247.333 335.833 CURVE SMOOTH"
);
},
{
closed = 1;
nodes = (
"315.5 334.5 LINE",
"516.833 0 LINE",
"539.667 0 LINE",
"338.5 334.667 LINE"
);
}
);
width = 617;
}
);
leftMetricsKey = H;
rightKerningGroup = R;
unicode = 0052;
},
{
glyphname = S;
layers = (
{
anchors = (
{
name = bottom;
position = "{289, -10}";
},
{
name = top;
position = "{289, 736}";
}
);
layerId = UUID1;
paths = (
{
closed = 1;
nodes = (
"543 669 LINE",
"484 708 OFFCURVE",
"418 740 OFFCURVE",
"299 740 CURVE",
"162 733 OFFCURVE",
"70 652 OFFCURVE",
"70 524 CURVE",
"70 383 OFFCURVE",
"188 337 OFFCURVE",
"278 302 CURVE SMOOTH",
"336 279 OFFCURVE",
"385 247 OFFCURVE",
"385 203 CURVE",
"385 139 OFFCURVE",
"323 120 OFFCURVE",
"271 120 CURVE",
"219 120 OFFCURVE",
"147 146 OFFCURVE",
"96 184 CURVE",
"32 71 LINE",
"109 16 OFFCURVE",
"200 -8 OFFCURVE",
"284 -8 CURVE",
"448 -8 OFFCURVE",
"536 91 OFFCURVE",
"536 203 CURVE",
"536 343 OFFCURVE",
"447 391 OFFCURVE",
"361 423 CURVE SMOOTH",
"290 449 OFFCURVE",
"220 483 OFFCURVE",
"220 535 CURVE",
"220 586 OFFCURVE",
"258 611 OFFCURVE",
"321 611 CURVE",
"372 611 OFFCURVE",
"432 589 OFFCURVE",
"488 558 CURVE"
);
}
);
width = 583;
},
{
anchors = (
{
name = bottom;
position = "{291, -3}";
},
{
name = top;
position = "{291, 724}";
}
);
layerId = "4C85334C-E1D4-4EB0-A0B2-9D58DDEA71D9";
paths = (
{
closed = 1;
nodes = (
"487 668 LINE",
"436 694 OFFCURVE",
"362 714 OFFCURVE",
"296 714 CURVE SMOOTH",
"183 712 OFFCURVE",
"98 645 OFFCURVE",
"98 543 CURVE SMOOTH",
"98 434 OFFCURVE",
"197 395 OFFCURVE",
"289 361 CURVE SMOOTH",
"376 329 OFFCURVE",
"461 292 OFFCURVE",
"461 191 CURVE SMOOTH",
"461 85 OFFCURVE",
"370 35 OFFCURVE",
"284 35 CURVE SMOOTH",
"210 35 OFFCURVE",
"131 73 OFFCURVE",
"88 105 CURVE",
"65 65 LINE",
"103 40 OFFCURVE",
"183 -8 OFFCURVE",
"289 -8 CURVE SMOOTH",
"420 -8 OFFCURVE",
"511 73 OFFCURVE",
"511 192 CURVE SMOOTH",
"511 324 OFFCURVE",
"412 366 OFFCURVE",
"318 401 CURVE SMOOTH",
"230 434 OFFCURVE",
"148 468 OFFCURVE",
"148 548 CURVE SMOOTH",
"148 619 OFFCURVE",
"208 671 OFFCURVE",
"302 671 CURVE SMOOTH",
"362 671 OFFCURVE",
"426 650 OFFCURVE",
"468 630 CURVE"
);
}
);
width = 581;
},
{
anchors = (
{
name = bottom;
position = "{276.833, -0.5}";
},
{
name = top;
position = "{276.833, 720.667}";
}
);
layerId = "93649EC8-ADF5-4C20-AD08-3ED15854CD33";
paths = (
{
closed = 1;
nodes = (
"455.333 667.167 LINE",
"406.833 689.833 OFFCURVE",
"331.167 705.667 OFFCURVE",
"280.167 705.667 CURVE SMOOTH",
"174.667 705.333 OFFCURVE",
"92.167 642.5 OFFCURVE",
"92.167 548.833 CURVE SMOOTH",
"92.167 449.833 OFFCURVE",
"185.333 412.5 OFFCURVE",
"278.167 378.5 CURVE SMOOTH",
"373.5 344 OFFCURVE",
"469.333 305.333 OFFCURVE",
"469.333 187.667 CURVE SMOOTH",
"469.333 68.333 OFFCURVE",
"370 10 OFFCURVE",
"273.167 10 CURVE SMOOTH",
"192.5 10 OFFCURVE",
"111.833 51.333 OFFCURVE",
"71.333 80.833 CURVE",
"60.833 63.333 LINE",
"86.333 47.5 OFFCURVE",
"163 -8 OFFCURVE",
"276.5 -8 CURVE SMOOTH",
"397.5 -8 OFFCURVE",
"489.333 67.167 OFFCURVE",
"489.333 188.667 CURVE SMOOTH",
"489.333 318.167 OFFCURVE",
"387 358.5 OFFCURVE",
"290.5 394.333 CURVE SMOOTH",
"197.5 429 OFFCURVE",
"112.167 463.833 OFFCURVE",
"112.167 552.167 CURVE SMOOTH",
"112.167 629 OFFCURVE",
"178.833 688.5 OFFCURVE",
"282 688.5 CURVE SMOOTH",
"344.5 688.5 OFFCURVE",
"410.167 668.333 OFFCURVE",
"447.167 651.667 CURVE"
);
}
);
width = 551;
}
);
rightKerningGroup = S;
unicode = 0053;
},
{
glyphname = Germandbls;
production = uni1E9E;
layers = (
{
layerId = UUID1;
paths = (
{
closed = 1;
nodes = (
"718 -8 OFFCURVE",
"799 91 OFFCURVE",
"799 203 CURVE",
"799 333 OFFCURVE",
"709 379 OFFCURVE",
"634 423 CURVE",
"588 452 OFFCURVE",
"537 478 OFFCURVE",
"537 530 CURVE",
"537 568 OFFCURVE",
"558 595 OFFCURVE",
"594 595 CURVE",
"615 595 OFFCURVE",
"630 587 OFFCURVE",
"639 580 CURVE",
"677 687 LINE",
"631 736 OFFCURVE",
"504 786 OFFCURVE",
"398 786 CURVE",
"207 786 OFFCURVE",
"95 637 OFFCURVE",
"95 421 CURVE",
"95 0 LINE",
"241 0 LINE",
"241 417 LINE",
"241 594 OFFCURVE",
"307 671 OFFCURVE",
"413 671 CURVE",
"479 671 OFFCURVE",
"542 649 OFFCURVE",
"592 597 CURVE",
"637 669 LINE",
"622 685 OFFCURVE",
"602 693 OFFCURVE",
"571 693 CURVE",
"463 685 OFFCURVE",
"393 620 OFFCURVE",
"393 506 CURVE",
"393 399 OFFCURVE",
"481 339 OFFCURVE",
"551 302 CURVE",
"602 274 OFFCURVE",
"648 247 OFFCURVE",
"648 203 CURVE",
"648 139 OFFCURVE",
"596 120 OFFCURVE",
"554 120 CURVE",
"502 120 OFFCURVE",
"430 146 OFFCURVE",
"379 184 CURVE",
"315 71 LINE",
"392 16 OFFCURVE",
"483 -8 OFFCURVE",
"567 -8 CURVE"
);
}
);
width = 839;
},
{
layerId = "4C85334C-E1D4-4EB0-A0B2-9D58DDEA71D9";
paths = (
{
closed = 1;
nodes = (
"693 -8 OFFCURVE",
"768 70 OFFCURVE",
"768 161 CURVE",
"768 259 OFFCURVE",
"686 296 OFFCURVE",
"608 338 CURVE",
"534 379 OFFCURVE",
"461 417 OFFCURVE",
"461 497 CURVE",
"461 565 OFFCURVE",
"518 618 OFFCURVE",
"586 618 CURVE",
"634 618 OFFCURVE",
"668 593 OFFCURVE",
"679 584 CURVE",
"695 620 LINE",
"647 675 OFFCURVE",
"539 729 OFFCURVE",
"420 729 CURVE",
"211 729 OFFCURVE",
"113 580 OFFCURVE",
"113 364 CURVE",
"113 0 LINE",
"162 0 LINE",
"162 360 LINE",
"162 588 OFFCURVE",
"267 689 OFFCURVE",
"426 689 CURVE",
"506 689 OFFCURVE",
"591 659 OFFCURVE",
"647 607 CURVE",
"663 629 LINE",
"646 640 OFFCURVE",
"626 654 OFFCURVE",
"580 654 CURVE",
"464 647 OFFCURVE",
"411 571 OFFCURVE",
"411 486 CURVE",
"411 392 OFFCURVE",
"496 339 OFFCURVE",
"580 298 CURVE",
"648 258 OFFCURVE",
"718 231 OFFCURVE",
"718 160 CURVE",
"718 78 OFFCURVE",
"636 35 OFFCURVE",
"575 35 CURVE",
"512 35 OFFCURVE",
"448 57 OFFCURVE",
"402 85 CURVE",
"381 45 LINE",
"427 17 OFFCURVE",
"493 -8 OFFCURVE",
"577 -8 CURVE"
);
}
);
width = 839;
},
{
layerId = "93649EC8-ADF5-4C20-AD08-3ED15854CD33";
paths = (
{
closed = 1;
nodes = (
"685.5 -8 OFFCURVE",
"758.833 64.167 OFFCURVE",
"758.833 148.5 CURVE",
"758.833 236.5 OFFCURVE",
"679.333 271 OFFCURVE",
"600.5 313 CURVE",
"518.167 357.333 OFFCURVE",
"437.667 398.667 OFFCURVE",
"437.667 487 CURVE",
"437.667 564.167 OFFCURVE",
"506.333 624.667 OFFCURVE",
"583.5 624.667 CURVE",
"639.833 624.667 OFFCURVE",
"679.667 594.667 OFFCURVE",
"690.667 585.667 CURVE",
"700.833 600 LINE",
"652 656.667 OFFCURVE",
"549.833 711.5 OFFCURVE",
"426.667 711.5 CURVE",
"211.833 711.5 OFFCURVE",
"118.833 562.5 OFFCURVE",
"118.833 346.5 CURVE",
"118.833 0 LINE",
"138.667 0 LINE",
"138.667 342.5 LINE",
"138.667 586.333 OFFCURVE",
"254.5 694 OFFCURVE",
"429.333 694 CURVE",
"514.333 694 OFFCURVE",
"605.167 662.333 OFFCURVE",
"663.667 610.333 CURVE",
"670.5 616.5 LINE",
"652.667 626.667 OFFCURVE",
"632.667 642.333 OFFCURVE",
"582.5 642.333 CURVE",
"464 635.333 OFFCURVE",
"416.833 556 OFFCURVE",
"416.833 480.167 CURVE",
"416.833 389.5 OFFCURVE",
"501 339 OFFCURVE",
"588.333 297.167 CURVE",
"662.167 253 OFFCURVE",
"738.833 226 OFFCURVE",
"738.833 146.667 CURVE",
"738.833 59.667 OFFCURVE",
"647.667 10 OFFCURVE",
"580.833 10 CURVE",
"514.5 10 OFFCURVE",
"453.833 30.333 OFFCURVE",
"408.667 55 CURVE",
"401 37.5 LINE",
"437 17 OFFCURVE",
"495.5 -8 OFFCURVE",
"580.333 -8 CURVE"
);
}
);
width = 837;
}
);
leftMetricsKey = H;
rightMetricsKey = S;
unicode = 1E9E;
},
{
glyphname = Schwa;
production = uni018F;
layers = (
{
layerId = UUID1;
paths = (
{
closed = 1;
nodes = (
"296 743 OFFCURVE",
"170 692 OFFCURVE",
"114 635 CURVE",
"186 517 LINE",
"224 565 OFFCURVE",
"306 601 OFFCURVE",
"373 601 CURVE",
"473 601 OFFCURVE",
"581 516 OFFCURVE",
"581 377 CURVE",
"581 235 OFFCURVE",
"488 129 OFFCURVE",
"384 129 CURVE",
"288 129 OFFCURVE",
"233 200 OFFCURVE",
"210 294 CURVE",
"165 251 LINE",
"639 410 LINE",
"608 516 LINE",
"40 332 LINE",
"74 123 OFFCURVE",
"194 0 OFFCURVE",
"373 0 CURVE",
"569 0 OFFCURVE",
"735 164 OFFCURVE",
"735 385 CURVE",
"735 589 OFFCURVE",
"600 743 OFFCURVE",
"376 743 CURVE"
);
}
);
width = 785;
},
{
layerId = "4C85334C-E1D4-4EB0-A0B2-9D58DDEA71D9";
paths = (
{
closed = 1;
nodes = (
"284 718 OFFCURVE",
"186 675 OFFCURVE",
"123 615 CURVE",
"149 577 LINE",
"203 630 OFFCURVE",
"291 670 OFFCURVE",
"374 670 CURVE",
"555 670 OFFCURVE",
"686 522 OFFCURVE",
"686 355 CURVE",
"686 181 OFFCURVE",
"548 38 OFFCURVE",
"377 38 CURVE",
"254 38 OFFCURVE",
"159 117 OFFCURVE",
"113 234 CURVE",
"97 215 LINE",
"690 448 LINE",
"678 486 LINE",
"55 245 LINE",
"103 96 OFFCURVE",
"214 -6 OFFCURVE",
"374 -6 CURVE",
"575 -6 OFFCURVE",
"737 154 OFFCURVE",
"737 357 CURVE",
"737 559 OFFCURVE",
"583 718 OFFCURVE",
"375 718 CURVE"
);
}
);
width = 805;
},
{
layerId = "93649EC8-ADF5-4C20-AD08-3ED15854CD33";
paths = (
{
closed = 1;
nodes = (
"280.667 710.5 OFFCURVE",
"191 670 OFFCURVE",
"125.5 609.167 CURVE",
"138.167 594.5 LINE",
"197.167 649.167 OFFCURVE",
"286.833 690.833 OFFCURVE",
"374 690.833 CURVE",
"580 690.833 OFFCURVE",
"717.667 523.667 OFFCURVE",
"717.667 348.333 CURVE",
"717.667 164.333 OFFCURVE",
"566.333 10.5 OFFCURVE",
"374.5 10.5 CURVE",
"244 10.5 OFFCURVE",
"136.5 92 OFFCURVE",
"83.833 215.667 CURVE",
"77 204.167 LINE",
"705.833 459.667 LINE",
"698.833 476.833 LINE",
"59.167 218.333 LINE",
"111.333 87.667 OFFCURVE",
"219.833 -7.667 OFFCURVE",
"374 -7.667 CURVE",
"576.667 -7.667 OFFCURVE",
"737.833 150.667 OFFCURVE",
"737.833 348.667 CURVE",
"737.833 549.833 OFFCURVE",
"578 710.5 OFFCURVE",
"374.167 710.5 CURVE"
);
}
);
width = 812;
}
);
rightMetricsKey = O;
unicode = 018F;
},
{
glyphname = T;
layers = (
{
anchors = (
{
name = bottom;
position = "{293, 0}";
},
{
name = center;
position = "{293, 368}";
},
{
name = top;
position = "{293, 736}";
}
);
layerId = UUID1;
paths = (
{
closed = 1;
nodes = (
"45 596 LINE",
"217 596 LINE",
"217 0 LINE",
"362 0 LINE",
"362 596 LINE",
"541 596 LINE",
"541 736 LINE",
"45 736 LINE"
);
}
);
width = 586;
},
{
anchors = (
{
name = bottom;
position = "{289, 0}";
},
{
name = center;
position = "{289, 355}";
},
{
name = top;
position = "{289, 710}";
}
);
layerId = "4C85334C-E1D4-4EB0-A0B2-9D58DDEA71D9";
paths = (
{
closed = 1;
nodes = (
"56 663 LINE",
"263 663 LINE",
"263 0 LINE",
"312 0 LINE",
"312 663 LINE",
"521 663 LINE",
"521 710 LINE",
"56 710 LINE"
);
}
);
width = 577;
},
{
anchors = (
{
name = bottom;
position = "{287.333, 0}";
},
{
name = center;
position = "{287.333, 350.833}";
},
{
name = top;
position = "{287.333, 701.667}";
}
);
layerId = "93649EC8-ADF5-4C20-AD08-3ED15854CD33";
paths = (
{
closed = 1;
nodes = (
"59.333 683 LINE",
"277.167 683 LINE",
"277.167 0 LINE",
"297 0 LINE",
"297 683 LINE",
"515.167 683 LINE",
"515.167 701.667 LINE",
"59.333 701.667 LINE"
);
}
);
width = 575;
}
);
leftKerningGroup = T;
rightKerningGroup = T;
unicode = 0054;
},
{
glyphname = U;
layers = (
{
anchors = (
{
name = bottom;
position = "{378, 0}";
},
{
name = ogonek;
position = "{542, 10}";
},
{
name = top;
position = "{378, 756}";
},
{
name = topright;
position = "{660, 769}";
}
);
layerId = UUID1;
paths = (
{
closed = 1;
nodes = (
"225 736 LINE",
"80 736 LINE",
"80 269 LINE SMOOTH",
"80 107 OFFCURVE",
"212 -8 OFFCURVE",
"377 -8 CURVE SMOOTH",
"377 -8 LINE SMOOTH",
"543 -8 OFFCURVE",
"676 107 OFFCURVE",
"676 269 CURVE SMOOTH",
"676 736 LINE",
"533 736 LINE",
"533 272 LINE SMOOTH",
"533 202 OFFCURVE",
"466 133 OFFCURVE",
"377 133 CURVE SMOOTH",
"295 133 OFFCURVE",
"225 202 OFFCURVE",
"225 272 CURVE SMOOTH"
);
}
);
width = 756;
},
{
anchors = (
{
name = bottom;
position = "{354, 0}";
},
{
name = ogonek;
position = "{480, 10}";
},
{
name = top;
position = "{354, 715}";
},
{
name = topright;
position = "{603, 810}";
}
);
layerId = "4C85334C-E1D4-4EB0-A0B2-9D58DDEA71D9";
paths = (
{
closed = 1;
nodes = (
"158 710 LINE",
"109 710 LINE",
"109 237 LINE SMOOTH",
"109 82 OFFCURVE",
"215 -8 OFFCURVE",
"353 -8 CURVE SMOOTH",
"353 -8 LINE SMOOTH",
"491 -8 OFFCURVE",
"598 82 OFFCURVE",
"598 237 CURVE SMOOTH",
"598 710 LINE",
"550 710 LINE",
"550 240 LINE SMOOTH",
"550 116 OFFCURVE",
"466 39 OFFCURVE",
"353 39 CURVE SMOOTH",
"241 39 OFFCURVE",
"158 116 OFFCURVE",
"158 240 CURVE SMOOTH"
);
}
);
width = 707;
},
{
anchors = (
{
name = bottom;
position = "{346.5, 0}";
},
{
name = ogonek;
position = "{461.667, 10}";
},
{
name = top;
position = "{346.5, 702.5}";
},
{
name = topright;
position = "{586.333, 822.5}";
}
);
layerId = "93649EC8-ADF5-4C20-AD08-3ED15854CD33";
paths = (
{
closed = 1;
nodes = (
"138 701.667 LINE",
"118.167 701.667 LINE",
"118.167 227.833 LINE SMOOTH",
"118.167 74.5 OFFCURVE",
"215.833 -8 OFFCURVE",
"346.333 -8 CURVE SMOOTH",
"346.333 -8 LINE SMOOTH",
"475.167 -8 OFFCURVE",
"574.667 74.5 OFFCURVE",
"574.667 227.833 CURVE SMOOTH",
"574.667 701.667 LINE",
"555 701.667 LINE",
"555 230 LINE SMOOTH",
"555 90.167 OFFCURVE",
"466 10.667 OFFCURVE",
"346.333 10.667 CURVE SMOOTH",
"225.167 10.667 OFFCURVE",
"138 90.167 OFFCURVE",
"138 230 CURVE SMOOTH"
);
}
);
width = 693;
}
);
leftKerningGroup = U;
rightKerningGroup = U;
unicode = 0055;
},
{
glyphname = Uogonek;
layers = (
{
background = {
paths = (
{
closed = 1;
nodes = (
"225 736 LINE",
"80 736 LINE",
"80 269 LINE SMOOTH",
"80 107 OFFCURVE",
"212 -8 OFFCURVE",
"377 -8 CURVE SMOOTH",
"377 -8 LINE SMOOTH",
"543 -8 OFFCURVE",
"676 107 OFFCURVE",
"676 269 CURVE SMOOTH",
"676 736 LINE",
"533 736 LINE",
"533 272 LINE SMOOTH",
"533 202 OFFCURVE",
"466 133 OFFCURVE",
"377 133 CURVE SMOOTH",
"295 133 OFFCURVE",
"225 202 OFFCURVE",
"225 272 CURVE SMOOTH"
);
},
{
closed = 1;
nodes = (
"584 0 CURVE",
"426 0 LINE",
"371 -22 OFFCURVE",
"341 -69 OFFCURVE",
"341 -113 CURVE SMOOTH",
"341 -191 OFFCURVE",
"403 -226 OFFCURVE",
"485 -226 CURVE SMOOTH",
"542 -226 OFFCURVE",
"605 -193 OFFCURVE",
"625 -144 CURVE",
"555 -92 LINE",
"549 -110 OFFCURVE",
"527 -134 OFFCURVE",
"500 -134 CURVE SMOOTH",
"477 -134 OFFCURVE",
"456 -126 OFFCURVE",
"456 -92 CURVE SMOOTH",
"456 -53 OFFCURVE",
"508 -29 OFFCURVE"
);
}
);
};
layerId = UUID1;
paths = (
{
closed = 1;
nodes = (
"533 -232 OFFCURVE",
"592 -201 OFFCURVE",
"622 -157 CURVE",
"572 -85 LINE",
"550 -118 OFFCURVE",
"527 -134 OFFCURVE",
"500 -134 CURVE",
"477 -134 OFFCURVE",
"456 -126 OFFCURVE",
"456 -92 CURVE SMOOTH",
"456 -44 OFFCURVE",
"495 -11 OFFCURVE",
"539 26 CURVE SMOOTH",
"602 78 OFFCURVE",
"676 139 OFFCURVE",
"676 260 CURVE SMOOTH",
"676 736 LINE",
"533 736 LINE",
"533 272 LINE SMOOTH",
"533 202 OFFCURVE",
"466 133 OFFCURVE",
"377 133 CURVE SMOOTH",
"295 133 OFFCURVE",
"225 202 OFFCURVE",
"225 272 CURVE SMOOTH",
"225 736 LINE",
"80 736 LINE",
"80 269 LINE SMOOTH",
"80 109 OFFCURVE",
"196 -8 OFFCURVE",
"377 -8 CURVE SMOOTH",
"415 -8 OFFCURVE",
"450 -2 OFFCURVE",
"483 9 CURVE",
"467 69 LINE",
"426 10 LINE",
"371 -12 OFFCURVE",
"341 -59 OFFCURVE",
"341 -103 CURVE SMOOTH",
"341 -181 OFFCURVE",
"405 -232 OFFCURVE",
"487 -232 CURVE"
);
}
);
width = 756;
},
{
layerId = "4C85334C-E1D4-4EB0-A0B2-9D58DDEA71D9";
paths = (
{
closed = 1;
nodes = (
"487 -198 OFFCURVE",
"522 -172 OFFCURVE",
"540 -139 CURVE",
"518 -116 LINE",
"502 -143 OFFCURVE",
"481 -162 OFFCURVE",
"454 -162 CURVE",
"428 -162 OFFCURVE",
"402 -142 OFFCURVE",
"402 -106 CURVE",
"402 -56 OFFCURVE",
"437 -13 OFFCURVE",
"492 28 CURVE",
"551 69 OFFCURVE",
"598 134 OFFCURVE",
"598 235 CURVE",
"598 710 LINE",
"550 710 LINE",
"550 240 LINE",
"550 116 OFFCURVE",
"466 39 OFFCURVE",
"353 39 CURVE",
"241 39 OFFCURVE",
"158 116 OFFCURVE",
"158 240 CURVE",
"158 710 LINE",
"109 710 LINE",
"109 237 LINE",
"109 83 OFFCURVE",
"211 -8 OFFCURVE",
"353 -8 CURVE",
"388 -8 OFFCURVE",
"421 -2 OFFCURVE",
"448 9 CURVE",
"446 27 LINE",
"430 11 LINE",
"389 -17 OFFCURVE",
"361 -65 OFFCURVE",
"361 -109 CURVE",
"361 -163 OFFCURVE",
"402 -198 OFFCURVE",
"450 -198 CURVE"
);
}
);
width = 707;
},
{
layerId = "93649EC8-ADF5-4C20-AD08-3ED15854CD33";
paths = (
{
closed = 1;
nodes = (
"472.833 -188 OFFCURVE",
"501.167 -162.833 OFFCURVE",
"515 -134 CURVE",
"502.167 -125.167 LINE",
"487.833 -150.5 OFFCURVE",
"466.833 -170.333 OFFCURVE",
"440.667 -170.333 CURVE",
"413 -170.333 OFFCURVE",
"386.167 -147 OFFCURVE",
"386.167 -110.167 CURVE",
"386.167 -59.333 OFFCURVE",
"419.5 -13.833 OFFCURVE",
"477.833 28.833 CURVE",
"536 66.5 OFFCURVE",
"574.667 132.333 OFFCURVE",
"574.667 227.5 CURVE",
"574.667 701.667 LINE",
"555 701.667 LINE",
"555 230 LINE",
"555 90.167 OFFCURVE",
"466 10.667 OFFCURVE",
"346.333 10.667 CURVE",
"225.167 10.667 OFFCURVE",
"138 90.167 OFFCURVE",
"138 230 CURVE",
"138 701.667 LINE",
"118.167 701.667 LINE",
"118.167 227.833 LINE",
"118.167 74.667 OFFCURVE",
"215.167 -8 OFFCURVE",
"346.333 -8 CURVE",
"379.667 -8 OFFCURVE",
"412.667 -2 OFFCURVE",
"437.167 9 CURVE",
"439.333 14.5 LINE",
"431.667 11.833 LINE",
"394 -18.667 OFFCURVE",
"366.833 -66.667 OFFCURVE",
"366.833 -110.667 CURVE",
"366.833 -157.167 OFFCURVE",
"401.167 -188 OFFCURVE",
"439.167 -188 CURVE"
);
}
);
width = 693;
}
);
leftKerningGroup = U;
leftMetricsKey = U;
rightKerningGroup = U;
rightMetricsKey = U;
unicode = 0172;
},
{
glyphname = V;
layers = (
{
anchors = (
{
name = bottom;
position = "{368, 0}";
},
{
name = top;
position = "{368, 736}";
}
);
layerId = UUID1;
paths = (
{
closed = 1;
nodes = (
"32 736 LINE",
"368 -34 LINE",
"704 736 LINE",
"532 736 LINE",
"337 223 LINE",
"421 206 LINE",
"206 736 LINE"
);
}
);
width = 736;
},
{
anchors = (
{
name = bottom;
position = "{351, 0}";
},
{
name = top;
position = "{351, 710}";
}
);
layerId = "4C85334C-E1D4-4EB0-A0B2-9D58DDEA71D9";
paths = (
{
closed = 1;
nodes = (
"49 710 LINE",
"351 -33 LINE",
"653 710 LINE",
"597 710 LINE",
"341 49 LINE",
"368 45 LINE",
"106 710 LINE"
);
}
);
width = 702;
},
{
anchors = (
{
name = bottom;
position = "{346, 0}";
},
{
name = top;
position = "{346, 701.667}";
}
);
layerId = "93649EC8-ADF5-4C20-AD08-3ED15854CD33";
paths = (
{
closed = 1;
nodes = (
"54 701.667 LINE",
"346 -32.167 LINE",
"638 701.667 LINE",
"616.167 701.667 LINE",
"341.833 -2.667 LINE",
"352.167 -3.333 LINE",
"76 701.667 LINE"
);
}
);
width = 692;
}
);
leftKerningGroup = V;
rightKerningGroup = V;
unicode = 0056;
},
{
glyphname = W;
layers = (
{
anchors = (
{
name = bottom;
position = "{512, 0}";
},
{
name = top;
position = "{512, 746}";
}
);
layerId = UUID1;
paths = (
{
closed = 1;
nodes = (
"328 -34 LINE",
"540 421 LINE",
"473 620 LINE",
"336 279 LINE",
"359 269 LINE",
"202 731 LINE",
"32 731 LINE"
);
},
{
closed = 1;
nodes = (
"707 -32 LINE",
"991 731 LINE",
"835 731 LINE",
"700 288 LINE",
"726 284 LINE",
"545 731 LINE",
"401 731 LINE"
);
}
);
width = 1023;
},
{
anchors = (
{
name = bottom;
position = "{497, 0}";
},
{
name = top;
position = "{497, 712}";
}
);
layerId = "4C85334C-E1D4-4EB0-A0B2-9D58DDEA71D9";
paths = (
{
closed = 1;
nodes = (
"329 -33 LINE",
"500 406 LINE",
"477 469 LINE",
"329 69 LINE",
"340 66 LINE",
"105 708 LINE",
"49 708 LINE"
);
},
{
closed = 1;
nodes = (
"659 -32 LINE",
"944 708 LINE",
"892 708 LINE",
"654 70 LINE",
"669 66 LINE",
"425 708 LINE",
"376 708 LINE"
);
}
);
width = 993;
},
{
anchors = (
{
name = bottom;
position = "{492, 0}";
},
{
name = top;
position = "{492, 702}";
}
);
layerId = "93649EC8-ADF5-4C20-AD08-3ED15854CD33";
paths = (
{
closed = 1;
nodes = (
"329.833 -32.167 LINE",
"488.333 401 LINE",
"477.833 424 LINE",
"327.333 6.5 LINE",
"334.167 5.167 LINE",
"75.833 701.333 LINE",
"54 701.333 LINE"
);
},
{
closed = 1;
nodes = (
"644.833 -32 LINE",
"929.833 701.333 LINE",
"908.667 701.333 LINE",
"640.667 4.167 LINE",
"651.5 0.167 LINE",
"389.167 701.333 LINE",
"368.5 701.333 LINE"
);
}
);
width = 984;
}
);
leftKerningGroup = W;
leftMetricsKey = V;
rightKerningGroup = W;
rightMetricsKey = V;
unicode = 0057;
},
{
glyphname = X;
layers = (
{
anchors = (
{
name = bottom;
position = "{363, 0}";
},
{
name = top;
position = "{363, 736}";
}
);
layerId = UUID1;
paths = (
{
closed = 1;
nodes = (
"513 0 LINE",
"700 0 LINE",
"220 736 LINE",
"35 736 LINE"
);
},
{
closed = 1;
nodes = (
"205 0 LINE",
"355 266 LINE",
"287 412 LINE",
"25 0 LINE"
);
},
{
closed = 1;
nodes = (
"440 341 LINE",
"693 736 LINE",
"517 736 LINE",
"365 466 LINE"
);
}
);
width = 725;
},
{
anchors = (
{
name = bottom;
position = "{309, 0}";
},
{
name = top;
position = "{309, 710}";
}
);
layerId = "4C85334C-E1D4-4EB0-A0B2-9D58DDEA71D9";
paths = (
{
closed = 1;
nodes = (
"514 0 LINE",
"576 0 LINE",
"114 710 LINE",
"53 710 LINE"
);
},
{
closed = 1;
nodes = (
"103 0 LINE",
"309 332 LINE",
"283 375 LINE",
"43 0 LINE"
);
},
{
closed = 1;
nodes = (
"334 352 LINE",
"563 710 LINE",
"505 710 LINE",
"306 391 LINE"
);
}
);
width = 620;
},
{
anchors = (
{
name = bottom;
position = "{292.333, 0}";
},
{
name = top;
position = "{292.333, 701.667}";
}
);
layerId = "93649EC8-ADF5-4C20-AD08-3ED15854CD33";
paths = (
{
closed = 1;
nodes = (
"514.833 0 LINE",
"539.333 0 LINE",
"82.333 701.667 LINE",
"58.833 701.667 LINE"
);
},
{
closed = 1;
nodes = (
"72.167 0 LINE",
"294.833 352 LINE",
"281.333 364.167 LINE",
"48.833 0 LINE"
);
},
{
closed = 1;
nodes = (
"302.333 355.333 LINE",
"523.833 701.667 LINE",
"500.833 701.667 LINE",
"288.5 368.5 LINE"
);
}
);
width = 588;
}
);
leftKerningGroup = X;
unicode = 0058;
},
{
glyphname = Y;
layers = (
{
anchors = (
{
name = bottom;
position = "{361, 0}";
},
{
name = top;
position = "{381, 756}";
},
{
name = topleft;
position = "{10, 736}";
}
);
layerId = UUID1;
paths = (
{
closed = 1;
nodes = (
"286 0 LINE",
"431 0 LINE",
"431 229 LINE",
"707 736 LINE",
"528 736 LINE",
"341 351 LINE",
"384 354 LINE",
"194 736 LINE",
"15 736 LINE",
"286 229 LINE"
);
}
);
width = 722;
},
{
anchors = (
{
name = bottom;
position = "{331, 0}";
},
{
name = top;
position = "{336, 710}";
},
{
name = topleft;
position = "{25, 710}";
}
);
layerId = "4C85334C-E1D4-4EB0-A0B2-9D58DDEA71D9";
paths = (
{
closed = 1;
nodes = (
"306 0 LINE",
"355 0 LINE",
"355 253 LINE",
"620 710 LINE",
"561 710 LINE",
"323 293 LINE",
"340 294 LINE",
"101 710 LINE",
"41 710 LINE",
"306 253 LINE"
);
}
);
width = 661;
},
{
anchors = (
{
name = bottom;
position = "{321.833, 0}";
},
{
name = top;
position = "{322.667, 701.667}";
},
{
name = topleft;
position = "{29.167, 701.667}";
}
);
layerId = "93649EC8-ADF5-4C20-AD08-3ED15854CD33";
paths = (
{
closed = 1;
nodes = (
"311.833 0 LINE",
"331.667 0 LINE",
"331.667 260.5 LINE",
"594.167 701.667 LINE",
"571 701.667 LINE",
"318 275.5 LINE",
"326.667 276.5 LINE",
"72.667 701.667 LINE",
"48.5 701.667 LINE",
"311.833 260.5 LINE"
);
}
);
width = 643;
}
);
leftKerningGroup = Y;
rightKerningGroup = Y;
unicode = 0059;
},
{
glyphname = Z;
layers = (
{
anchors = (
{
name = bottom;
position = "{361, 0}";
},
{
name = top;
position = "{361, 736}";
}
);
layerId = UUID1;
paths = (
{
closed = 1;
nodes = (
"671 0 LINE",
"671 140 LINE",
"276 140 LINE",
"284 124 LINE",
"672 736 LINE",
"263 736 LINE",
"239 736 OFFCURVE",
"231 730 OFFCURVE",
"231 759 CURVE SMOOTH",
"231 773 LINE",
"98 773 LINE",
"98 668 LINE SMOOTH",
"98 627 OFFCURVE",
"152 596 OFFCURVE",
"195 596 CURVE SMOOTH",
"460 596 LINE",
"444 636 LINE",
"444 636 OFFCURVE",
"45 0 OFFCURVE",
"45 0 CURVE"
);
}
);
width = 722;
},
{
anchors = (
{
name = bottom;
position = "{351, 0}";
},
{
name = top;
position = "{351, 710}";
}
);
layerId = "4C85334C-E1D4-4EB0-A0B2-9D58DDEA71D9";
paths = (
{
closed = 1;
nodes = (
"645 0 LINE",
"645 47 LINE",
"131 47 LINE",
"135 39 LINE",
"621 710 LINE",
"164 710 LINE",
"141 710 OFFCURVE",
"133 716 OFFCURVE",
"133 733 CURVE SMOOTH",
"133 745 LINE",
"86 745 LINE",
"86 714 LINE SMOOTH",
"86 676 OFFCURVE",
"115 663 OFFCURVE",
"152 663 CURVE SMOOTH",
"553 663 LINE",
"544 676 LINE",
"423 516 OFFCURVE",
"177 170 OFFCURVE",
"56 0 CURVE"
);
}
);
width = 703;
},
{
anchors = (
{
name = bottom;
position = "{348.5, 0}";
},
{
name = top;
position = "{348.5, 701.667}";
}
);
layerId = "93649EC8-ADF5-4C20-AD08-3ED15854CD33";
paths = (
{
closed = 1;
nodes = (
"637.5 0 LINE",
"637.5 18.667 LINE",
"87.667 18.667 LINE",
"90 14 LINE",
"606 701.667 LINE",
"134 701.667 LINE",
"111.833 701.667 OFFCURVE",
"103.833 711.833 OFFCURVE",
"103.833 724.667 CURVE SMOOTH",
"103.833 736.667 LINE",
"82.667 736.667 LINE",
"82.667 728.167 LINE SMOOTH",
"82.667 690.167 OFFCURVE",
"103.333 683 OFFCURVE",
"139.5 683 CURVE SMOOTH",
"580.5 683 LINE",
"574 688.5 LINE",
"416.333 480.167 OFFCURVE",
"217 220.833 OFFCURVE",
"59.333 0 CURVE"
);
}
);
width = 697;
}
);
unicode = 005A;
},
{
glyphname = a;
layers = (
{
anchors = (
{
name = bottom;
position = "{307, 0}";
},
{
name = ogonek;
position = "{629, 10}";
},
{
name = top;
position = "{327, 457}";
}
);
layerId = UUID1;
paths = (
{
closed = 1;
nodes = (
"359 -12 OFFCURVE",
"408 65 OFFCURVE",
"413 65 CURVE",
"402 95 LINE",
"402 0 LINE",
"542 0 LINE",
"542 437 LINE",
"412 437 LINE",
"399 373 LINE",
"405 390 LINE",
"376 425 OFFCURVE",
"338 459 OFFCURVE",
"251 459 CURVE",
"140 459 OFFCURVE",
"38 366 OFFCURVE",
"38 218 CURVE",
"38 59 OFFCURVE",
"134 -12 OFFCURVE",
"256 -12 CURVE"
);
},
{
closed = 1;
nodes = (
"234 102 OFFCURVE",
"180 155 OFFCURVE",
"180 225 CURVE",
"180 295 OFFCURVE",
"231 345 OFFCURVE",
"291 345 CURVE",
"344 345 OFFCURVE",
"386 318 OFFCURVE",
"402 275 CURVE",
"402 168 LINE",
"380 124 OFFCURVE",
"346 102 OFFCURVE",
"296 102 CURVE"
);
}
);
width = 614;
},
{
anchors = (
{
name = bottom;
position = "{280, 0}";
},
{
name = ogonek;
position = "{520, 10}";
},
{
name = top;
position = "{285, 397}";
}
);
layerId = "4C85334C-E1D4-4EB0-A0B2-9D58DDEA71D9";
paths = (
{
closed = 1;
nodes = (
"339 -8 OFFCURVE",
"413 50 OFFCURVE",
"433 103 CURVE",
"423 121 LINE",
"423 0 LINE",
"470 0 LINE",
"470 391 LINE",
"428 391 LINE",
"422 280 LINE",
"429 294 LINE",
"402 357 OFFCURVE",
"333 403 OFFCURVE",
"264 403 CURVE SMOOTH",
"142 403 OFFCURVE",
"51 326 OFFCURVE",
"51 196 CURVE SMOOTH",
"51 74 OFFCURVE",
"139 -8 OFFCURVE",
"251 -8 CURVE SMOOTH"
);
},
{
closed = 1;
nodes = (
"172 32 OFFCURVE",
"98 106 OFFCURVE",
"98 198 CURVE SMOOTH",
"98 298 OFFCURVE",
"171 363 OFFCURVE",
"260 363 CURVE SMOOTH",
"340 363 OFFCURVE",
"407 307 OFFCURVE",
"423 234 CURVE",
"423 178 LINE",
"417 92 OFFCURVE",
"348 32 OFFCURVE",
"261 32 CURVE SMOOTH"
);
}
);
width = 559;
},
{
anchors = (
{
name = bottom;
position = "{271.667, 0}";
},
{
name = ogonek;
position = "{487.5, 10}";
},
{
name = top;
position = "{272.5, 378.667}";
}
);
layerId = "93649EC8-ADF5-4C20-AD08-3ED15854CD33";
paths = (
{
closed = 1;
nodes = (
"333.167 -6.333 OFFCURVE",
"405.5 45.833 OFFCURVE",
"432.167 114.667 CURVE",
"428.833 129.333 LINE",
"428.833 0 LINE",
"448.333 0 LINE",
"448.333 377.667 LINE",
"433 377.667 LINE",
"427.833 253.333 LINE",
"429.833 265.667 LINE",
"401.167 336.167 OFFCURVE",
"331.333 386.333 OFFCURVE",
"251.5 386.333 CURVE SMOOTH",
"142.833 386.333 OFFCURVE",
"54.333 314.333 OFFCURVE",
"54.333 189.333 CURVE SMOOTH",
"54.333 79 OFFCURVE",
"140.667 -6.333 OFFCURVE",
"249.333 -6.333 CURVE SMOOTH"
);
},
{
closed = 1;
nodes = (
"152.833 11.167 OFFCURVE",
"73.833 91 OFFCURVE",
"73.833 189.667 CURVE SMOOTH",
"73.833 298.833 OFFCURVE",
"152.667 368.833 OFFCURVE",
"250.833 368.833 CURVE SMOOTH",
"338.333 368.833 OFFCURVE",
"412.833 303.667 OFFCURVE",
"428.833 221.5 CURVE",
"428.833 180.5 LINE",
"427.833 82.833 OFFCURVE",
"348.833 11.167 OFFCURVE",
"251 11.167 CURVE SMOOTH"
);
}
);
width = 542;
}
);
leftKerningGroup = o;
leftMetricsKey = o;
rightMetricsKey = n;
unicode = 0061;
},
{
glyphname = aogonek;
layers = (
{
anchors = (
{
name = bottom;
position = "{311, 0}";
},
{
name = ogonek;
position = "{633, 10}";
},
{
name = top;
position = "{331, 437}";
}
);
layerId = UUID1;
paths = (
{
closed = 1;
nodes = (
"349 -12 OFFCURVE",
"395 47 OFFCURVE",
"417 65 CURVE",
"406 95 LINE",
"406 -26 LINE",
"422 -7 LINE",
"410 10 LINE",
"355 -12 OFFCURVE",
"325 -59 OFFCURVE",
"325 -103 CURVE SMOOTH",
"325 -181 OFFCURVE",
"389 -232 OFFCURVE",
"471 -232 CURVE",
"517 -232 OFFCURVE",
"576 -201 OFFCURVE",
"606 -157 CURVE",
"556 -85 LINE",
"534 -118 OFFCURVE",
"511 -134 OFFCURVE",
"484 -134 CURVE",
"461 -134 OFFCURVE",
"440 -126 OFFCURVE",
"440 -92 CURVE SMOOTH",
"440 -49 OFFCURVE",
"484 -25 OFFCURVE",
"546 0 CURVE",
"546 437 LINE",
"416 437 LINE",
"407 390 LINE",
"378 425 OFFCURVE",
"342 459 OFFCURVE",
"255 459 CURVE",
"144 459 OFFCURVE",
"42 366 OFFCURVE",
"42 218 CURVE",
"42 59 OFFCURVE",
"136 -12 OFFCURVE",
"255 -12 CURVE"
);
},
{
closed = 1;
nodes = (
"235 102 OFFCURVE",
"184 155 OFFCURVE",
"184 225 CURVE",
"184 295 OFFCURVE",
"235 345 OFFCURVE",
"295 345 CURVE",
"348 345 OFFCURVE",
"390 318 OFFCURVE",
"406 275 CURVE",
"406 168 LINE",
"383 124 OFFCURVE",
"348 102 OFFCURVE",
"295 102 CURVE"
);
}
);
width = 621;
},
{
anchors = (
{
name = bottom;
position = "{281, 0}";
},
{
name = ogonek;
position = "{521, 10}";
},
{
name = top;
position = "{286, 391}";
}
);
layerId = "4C85334C-E1D4-4EB0-A0B2-9D58DDEA71D9";
paths = (
{
closed = 1;
nodes = (
"336 -8 OFFCURVE",
"400 46 OFFCURVE",
"427 103 CURVE",
"424 119 LINE",
"424 -6 LINE",
"432 -1 LINE",
"427 10 LINE",
"376 -16 OFFCURVE",
"335 -61 OFFCURVE",
"335 -109 CURVE",
"335 -163 OFFCURVE",
"377 -198 OFFCURVE",
"425 -198 CURVE",
"461 -198 OFFCURVE",
"497 -172 OFFCURVE",
"514 -139 CURVE",
"493 -116 LINE",
"477 -143 OFFCURVE",
"455 -162 OFFCURVE",
"429 -162 CURVE",
"402 -162 OFFCURVE",
"377 -142 OFFCURVE",
"377 -106 CURVE",
"377 -66 OFFCURVE",
"413 -31 OFFCURVE",
"471 1 CURVE",
"471 391 LINE",
"429 391 LINE",
"424 294 LINE",
"395 357 OFFCURVE",
"334 403 OFFCURVE",
"251 403 CURVE",
"143 403 OFFCURVE",
"52 326 OFFCURVE",
"52 196 CURVE",
"52 74 OFFCURVE",
"140 -8 OFFCURVE",
"251 -8 CURVE"
);
},
{
closed = 1;
nodes = (
"172 32 OFFCURVE",
"99 106 OFFCURVE",
"99 198 CURVE",
"99 298 OFFCURVE",
"172 363 OFFCURVE",
"261 363 CURVE",
"341 363 OFFCURVE",
"408 307 OFFCURVE",
"424 234 CURVE",
"424 178 LINE",
"418 92 OFFCURVE",
"349 32 OFFCURVE",
"261 32 CURVE"
);
}
);
width = 561;
},
{
anchors = (
{
name = bottom;
position = "{271.833, 0}";
},
{
name = ogonek;
position = "{487.667, 10}";
},
{
name = top;
position = "{272.667, 377.667}";
}
);
layerId = "93649EC8-ADF5-4C20-AD08-3ED15854CD33";
paths = (
{
closed = 1;
nodes = (
"331.833 -6.333 OFFCURVE",
"401.667 46 OFFCURVE",
"430.333 114.667 CURVE",
"429 125.667 LINE",
"429 -0.167 LINE",
"435.333 0.667 LINE",
"432 10 LINE",
"382.667 -16.833 OFFCURVE",
"338.333 -61.833 OFFCURVE",
"338.333 -110.667 CURVE",
"338.333 -157.167 OFFCURVE",
"372.833 -188 OFFCURVE",
"410.833 -188 CURVE",
"444.333 -188 OFFCURVE",
"472.833 -162.833 OFFCURVE",
"486.5 -134 CURVE",
"473.833 -125.167 LINE",
"459.5 -150.5 OFFCURVE",
"438.333 -170.333 OFFCURVE",
"412.333 -170.333 CURVE",
"384.5 -170.333 OFFCURVE",
"357.833 -147 OFFCURVE",
"357.833 -110.167 CURVE",
"357.833 -71 OFFCURVE",
"392.167 -32.667 OFFCURVE",
"448.5 1 CURVE",
"448.5 377.667 LINE",
"433.167 377.667 LINE",
"429 265.667 LINE",
"400 336.167 OFFCURVE",
"331.5 386.333 OFFCURVE",
"249.333 386.333 CURVE",
"143 386.333 OFFCURVE",
"54.5 314.333 OFFCURVE",
"54.5 189.333 CURVE",
"54.5 79 OFFCURVE",
"140.833 -6.333 OFFCURVE",
"249.333 -6.333 CURVE"
);
},
{
closed = 1;
nodes = (
"152.833 11.167 OFFCURVE",
"74 91 OFFCURVE",
"74 189.667 CURVE",
"74 298.833 OFFCURVE",
"152.833 368.833 OFFCURVE",
"251 368.833 CURVE",
"338.5 368.833 OFFCURVE",
"413 303.667 OFFCURVE",
"429 221.5 CURVE",
"429 180.5 LINE",
"428 82.833 OFFCURVE",
"349 11.167 OFFCURVE",
"251 11.167 CURVE"
);
}
);
width = 543;
}
);
leftKerningGroup = o;
unicode = 0105;
},
{
glyphname = ae;
layers = (
{
anchors = (
{
name = bottom;
position = "{423, 0}";
},
{
name = top;
position = "{423, 437}";
}
);
components = (
{
name = e;
transform = "{1, 0, 0, 1, 296, 0}";
}
);
layerId = UUID1;
paths = (
{
closed = 1;
nodes = (
"294 -11 OFFCURVE",
"359 19 OFFCURVE",
"399 73 CURVE",
"399 173 LINE",
"347 173 LINE",
"347 135 LINE",
"329 111 OFFCURVE",
"287 85 OFFCURVE",
"250 85 CURVE",
"215 85 OFFCURVE",
"192 101 OFFCURVE",
"192 131 CURVE",
"192 161 OFFCURVE",
"219 174 OFFCURVE",
"262 174 CURVE SMOOTH",
"304 174 OFFCURVE",
"321 169 OFFCURVE",
"358 150 CURVE",
"380 230 LINE",
"350 247 OFFCURVE",
"287 264 OFFCURVE",
"229 264 CURVE SMOOTH",
"130 264 OFFCURVE",
"38 212 OFFCURVE",
"38 128 CURVE",
"38 46 OFFCURVE",
"92 -11 OFFCURVE",
"210 -11 CURVE"
);
},
{
closed = 1;
nodes = (
"469 281 LINE",
"469 301 LINE SMOOTH",
"469 406 OFFCURVE",
"375 458 OFFCURVE",
"268 458 CURVE SMOOTH",
"175 458 OFFCURVE",
"110 415 OFFCURVE",
"66 368 CURVE",
"136 280 LINE",
"155 308 OFFCURVE",
"195 344 OFFCURVE",
"248 344 CURVE SMOOTH",
"269 344 OFFCURVE",
"334 328 OFFCURVE",
"334 263 CURVE",
"334 227 LINE"
);
}
);
width = 849;
},
{
anchors = (
{
name = bottom;
position = "{389, 0}";
},
{
name = top;
position = "{389, 391}";
}
);
components = (
{
name = e;
transform = "{1, 0, 0, 1, 293, 0}";
}
);
layerId = "4C85334C-E1D4-4EB0-A0B2-9D58DDEA71D9";
paths = (
{
closed = 1;
nodes = (
"245 -11 OFFCURVE",
"331 1 OFFCURVE",
"373 55 CURVE",
"372 162 LINE",
"343 162 LINE",
"343 74 LINE",
"313 40 OFFCURVE",
"252 25 OFFCURVE",
"215 25 CURVE",
"137 25 OFFCURVE",
"103 62 OFFCURVE",
"103 109 CURVE",
"103 168 OFFCURVE",
"157 192 OFFCURVE",
"207 192 CURVE",
"265 192 OFFCURVE",
"314 166 OFFCURVE",
"357 118 CURVE",
"367 146 LINE",
"332 196 OFFCURVE",
"265 227 OFFCURVE",
"197 227 CURVE",
"122 227 OFFCURVE",
"51 185 OFFCURVE",
"51 106 CURVE",
"51 45 OFFCURVE",
"96 -11 OFFCURVE",
"204 -11 CURVE"
);
},
{
closed = 1;
nodes = (
"390 233 LINE",
"390 276 LINE",
"390 355 OFFCURVE",
"345 402 OFFCURVE",
"248 402 CURVE",
"173 402 OFFCURVE",
"117 370 OFFCURVE",
"76 327 CURVE",
"101 295 LINE",
"145 341 OFFCURVE",
"191 361 OFFCURVE",
"243 361 CURVE",
"292 361 OFFCURVE",
"344 344 OFFCURVE",
"344 263 CURVE",
"344 168 LINE"
);
}
);
width = 780;
},
{
anchors = (
{
name = bottom;
position = "{379, 0}";
},
{
name = top;
position = "{379, 377.667}";
}
);
components = (
{
alignment = -1;
name = e;
transform = "{1, 0, 0, 1, 292.167, 0}";
}
);
layerId = "93649EC8-ADF5-4C20-AD08-3ED15854CD33";
paths = (
{
closed = 1;
nodes = (
"230.833 -11 OFFCURVE",
"322.667 -4.833 OFFCURVE",
"364.667 50 CURVE",
"363.667 158.667 LINE",
"346.333 182.833 LINE",
"346.333 55.667 LINE",
"313 18.333 OFFCURVE",
"242 7.5 OFFCURVE",
"204.167 7.5 CURVE",
"113.667 7.5 OFFCURVE",
"76.333 50.333 OFFCURVE",
"76.333 102.333 CURVE",
"76.333 170.5 OFFCURVE",
"138.667 197.833 OFFCURVE",
"190.333 197.833 CURVE",
"253.333 197.833 OFFCURVE",
"311.5 165.167 OFFCURVE",
"357 108.833 CURVE",
"362.833 121 LINE",
"327 180.167 OFFCURVE",
"258.333 216.167 OFFCURVE",
"187.833 216.167 CURVE",
"119.5 216.167 OFFCURVE",
"54.333 176.667 OFFCURVE",
"54.333 99.333 CURVE",
"54.333 45 OFFCURVE",
"97.667 -11 OFFCURVE",
"202.333 -11 CURVE"
);
},
{
closed = 1;
nodes = (
"366.667 243.833 LINE",
"366.667 268.5 LINE",
"366.667 340 OFFCURVE",
"335.833 385.333 OFFCURVE",
"242.167 385.333 CURVE",
"172.167 385.333 OFFCURVE",
"119.5 356.667 OFFCURVE",
"79.333 314.5 CURVE",
"91 299.167 LINE",
"141.667 351 OFFCURVE",
"189.333 366 OFFCURVE",
"241.333 366 CURVE",
"298.667 366 OFFCURVE",
"346.5 349 OFFCURVE",
"346.5 263 CURVE",
"346.5 183.833 LINE"
);
}
);
width = 759;
}
);
leftMetricsKey = a;
rightMetricsKey = e;
unicode = 00E6;
},
{
glyphname = b;
layers = (
{
anchors = (
{
name = bottom;
position = "{313, 0}";
},
{
name = top;
position = "{313, 437}";
}
);
layerId = UUID1;
paths = (
{
closed = 1;
nodes = (
"479 -12 OFFCURVE",
"586 79 OFFCURVE",
"586 228 CURVE",
"586 376 OFFCURVE",
"491 459 OFFCURVE",
"378 459 CURVE",
"304 459 OFFCURVE",
"246 436 OFFCURVE",
"211 407 CURVE",
"211 362 LINE",
"211 789 LINE",
"72 789 LINE",
"72 0 LINE",
"212 0 LINE",
"212 85 LINE",
"201 55 LINE",
"238 15 OFFCURVE",
"285 -12 OFFCURVE",
"359 -12 CURVE"
);
},
{
closed = 1;
nodes = (
"273 106 OFFCURVE",
"236 128 OFFCURVE",
"212 172 CURVE",
"212 279 LINE",
"229 322 OFFCURVE",
"273 349 OFFCURVE",
"328 349 CURVE",
"390 349 OFFCURVE",
"444 299 OFFCURVE",
"444 229 CURVE",
"444 159 OFFCURVE",
"390 106 OFFCURVE",
"328 106 CURVE"
);
}
);
width = 624;
},
{
anchors = (
{
name = bottom;
position = "{281, 0}";
},
{
name = top;
position = "{281, 391}";
}
);
layerId = "4C85334C-E1D4-4EB0-A0B2-9D58DDEA71D9";
paths = (
{
closed = 1;
nodes = (
"418 -8 OFFCURVE",
"511 66 OFFCURVE",
"511 199 CURVE",
"511 317 OFFCURVE",
"423 403 OFFCURVE",
"313 403 CURVE SMOOTH",
"233 403 OFFCURVE",
"161 363 OFFCURVE",
"130 302 CURVE",
"136 276 LINE",
"136 760 LINE",
"89 760 LINE",
"89 0 LINE",
"136 0 LINE",
"136 128 LINE",
"126 101 LINE",
"156 38 OFFCURVE",
"228 -8 OFFCURVE",
"308 -8 CURVE SMOOTH"
);
},
{
closed = 1;
nodes = (
"212 33 OFFCURVE",
"143 99 OFFCURVE",
"136 173 CURVE",
"136 234 LINE",
"151 309 OFFCURVE",
"217 364 OFFCURVE",
"300 364 CURVE SMOOTH",
"397 364 OFFCURVE",
"463 289 OFFCURVE",
"463 199 CURVE",
"463 102 OFFCURVE",
"400 33 OFFCURVE",
"300 33 CURVE SMOOTH"
);
}
);
width = 562;
},
{
anchors = (
{
name = bottom;
position = "{271.833, 0}";
},
{
name = top;
position = "{271.833, 377.667}";
}
);
layerId = "93649EC8-ADF5-4C20-AD08-3ED15854CD33";
paths = (
{
closed = 1;
nodes = (
"399.667 -6.333 OFFCURVE",
"488.5 61.833 OFFCURVE",
"488.5 189.833 CURVE",
"488.5 299.5 OFFCURVE",
"402.167 386.333 OFFCURVE",
"293.833 386.333 CURVE SMOOTH",
"212.167 386.333 OFFCURVE",
"141.833 337.167 OFFCURVE",
"112.5 267 CURVE",
"113.5 250.167 LINE",
"113.5 751.667 LINE",
"94 751.667 LINE",
"94 0 LINE",
"113.5 0 LINE",
"113.5 140.5 LINE",
"110.167 118.5 LINE",
"138.5 48 OFFCURVE",
"210.5 -6.333 OFFCURVE",
"293 -6.333 CURVE SMOOTH"
);
},
{
closed = 1;
nodes = (
"193.667 11.333 OFFCURVE",
"114.667 90.667 OFFCURVE",
"113.5 173.833 CURVE",
"113.5 220.667 LINE",
"127.667 304.833 OFFCURVE",
"200.333 369 OFFCURVE",
"291.667 369 CURVE SMOOTH",
"399.5 369 OFFCURVE",
"468.833 285.667 OFFCURVE",
"468.833 189.833 CURVE",
"468.833 85.333 OFFCURVE",
"403.333 11.333 OFFCURVE",
"291.667 11.333 CURVE SMOOTH"
);
}
);
width = 543;
}
);
leftMetricsKey = n;
rightMetricsKey = o;
unicode = 0062;
},
{
glyphname = c;
layers = (
{
anchors = (
{
name = bottom;
position = "{238, 0}";
},
{
name = top;
position = "{256, 447}";
}
);
layerId = UUID1;
paths = (
{
closed = 1;
nodes = (
"373 127 LINE",
"354 111 OFFCURVE",
"328 102 OFFCURVE",
"297 102 CURVE SMOOTH",
"225 102 OFFCURVE",
"178 154 OFFCURVE",
"178 219 CURVE SMOOTH",
"178 287 OFFCURVE",
"225 335 OFFCURVE",
"283 335 CURVE SMOOTH",
"327 335 OFFCURVE",
"360 316 OFFCURVE",
"379 301 CURVE",
"447 391 LINE",
"406 426 OFFCURVE",
"349 449 OFFCURVE",
"270 449 CURVE SMOOTH",
"151 449 OFFCURVE",
"38 365 OFFCURVE",
"38 219 CURVE SMOOTH",
"38 73 OFFCURVE",
"135 -12 OFFCURVE",
"285 -12 CURVE SMOOTH",
"341 -12 OFFCURVE",
"404 8 OFFCURVE",
"443 39 CURVE"
);
}
);
width = 479;
},
{
anchors = (
{
name = bottom;
position = "{217, 0}";
},
{
name = top;
position = "{251, 394}";
}
);
layerId = "4C85334C-E1D4-4EB0-A0B2-9D58DDEA71D9";
paths = (
{
closed = 1;
nodes = (
"365 67 LINE",
"337 46 OFFCURVE",
"302 32 OFFCURVE",
"262 32 CURVE SMOOTH",
"169 32 OFFCURVE",
"98 105 OFFCURVE",
"98 196 CURVE SMOOTH",
"98 288 OFFCURVE",
"169 361 OFFCURVE",
"258 361 CURVE SMOOTH",
"301 361 OFFCURVE",
"339 344 OFFCURVE",
"367 322 CURVE",
"392 354 LINE",
"357 383 OFFCURVE",
"310 400 OFFCURVE",
"255 400 CURVE SMOOTH",
"144 400 OFFCURVE",
"51 314 OFFCURVE",
"51 196 CURVE SMOOTH",
"51 78 OFFCURVE",
"139 -8 OFFCURVE",
"259 -8 CURVE SMOOTH",
"308 -8 OFFCURVE",
"355 9 OFFCURVE",
"391 38 CURVE"
);
}
);
width = 433;
},
{
anchors = (
{
name = bottom;
position = "{210.333, 0}";
},
{
name = top;
position = "{249.333, 378.167}";
}
);
layerId = "93649EC8-ADF5-4C20-AD08-3ED15854CD33";
paths = (
{
closed = 1;
nodes = (
"362.5 49.5 LINE",
"332 26 OFFCURVE",
"293.667 11.167 OFFCURVE",
"251.167 11.167 CURVE SMOOTH",
"152.333 11.167 OFFCURVE",
"73.833 90.833 OFFCURVE",
"73.833 189.333 CURVE SMOOTH",
"73.833 288 OFFCURVE",
"152.333 368.5 OFFCURVE",
"250.5 368.5 CURVE SMOOTH",
"293.5 368.5 OFFCURVE",
"333.167 352.333 OFFCURVE",
"363.667 327.833 CURVE",
"375.333 342.333 LINE",
"342 369.667 OFFCURVE",
"298.333 385.833 OFFCURVE",
"250 385.833 CURVE SMOOTH",
"141.5 385.833 OFFCURVE",
"54.333 299 OFFCURVE",
"54.333 189.333 CURVE SMOOTH",
"54.333 79.667 OFFCURVE",
"140.667 -6.333 OFFCURVE",
"250.667 -6.333 CURVE SMOOTH",
"298 -6.333 OFFCURVE",
"340.833 9.833 OFFCURVE",
"375.167 37.167 CURVE"
);
}
);
width = 420;
}
);
leftKerningGroup = o;
leftMetricsKey = o;
unicode = 0063;
},
{
glyphname = d;
layers = (
{
anchors = (
{
name = bottom;
position = "{312, 0}";
},
{
name = center;
position = "{479, 642}";
},
{
name = top;
position = "{312, 437}";
},
{
name = topright;
position = "{607, 437}";
}
);
layerId = UUID1;
paths = (
{
closed = 1;
nodes = (
"323 -12 OFFCURVE",
"378 17 OFFCURVE",
"423 55 CURVE",
"412 85 LINE",
"412 0 LINE",
"552 0 LINE",
"552 789 LINE",
"413 789 LINE",
"413 362 LINE",
"413 406 LINE",
"378 442 OFFCURVE",
"324 459 OFFCURVE",
"268 459 CURVE",
"135 459 OFFCURVE",
"38 375 OFFCURVE",
"38 227 CURVE",
"38 78 OFFCURVE",
"128 -12 OFFCURVE",
"250 -12 CURVE"
);
},
{
closed = 1;
nodes = (
"234 106 OFFCURVE",
"180 159 OFFCURVE",
"180 229 CURVE",
"180 299 OFFCURVE",
"234 349 OFFCURVE",
"296 349 CURVE",
"352 349 OFFCURVE",
"396 322 OFFCURVE",
"412 279 CURVE",
"412 172 LINE",
"388 128 OFFCURVE",
"352 106 OFFCURVE",
"296 106 CURVE"
);
}
);
width = 624;
},
{
anchors = (
{
name = bottom;
position = "{281, 0}";
},
{
name = center;
position = "{447, 630}";
},
{
name = top;
position = "{281, 391}";
},
{
name = topright;
position = "{539, 391}";
}
);
layerId = "4C85334C-E1D4-4EB0-A0B2-9D58DDEA71D9";
paths = (
{
closed = 1;
nodes = (
"330 -8 OFFCURVE",
"402 35 OFFCURVE",
"435 98 CURVE",
"425 120 LINE",
"425 0 LINE",
"473 0 LINE",
"473 760 LINE",
"426 760 LINE",
"426 276 LINE",
"434 298 LINE",
"403 360 OFFCURVE",
"329 403 OFFCURVE",
"254 403 CURVE SMOOTH",
"141 403 OFFCURVE",
"51 324 OFFCURVE",
"51 198 CURVE SMOOTH",
"51 79 OFFCURVE",
"138 -8 OFFCURVE",
"249 -8 CURVE SMOOTH"
);
},
{
closed = 1;
nodes = (
"172 33 OFFCURVE",
"98 107 OFFCURVE",
"98 199 CURVE SMOOTH",
"98 297 OFFCURVE",
"171 364 OFFCURVE",
"261 364 CURVE SMOOTH",
"342 364 OFFCURVE",
"410 306 OFFCURVE",
"425 231 CURVE",
"425 181 LINE",
"419 96 OFFCURVE",
"350 33 OFFCURVE",
"261 33 CURVE SMOOTH"
);
}
);
width = 562;
},
{
anchors = (
{
name = bottom;
position = "{271.833, 0}";
},
{
name = center;
position = "{437, 625.833}";
},
{
name = top;
position = "{271.833, 377.667}";
},
{
name = topright;
position = "{518.167, 377.667}";
}
);
layerId = "93649EC8-ADF5-4C20-AD08-3ED15854CD33";
paths = (
{
closed = 1;
nodes = (
"331.667 -6.333 OFFCURVE",
"402.833 43.333 OFFCURVE",
"431.667 113.833 CURVE",
"429.167 130 LINE",
"429.167 0 LINE",
"448.833 0 LINE",
"448.833 751.667 LINE",
"429.333 751.667 LINE",
"429.333 250.167 LINE",
"433.167 262.167 LINE",
"403.833 332.5 OFFCURVE",
"330.667 386.333 OFFCURVE",
"249.833 386.333 CURVE SMOOTH",
"142.667 386.333 OFFCURVE",
"54.333 308.167 OFFCURVE",
"54.333 189.667 CURVE SMOOTH",
"54.333 79.833 OFFCURVE",
"140.5 -6.333 OFFCURVE",
"249 -6.333 CURVE SMOOTH"
);
},
{
closed = 1;
nodes = (
"152.833 11.333 OFFCURVE",
"73.833 91.167 OFFCURVE",
"73.833 189.833 CURVE SMOOTH",
"73.833 296.167 OFFCURVE",
"151.833 369 OFFCURVE",
"251 369 CURVE SMOOTH",
"339.5 369 OFFCURVE",
"414.167 301 OFFCURVE",
"429.167 216.833 CURVE",
"429.167 183.5 LINE",
"428.167 86 OFFCURVE",
"349.167 11.333 OFFCURVE",
"251 11.333 CURVE SMOOTH"
);
}
);
width = 543;
}
);
leftKerningGroup = o;
leftMetricsKey = o;
rightMetricsKey = n;
unicode = 0064;
},
{
glyphname = eth;
layers = (
{
layerId = UUID1;
paths = (
{
closed = 1;
nodes = (
"448 -12 OFFCURVE",
"533 135 OFFCURVE",
"533 270 CURVE",
"533 473 OFFCURVE",
"420 686 OFFCURVE",
"259 789 CURVE",
"155 697 LINE",
"314 569 OFFCURVE",
"392 477 OFFCURVE",
"392 254 CURVE",
"445 224 LINE",
"445 328 OFFCURVE",
"377 458 OFFCURVE",
"252 458 CURVE",
"132 458 OFFCURVE",
"38 358 OFFCURVE",
"38 224 CURVE",
"38 76 OFFCURVE",
"142 -12 OFFCURVE",
"273 -12 CURVE"
);
},
{
closed = 1;
nodes = (
"224 102 OFFCURVE",
"179 154 OFFCURVE",
"179 223 CURVE",
"179 292 OFFCURVE",
"224 344 OFFCURVE",
"285 344 CURVE",
"350 344 OFFCURVE",
"392 292 OFFCURVE",
"392 223 CURVE",
"392 154 OFFCURVE",
"350 102 OFFCURVE",
"285 102 CURVE"
);
},
{
closed = 1;
nodes = (
"447 760 LINE",
"169 590 LINE",
"214 497 LINE",
"492 667 LINE"
);
}
);
width = 571;
},
{
layerId = "4C85334C-E1D4-4EB0-A0B2-9D58DDEA71D9";
paths = (
{
closed = 1;
nodes = (
"378 -8 OFFCURVE",
"468 96 OFFCURVE",
"468 223 CURVE",
"468 404 OFFCURVE",
"328 628 OFFCURVE",
"170 743 CURVE",
"138 712 LINE",
"275 609 OFFCURVE",
"403 422 OFFCURVE",
"417 253 CURVE",
"432 265 LINE",
"410 334 OFFCURVE",
"345 404 OFFCURVE",
"250 404 CURVE",
"139 404 OFFCURVE",
"51 312 OFFCURVE",
"51 198 CURVE",
"51 77 OFFCURVE",
"141 -8 OFFCURVE",
"255 -8 CURVE"
);
},
{
closed = 1;
nodes = (
"169 32 OFFCURVE",
"98 105 OFFCURVE",
"98 197 CURVE",
"98 283 OFFCURVE",
"166 363 OFFCURVE",
"259 363 CURVE",
"349 363 OFFCURVE",
"420 289 OFFCURVE",
"420 197 CURVE",
"420 105 OFFCURVE",
"349 32 OFFCURVE",
"259 32 CURVE"
);
},
{
closed = 1;
nodes = (
"340 711 LINE",
"146 588 LINE",
"164 557 LINE",
"358 682 LINE"
);
}
);
width = 519;
},
{
layerId = "93649EC8-ADF5-4C20-AD08-3ED15854CD33";
paths = (
{
closed = 1;
nodes = (
"357.167 -6.333 OFFCURVE",
"448.833 84.333 OFFCURVE",
"448.833 194.667 CURVE",
"448.833 383.167 OFFCURVE",
"292.167 620.5 OFFCURVE",
"143.333 728.833 CURVE",
"133 716.167 LINE",
"263.333 621.5 OFFCURVE",
"406.333 405.333 OFFCURVE",
"424.5 252.167 CURVE",
"427.833 270 LINE",
"399.167 329 OFFCURVE",
"335 387.333 OFFCURVE",
"249.167 387.333 CURVE",
"140.667 387.333 OFFCURVE",
"54.333 298.667 OFFCURVE",
"54.333 189.667 CURVE",
"54.333 77 OFFCURVE",
"141 -6.333 OFFCURVE",
"250 -6.333 CURVE"
);
},
{
closed = 1;
nodes = (
"152.333 11.167 OFFCURVE",
"73.833 90.833 OFFCURVE",
"73.833 189.5 CURVE",
"73.833 280.5 OFFCURVE",
"148.5 368.833 OFFCURVE",
"250.667 368.833 CURVE",
"349 368.833 OFFCURVE",
"428.333 288.167 OFFCURVE",
"428.333 189.5 CURVE",
"428.333 90.833 OFFCURVE",
"349 11.167 OFFCURVE",
"250.667 11.167 CURVE"
);
},
{
closed = 1;
nodes = (
"308.333 696.833 LINE",
"139.333 587.167 LINE",
"149 575.333 LINE",
"318 686.167 LINE"
);
}
);
width = 503;
}
);
leftMetricsKey = o;
rightMetricsKey = o;
unicode = 00F0;
},
{
glyphname = e;
layers = (
{
anchors = (
{
name = bottom;
position = "{278, 0}";
},
{
name = ogonek;
position = "{475, 10}";
},
{
name = top;
position = "{290, 458}";
}
);
layerId = UUID1;
paths = (
{
closed = 1;
nodes = (
"335 -12 OFFCURVE",
"392 5 OFFCURVE",
"439 32 CURVE",
"377 136 LINE",
"349 118 OFFCURVE",
"321 107 OFFCURVE",
"290 107 CURVE",
"226 107 OFFCURVE",
"176 149 OFFCURVE",
"176 231 CURVE",
"176 303 OFFCURVE",
"216 349 OFFCURVE",
"279 349 CURVE",
"334 349 OFFCURVE",
"358 318 OFFCURVE",
"369 284 CURVE",
"398 297 LINE",
"152 214 LINE",
"183 138 LINE",
"523 246 LINE",
"499 383 OFFCURVE",
"415 458 OFFCURVE",
"290 458 CURVE",
"150 458 OFFCURVE",
"38 354 OFFCURVE",
"38 223 CURVE",
"38 85 OFFCURVE",
"127 -12 OFFCURVE",
"287 -12 CURVE"
);
}
);
width = 553;
},
{
anchors = (
{
name = bottom;
position = "{244, 0}";
},
{
name = ogonek;
position = "{429, 10}";
},
{
name = top;
position = "{247, 397}";
}
);
layerId = "4C85334C-E1D4-4EB0-A0B2-9D58DDEA71D9";
paths = (
{
closed = 1;
nodes = (
"310 -8 OFFCURVE",
"360 12 OFFCURVE",
"398 42 CURVE",
"374 76 LINE",
"343 50 OFFCURVE",
"303 33 OFFCURVE",
"260 33 CURVE SMOOTH",
"163 33 OFFCURVE",
"97 110 OFFCURVE",
"97 199 CURVE SMOOTH",
"97 292 OFFCURVE",
"167 364 OFFCURVE",
"257 364 CURVE SMOOTH",
"324 364 OFFCURVE",
"370 319 OFFCURVE",
"393 266 CURVE",
"403 280 LINE",
"90 158 LINE",
"104 124 LINE",
"446 256 LINE",
"418 344 OFFCURVE",
"353 404 OFFCURVE",
"260 404 CURVE SMOOTH",
"143 404 OFFCURVE",
"51 311 OFFCURVE",
"51 197 CURVE SMOOTH",
"51 81 OFFCURVE",
"137 -8 OFFCURVE",
"259 -8 CURVE SMOOTH"
);
}
);
width = 487;
},
{
anchors = (
{
name = bottom;
position = "{234, 0}";
},
{
name = ogonek;
position = "{415.667, 10}";
},
{
name = top;
position = "{234.5, 378.667}";
}
);
layerId = "93649EC8-ADF5-4C20-AD08-3ED15854CD33";
paths = (
{
closed = 1;
nodes = (
"302.5 -6.333 OFFCURVE",
"350 13.667 OFFCURVE",
"385.5 45.333 CURVE",
"373.167 58.5 LINE",
"341.333 29.167 OFFCURVE",
"298 11.333 OFFCURVE",
"250.833 11.333 CURVE SMOOTH",
"143.833 11.333 OFFCURVE",
"73.667 98.333 OFFCURVE",
"73.667 189.833 CURVE SMOOTH",
"73.667 288.667 OFFCURVE",
"152 369 OFFCURVE",
"250.333 369 CURVE SMOOTH",
"320.667 369 OFFCURVE",
"373.333 319.833 OFFCURVE",
"400.5 261 CURVE",
"406.333 270.833 LINE",
"74.167 137.167 LINE",
"79.833 119.833 LINE",
"422.667 258.5 LINE",
"393.833 332.333 OFFCURVE",
"334.667 387.333 OFFCURVE",
"250.833 387.333 CURVE SMOOTH",
"141.333 387.333 OFFCURVE",
"54.333 298.5 OFFCURVE",
"54.333 189.5 CURVE SMOOTH",
"54.333 80.167 OFFCURVE",
"140.333 -6.333 OFFCURVE",
"250.667 -6.333 CURVE SMOOTH"
);
}
);
width = 467;
}
);
leftKerningGroup = o;
leftMetricsKey = o;
unicode = 0065;
},
{
glyphname = eogonek;
layers = (
{
layerId = UUID1;
paths = (
{
closed = 1;
nodes = (
"368 -232 OFFCURVE",
"427 -201 OFFCURVE",
"457 -157 CURVE",
"407 -85 LINE",
"385 -118 OFFCURVE",
"362 -134 OFFCURVE",
"335 -134 CURVE SMOOTH",
"312 -134 OFFCURVE",
"286 -115 OFFCURVE",
"286 -81 CURVE SMOOTH",
"286 -16 OFFCURVE",
"370 -8 OFFCURVE",
"443 32 CURVE",
"381 136 LINE",
"353 118 OFFCURVE",
"325 107 OFFCURVE",
"294 107 CURVE",
"230 107 OFFCURVE",
"180 149 OFFCURVE",
"180 231 CURVE",
"180 303 OFFCURVE",
"220 349 OFFCURVE",
"283 349 CURVE",
"338 349 OFFCURVE",
"362 318 OFFCURVE",
"373 284 CURVE",
"402 297 LINE",
"156 214 LINE",
"187 138 LINE",
"527 246 LINE",
"503 383 OFFCURVE",
"419 458 OFFCURVE",
"294 458 CURVE",
"154 458 OFFCURVE",
"42 354 OFFCURVE",
"42 223 CURVE",
"42 85 OFFCURVE",
"131 -12 OFFCURVE",
"291 -12 CURVE",
"317 -12 OFFCURVE",
"385 7 OFFCURVE",
"404 32 CURVE",
"256 10 LINE",
"201 -12 OFFCURVE",
"171 -59 OFFCURVE",
"171 -103 CURVE SMOOTH",
"171 -181 OFFCURVE",
"229 -232 OFFCURVE",
"322 -232 CURVE SMOOTH"
);
}
);
width = 557;
},
{
layerId = "4C85334C-E1D4-4EB0-A0B2-9D58DDEA71D9";
paths = (
{
closed = 1;
nodes = (
"365 -198 OFFCURVE",
"396 -180 OFFCURVE",
"414 -156 CURVE",
"395 -129 LINE",
"379 -150 OFFCURVE",
"361 -162 OFFCURVE",
"339 -162 CURVE",
"309 -162 OFFCURVE",
"279 -136 OFFCURVE",
"279 -96 CURVE",
"279 -20 OFFCURVE",
"346 2 OFFCURVE",
"399 42 CURVE",
"375 76 LINE",
"344 50 OFFCURVE",
"304 33 OFFCURVE",
"261 33 CURVE",
"168 33 OFFCURVE",
"98 108 OFFCURVE",
"98 199 CURVE",
"98 292 OFFCURVE",
"168 364 OFFCURVE",
"258 364 CURVE",
"323 364 OFFCURVE",
"368 323 OFFCURVE",
"394 266 CURVE",
"406 276 LINE",
"94 154 LINE",
"105 124 LINE",
"447 256 LINE",
"419 344 OFFCURVE",
"354 404 OFFCURVE",
"261 404 CURVE",
"144 404 OFFCURVE",
"52 311 OFFCURVE",
"52 197 CURVE",
"52 81 OFFCURVE",
"138 -8 OFFCURVE",
"260 -8 CURVE",
"287 -8 OFFCURVE",
"325 1 OFFCURVE",
"342 14 CURVE",
"299 9 LINE",
"258 -20 OFFCURVE",
"237 -61 OFFCURVE",
"237 -102 CURVE",
"237 -160 OFFCURVE",
"280 -198 OFFCURVE",
"335 -198 CURVE"
);
}
);
width = 488;
},
{
layerId = "93649EC8-ADF5-4C20-AD08-3ED15854CD33";
paths = (
{
closed = 1;
nodes = (
"364.167 -188 OFFCURVE",
"386.833 -174.167 OFFCURVE",
"401.5 -155.167 CURVE",
"390.833 -142.333 LINE",
"377.333 -159.167 OFFCURVE",
"360.167 -170.333 OFFCURVE",
"340.667 -170.333 CURVE",
"308.167 -170.333 OFFCURVE",
"276.5 -142.667 OFFCURVE",
"276.5 -100.167 CURVE",
"276.5 -20.833 OFFCURVE",
"339.333 5.333 OFFCURVE",
"385.667 45.333 CURVE",
"373.333 58.5 LINE",
"341.5 29.167 OFFCURVE",
"298.167 11.333 OFFCURVE",
"251 11.333 CURVE",
"149.667 11.333 OFFCURVE",
"73.833 95.5 OFFCURVE",
"73.833 189.833 CURVE",
"73.833 288.667 OFFCURVE",
"152.167 369 OFFCURVE",
"250.5 369 CURVE",
"318 369 OFFCURVE",
"369.667 324.667 OFFCURVE",
"400.667 261 CURVE",
"406.833 270.167 LINE",
"74.833 136.5 LINE",
"80 119.833 LINE",
"422.833 258.5 LINE",
"394 332.333 OFFCURVE",
"334.833 387.333 OFFCURVE",
"251 387.333 CURVE",
"141.5 387.333 OFFCURVE",
"54.5 298.5 OFFCURVE",
"54.5 189.5 CURVE",
"54.5 80.167 OFFCURVE",
"140.5 -6.333 OFFCURVE",
"250.833 -6.333 CURVE",
"277.833 -6.333 OFFCURVE",
"306.667 -0.667 OFFCURVE",
"322.833 8.167 CURVE",
"312.333 9 LINE",
"275.5 -22.5 OFFCURVE",
"257 -61.833 OFFCURVE",
"257 -101.167 CURVE",
"257 -153.333 OFFCURVE",
"295.833 -188 OFFCURVE",
"339.167 -188 CURVE"
);
}
);
width = 467;
}
);
leftKerningGroup = o;
unicode = 0119;
},
{
glyphname = schwa;
production = uni0259;
layers = (
{
layerId = UUID1;
paths = (
{
closed = 1;
nodes = (
"218 449 OFFCURVE",
"161 432 OFFCURVE",
"114 405 CURVE",
"176 301 LINE",
"204 319 OFFCURVE",
"232 330 OFFCURVE",
"263 330 CURVE",
"327 330 OFFCURVE",
"377 288 OFFCURVE",
"377 206 CURVE",
"377 134 OFFCURVE",
"337 88 OFFCURVE",
"274 88 CURVE",
"219 88 OFFCURVE",
"195 119 OFFCURVE",
"184 153 CURVE",
"155 140 LINE",
"401 223 LINE",
"370 299 LINE",
"30 191 LINE",
"54 54 OFFCURVE",
"138 -21 OFFCURVE",
"263 -21 CURVE",
"403 -21 OFFCURVE",
"515 83 OFFCURVE",
"515 214 CURVE",
"515 352 OFFCURVE",
"426 449 OFFCURVE",
"266 449 CURVE"
);
}
);
width = 553;
},
{
layerId = "4C85334C-E1D4-4EB0-A0B2-9D58DDEA71D9";
paths = (
{
closed = 1;
nodes = (
"177 399 OFFCURVE",
"127 379 OFFCURVE",
"89 349 CURVE",
"113 315 LINE",
"144 341 OFFCURVE",
"184 358 OFFCURVE",
"227 358 CURVE SMOOTH",
"324 358 OFFCURVE",
"390 281 OFFCURVE",
"390 192 CURVE SMOOTH",
"390 99 OFFCURVE",
"320 27 OFFCURVE",
"230 27 CURVE SMOOTH",
"163 27 OFFCURVE",
"117 72 OFFCURVE",
"94 125 CURVE",
"84 111 LINE",
"397 233 LINE",
"383 267 LINE",
"41 135 LINE",
"69 47 OFFCURVE",
"134 -13 OFFCURVE",
"227 -13 CURVE SMOOTH",
"344 -13 OFFCURVE",
"436 80 OFFCURVE",
"436 194 CURVE SMOOTH",
"436 310 OFFCURVE",
"350 399 OFFCURVE",
"228 399 CURVE SMOOTH"
);
}
);
width = 487;
},
{
layerId = "93649EC8-ADF5-4C20-AD08-3ED15854CD33";
paths = (
{
closed = 1;
nodes = (
"164.5 384.333 OFFCURVE",
"117 364.333 OFFCURVE",
"81.5 332.667 CURVE",
"93.833 319.5 LINE",
"125.667 348.833 OFFCURVE",
"169 366.667 OFFCURVE",
"216.167 366.667 CURVE SMOOTH",
"323.167 366.667 OFFCURVE",
"393.333 279.667 OFFCURVE",
"393.333 188.167 CURVE SMOOTH",
"393.333 89.333 OFFCURVE",
"315 9 OFFCURVE",
"216.667 9 CURVE SMOOTH",
"146.333 9 OFFCURVE",
"93.667 58.167 OFFCURVE",
"66.5 117 CURVE",
"60.667 107.167 LINE",
"392.833 240.833 LINE",
"387.167 258.167 LINE",
"44.333 119.5 LINE",
"73.167 45.667 OFFCURVE",
"132.333 -9.333 OFFCURVE",
"216.167 -9.333 CURVE SMOOTH",
"325.667 -9.333 OFFCURVE",
"412.667 79.5 OFFCURVE",
"412.667 188.5 CURVE SMOOTH",
"412.667 297.833 OFFCURVE",
"326.667 384.333 OFFCURVE",
"216.333 384.333 CURVE SMOOTH"
);
}
);
width = 467;
}
);
rightKerningGroup = o;
unicode = 0259;
},
{
glyphname = f;
layers = (
{
anchors = (
{
name = bottom;
position = "{218, 0}";
},
{
name = top;
position = "{218, 437}";
}
);
layerId = UUID1;
paths = (
{
closed = 1;
nodes = (
"254 0 LINE",
"254 315 LINE",
"386 315 LINE",
"386 439 LINE",
"254 439 LINE",
"254 587 LINE",
"254 645 OFFCURVE",
"282 671 OFFCURVE",
"322 671 CURVE",
"338 671 OFFCURVE",
"357 666 OFFCURVE",
"371 649 CURVE",
"430 750 LINE",
"395 775 OFFCURVE",
"344 786 OFFCURVE",
"307 786 CURVE",
"182 786 OFFCURVE",
"114 705 OFFCURVE",
"114 591 CURVE",
"114 439 LINE",
"40 439 LINE",
"40 315 LINE",
"114 315 LINE",
"114 0 LINE"
);
}
);
width = 435;
},
{
anchors = (
{
name = bottom;
position = "{162, 0}";
},
{
name = top;
position = "{162, 391}";
}
);
layerId = "4C85334C-E1D4-4EB0-A0B2-9D58DDEA71D9";
paths = (
{
closed = 1;
nodes = (
"162 0 LINE",
"162 347 LINE",
"293 347 LINE",
"293 390 LINE",
"162 390 LINE",
"162 588 LINE SMOOTH",
"162 690 OFFCURVE",
"191 725 OFFCURVE",
"248 725 CURVE SMOOTH",
"262 725 OFFCURVE",
"274 722 OFFCURVE",
"283 715 CURVE",
"303 749 LINE",
"285 759 OFFCURVE",
"262 764 OFFCURVE",
"244 764 CURVE SMOOTH",
"159 764 OFFCURVE",
"115 712 OFFCURVE",
"115 587 CURVE SMOOTH",
"115 390 LINE",
"47 390 LINE",
"47 347 LINE",
"115 347 LINE",
"115 0 LINE"
);
}
);
width = 324;
},
{
anchors = (
{
name = bottom;
position = "{145.333, 0}";
},
{
name = top;
position = "{145.333, 377.667}";
}
);
layerId = "93649EC8-ADF5-4C20-AD08-3ED15854CD33";
paths = (
{
closed = 1;
nodes = (
"134.5 0 LINE",
"134.5 357 LINE",
"264.667 357 LINE",
"264.667 375 LINE",
"134.5 375 LINE",
"134.5 588.833 LINE SMOOTH",
"134.5 703.333 OFFCURVE",
"163.5 741.667 OFFCURVE",
"226.333 741.667 CURVE SMOOTH",
"239.5 741.667 OFFCURVE",
"249 738.667 OFFCURVE",
"256.333 735 CURVE",
"264.667 749 LINE",
"251.667 754 OFFCURVE",
"237.833 757.333 OFFCURVE",
"224.833 757.333 CURVE SMOOTH",
"152.333 757.333 OFFCURVE",
"115 714.5 OFFCURVE",
"115 585.333 CURVE SMOOTH",
"115 375 LINE",
"49.5 375 LINE",
"49.5 357 LINE",
"115 357 LINE",
"115 0 LINE"
);
}
);
width = 291;
}
);
rightKerningGroup = f;
unicode = 0066;
},
{
glyphname = g;
layers = (
{
anchors = (
{
name = bottom;
position = "{316, 0}";
},
{
name = top;
position = "{316, 457}";
}
);
layerId = UUID1;
paths = (
{
closed = 1;
nodes = (
"441 -220 OFFCURVE",
"561 -128 OFFCURVE",
"561 0 CURVE",
"561 437 LINE",
"432 437 LINE",
"417 389 LINE",
"422 402 LINE",
"394 434 OFFCURVE",
"337 459 OFFCURVE",
"261 459 CURVE",
"147 459 OFFCURVE",
"38 358 OFFCURVE",
"38 221 CURVE",
"38 87 OFFCURVE",
"139 -12 OFFCURVE",
"258 -12 CURVE",
"349 -12 OFFCURVE",
"404 28 OFFCURVE",
"426 73 CURVE",
"421 98 LINE",
"421 2 LINE",
"421 -64 OFFCURVE",
"362 -98 OFFCURVE",
"296 -98 CURVE",
"229 -98 OFFCURVE",
"192 -66 OFFCURVE",
"162 -38 CURVE",
"80 -134 LINE",
"124 -170 OFFCURVE",
"180 -220 OFFCURVE",
"298 -220 CURVE"
);
},
{
closed = 1;
nodes = (
"179 295 OFFCURVE",
"232 345 OFFCURVE",
"300 345 CURVE",
"357 345 OFFCURVE",
"402 318 OFFCURVE",
"421 275 CURVE",
"421 168 LINE",
"396 124 OFFCURVE",
"357 102 OFFCURVE",
"300 102 CURVE",
"232 102 OFFCURVE",
"179 155 OFFCURVE",
"179 225 CURVE"
);
}
);
width = 633;
},
{
anchors = (
{
name = bottom;
position = "{282, 0}";
},
{
name = top;
position = "{282, 397}";
}
);
layerId = "4C85334C-E1D4-4EB0-A0B2-9D58DDEA71D9";
paths = (
{
closed = 1;
nodes = (
"414 -191 OFFCURVE",
"475 -103 OFFCURVE",
"475 -6 CURVE SMOOTH",
"475 391 LINE",
"433 391 LINE",
"428 279 LINE",
"434 301 LINE",
"405 362 OFFCURVE",
"333 403 OFFCURVE",
"261 403 CURVE SMOOTH",
"144 403 OFFCURVE",
"51 318 OFFCURVE",
"51 197 CURVE SMOOTH",
"51 82 OFFCURVE",
"140 -8 OFFCURVE",
"251 -8 CURVE SMOOTH",
"337 -8 OFFCURVE",
"412 40 OFFCURVE",
"439 110 CURVE",
"428 122 LINE",
"427 -5 LINE",
"425 -85 OFFCURVE",
"383 -149 OFFCURVE",
"261 -149 CURVE SMOOTH",
"214 -149 OFFCURVE",
"166 -134 OFFCURVE",
"109 -79 CURVE",
"81 -111 LINE",
"143 -170 OFFCURVE",
"197 -191 OFFCURVE",
"263 -191 CURVE SMOOTH"
);
},
{
closed = 1;
nodes = (
"98 296 OFFCURVE",
"170 363 OFFCURVE",
"263 363 CURVE SMOOTH",
"344 363 OFFCURVE",
"412 308 OFFCURVE",
"428 233 CURVE",
"428 175 LINE",
"421 98 OFFCURVE",
"351 32 OFFCURVE",
"263 32 CURVE SMOOTH",
"171 32 OFFCURVE",
"98 106 OFFCURVE",
"98 198 CURVE SMOOTH"
);
}
);
width = 564;
},
{
anchors = (
{
name = bottom;
position = "{272, 0}";
},
{
name = top;
position = "{272, 378.667}";
}
);
layerId = "93649EC8-ADF5-4C20-AD08-3ED15854CD33";
paths = (
{
closed = 1;
nodes = (
"405.667 -181.833 OFFCURVE",
"449.167 -95.5 OFFCURVE",
"449.167 -7.667 CURVE SMOOTH",
"449.167 377.667 LINE",
"433.833 377.667 LINE",
"428 255.667 LINE",
"430.667 266.833 LINE",
"401.667 337 OFFCURVE",
"331.333 386.333 OFFCURVE",
"251 386.333 CURVE SMOOTH",
"143.167 386.333 OFFCURVE",
"54.333 306.333 OFFCURVE",
"54.333 189.5 CURVE SMOOTH",
"54.333 80.333 OFFCURVE",
"140.833 -6.333 OFFCURVE",
"249.333 -6.333 CURVE SMOOTH",
"332.833 -6.333 OFFCURVE",
"407.833 46.667 OFFCURVE",
"435.667 124.167 CURVE",
"429.667 129.5 LINE",
"428.667 -7.5 LINE",
"425.833 -91.667 OFFCURVE",
"389.667 -164 OFFCURVE",
"251 -164 CURVE SMOOTH",
"209 -164 OFFCURVE",
"158.5 -154.833 OFFCURVE",
"93.167 -91.5 CURVE",
"81.833 -104.333 LINE",
"148.833 -170 OFFCURVE",
"202 -181.833 OFFCURVE",
"252.167 -181.833 CURVE SMOOTH"
);
},
{
closed = 1;
nodes = (
"73.833 296 OFFCURVE",
"151.667 368.833 OFFCURVE",
"251.333 368.833 CURVE SMOOTH",
"339.833 368.833 OFFCURVE",
"414.5 304.667 OFFCURVE",
"429.667 220.5 CURVE",
"429.667 177.5 LINE",
"428.5 89.667 OFFCURVE",
"349.333 11.167 OFFCURVE",
"251.333 11.167 CURVE SMOOTH",
"152.667 11.167 OFFCURVE",
"73.833 91 OFFCURVE",
"73.833 189.667 CURVE SMOOTH"
);
}
);
width = 543;
}
);
leftKerningGroup = o;
leftMetricsKey = o;
rightMetricsKey = n;
unicode = 0067;
},
{
glyphname = gcommaaccent;
production = uni0123;
layers = (
{
components = (
{
name = g;
}
);
layerId = UUID1;
paths = (
{
closed = 1;
nodes = (
"346 507 LINE",
"373 578 OFFCURVE",
"398 647 OFFCURVE",
"425 717 CURVE",
"313 717 LINE",
"284 647 OFFCURVE",
"255 578 OFFCURVE",
"225 507 CURVE"
);
}
);
width = 598;
},
{
components = (
{
name = g;
}
);
layerId = "4C85334C-E1D4-4EB0-A0B2-9D58DDEA71D9";
paths = (
{
closed = 1;
nodes = (
"285 507 LINE",
"311 577 OFFCURVE",
"336 645 OFFCURVE",
"362 715 CURVE",
"322 715 LINE",
"293 645 OFFCURVE",
"265 577 OFFCURVE",
"236 507 CURVE"
);
}
);
width = 537;
},
{
components = (
{
alignment = -1;
name = g;
}
);
layerId = "93649EC8-ADF5-4C20-AD08-3ED15854CD33";
paths = (
{
closed = 1;
nodes = (
"264.167 507 LINE",
"290.167 576.167 OFFCURVE",
"315.167 644.167 OFFCURVE",
"341.167 713.334 CURVE",
"322.833 713.334 LINE",
"293.833 644.167 OFFCURVE",
"265.833 576.167 OFFCURVE",
"236.833 507 CURVE"
);
}
);
width = 519;
}
);
leftKerningGroup = o;
unicode = 0123;
},
{
glyphname = h;
layers = (
{
anchors = (
{
name = bottom;
position = "{297, 0}";
},
{
name = center;
position = "{156, 625}";
},
{
name = top;
position = "{141, 789}";
}
);
background = {
paths = (
{
closed = 1;
nodes = (
"188 789 LINE",
"72 789 LINE",
"72 0 LINE",
"188 0 LINE",
"188 201 LINE SMOOTH",
"188 277 OFFCURVE",
"236 334 OFFCURVE",
"311 334 CURVE",
"367 331 OFFCURVE",
"390 299 OFFCURVE",
"392 260 CURVE",
"392 0 LINE",
"508 0 LINE",
"508 318 LINE",
"506 397 OFFCURVE",
"445 450 OFFCURVE",
"354 449 CURVE SMOOTH",
"268 448 OFFCURVE",
"219 402 OFFCURVE",
"188 332 CURVE"
);
}
);
};
layerId = UUID1;
paths = (
{
closed = 1;
nodes = (
"212 0 LINE",
"212 178 LINE",
"212 271 OFFCURVE",
"253 339 OFFCURVE",
"318 339 CURVE",
"363 339 OFFCURVE",
"380 314 OFFCURVE",
"382 275 CURVE",
"382 0 LINE",
"522 0 LINE",
"522 327 LINE",
"520 404 OFFCURVE",
"458 458 OFFCURVE",
"376 458 CURVE",
"295 458 OFFCURVE",
"239 421 OFFCURVE",
"208 366 CURVE",
"209 349 LINE",
"209 789 LINE",
"72 789 LINE",
"72 0 LINE"
);
}
);
width = 594;
},
{
anchors = (
{
name = bottom;
position = "{256, 0}";
},
{
name = center;
position = "{116, 578}";
},
{
name = top;
position = "{107, 749}";
}
);
layerId = "4C85334C-E1D4-4EB0-A0B2-9D58DDEA71D9";
paths = (
{
closed = 1;
nodes = (
"136 0 LINE",
"136 210 LINE SMOOTH",
"136 296 OFFCURVE",
"205 361 OFFCURVE",
"284 361 CURVE",
"343 359 OFFCURVE",
"373 322 OFFCURVE",
"375 272 CURVE",
"375 0 LINE",
"423 0 LINE",
"423 285 LINE",
"421 354 OFFCURVE",
"372 402 OFFCURVE",
"299 402 CURVE SMOOTH",
"222 402 OFFCURVE",
"158 359 OFFCURVE",
"132 304 CURVE",
"135 287 LINE",
"135 760 LINE",
"89 760 LINE",
"89 0 LINE"
);
}
);
width = 512;
},
{
anchors = (
{
name = bottom;
position = "{243.5, 0}";
},
{
name = center;
position = "{103.5, 563.833}";
},
{
name = top;
position = "{97, 737.333}";
}
);
layerId = "93649EC8-ADF5-4C20-AD08-3ED15854CD33";
paths = (
{
closed = 1;
nodes = (
"113.5 0 LINE",
"113.5 219.167 LINE SMOOTH",
"113.5 303.5 OFFCURVE",
"190.833 367.667 OFFCURVE",
"274 367.667 CURVE",
"337.167 364.833 OFFCURVE",
"371.333 324.5 OFFCURVE",
"373.333 271.167 CURVE",
"373.333 0 LINE",
"393 0 LINE",
"393 272.5 LINE",
"391 339 OFFCURVE",
"346.167 385.333 OFFCURVE",
"275.667 385.333 CURVE SMOOTH",
"200.333 385.333 OFFCURVE",
"136.333 340.667 OFFCURVE",
"112 284.833 CURVE",
"113.333 272 LINE",
"113.333 751.667 LINE",
"94 751.667 LINE",
"94 0 LINE"
);
}
);
width = 487;
}
);
leftMetricsKey = n;
rightMetricsKey = n;
unicode = 0068;
},
{
glyphname = idotless;
production = dotlessi;
layers = (
{
anchors = (
{
name = bottom;
position = "{130, 0}";
},
{
name = ogonek;
position = "{300, 10}";
},
{
name = top;
position = "{144, 437}";
}
);
layerId = UUID1;
paths = (
{
closed = 1;
nodes = (
"72 0 LINE",
"212 0 LINE",
"212 437 LINE",
"72 437 LINE"
);
}
);
width = 284;
},
{
anchors = (
{
name = bottom;
position = "{109, 0}";
},
{
name = ogonek;
position = "{206, 10}";
},
{
name = top;
position = "{113, 391}";
}
);
layerId = "4C85334C-E1D4-4EB0-A0B2-9D58DDEA71D9";
paths = (
{
closed = 1;
nodes = (
"89 0 LINE",
"136 0 LINE",
"136 391 LINE",
"89 391 LINE"
);
}
);
width = 225;
},
{
anchors = (
{
name = bottom;
position = "{103.167, 0}";
},
{
name = ogonek;
position = "{177.667, 10}";
},
{
name = top;
position = "{103.833, 377.667}";
}
);
layerId = "93649EC8-ADF5-4C20-AD08-3ED15854CD33";
paths = (
{
closed = 1;
nodes = (
"94 0 LINE",
"113.5 0 LINE",
"113.5 377.667 LINE",
"94 377.667 LINE"
);
}
);
width = 208;
}
);
leftMetricsKey = n;
rightMetricsKey = n;
unicode = 0131;
},
{
glyphname = ij;
layers = (
{
background = {
paths = (
{
closed = 1;
nodes = (
"102 437 LINE",
"102 0 LINE",
"242 0 LINE",
"242 178 LINE",
"242 271 OFFCURVE",
"283 339 OFFCURVE",
"348 339 CURVE",
"393 339 OFFCURVE",
"410 314 OFFCURVE",
"412 275 CURVE",
"412 0 LINE",
"552 0 LINE",
"552 327 LINE",
"550 404 OFFCURVE",
"488 458 OFFCURVE",
"406 458 CURVE",
"325 458 OFFCURVE",
"270 421 OFFCURVE",
"239 366 CURVE",
"229 437 LINE"
);
}
);
};
components = (
{
name = i;
},
{
alignment = -1;
name = j;
transform = "{1, 0, 0, 1, 254, 0}";
}
);
layerId = UUID1;
width = 560;
},
{
components = (
{
name = i;
},
{
name = j;
transform = "{1, 0, 0, 1, 225, 0}";
}
);
layerId = "4C85334C-E1D4-4EB0-A0B2-9D58DDEA71D9";
width = 449;
},
{
components = (
{
name = i;
},
{
name = j;
transform = "{1, 0, 0, 1, 208, 0}";
}
);
layerId = "93649EC8-ADF5-4C20-AD08-3ED15854CD33";
width = 424;
}
);
leftMetricsKey = n;
rightMetricsKey = j;
unicode = 0133;
},
{
glyphname = iogonek;
layers = (
{
components = (
{
name = idotless;
},
{
name = dotaccentcomb;
transform = "{1, 0, 0, 1, 24, -10}";
}
);
layerId = UUID1;
paths = (
{
closed = 1;
nodes = (
"187 -232 OFFCURVE",
"246 -201 OFFCURVE",
"276 -157 CURVE",
"226 -85 LINE",
"204 -118 OFFCURVE",
"181 -134 OFFCURVE",
"154 -134 CURVE",
"131 -134 OFFCURVE",
"110 -126 OFFCURVE",
"110 -92 CURVE SMOOTH",
"110 -48 OFFCURVE",
"151 -26 OFFCURVE",
"214 0 CURVE",
"188 10 LINE",
"80 10 LINE",
"25 -12 OFFCURVE",
"-5 -59 OFFCURVE",
"-5 -103 CURVE SMOOTH",
"-5 -181 OFFCURVE",
"59 -232 OFFCURVE",
"141 -232 CURVE"
);
}
);
width = 290;
},
{
components = (
{
name = idotless;
},
{
name = dotaccentcomb;
transform = "{1, 0, 0, 1, 17, -32}";
}
);
layerId = "4C85334C-E1D4-4EB0-A0B2-9D58DDEA71D9";
paths = (
{
closed = 1;
nodes = (
"127 -198 OFFCURVE",
"162 -172 OFFCURVE",
"180 -139 CURVE",
"158 -116 LINE",
"142 -143 OFFCURVE",
"121 -162 OFFCURVE",
"94 -162 CURVE",
"68 -162 OFFCURVE",
"42 -142 OFFCURVE",
"42 -106 CURVE",
"42 -66 OFFCURVE",
"77 -32 OFFCURVE",
"137 0 CURVE",
"127 7 LINE",
"96 11 LINE",
"43 -14 OFFCURVE",
"1 -60 OFFCURVE",
"1 -109 CURVE",
"1 -163 OFFCURVE",
"42 -198 OFFCURVE",
"90 -198 CURVE"
);
}
);
width = 227;
},
{
components = (
{
alignment = -1;
name = idotless;
},
{
alignment = -1;
name = dotaccentcomb;
transform = "{1, 0, 0, 1, 15.333, -38.667}";
}
);
layerId = "93649EC8-ADF5-4C20-AD08-3ED15854CD33";
paths = (
{
closed = 1;
nodes = (
"108.667 -188 OFFCURVE",
"137 -162.833 OFFCURVE",
"150.833 -134 CURVE",
"138 -125.167 LINE",
"123.667 -150.5 OFFCURVE",
"102.667 -170.333 OFFCURVE",
"76.5 -170.333 CURVE",
"48.833 -170.333 OFFCURVE",
"22 -147 OFFCURVE",
"22 -110.167 CURVE",
"22 -71 OFFCURVE",
"54.5 -33.667 OFFCURVE",
"113.667 0 CURVE",
"108.667 6.167 LINE",
"101 11.833 LINE",
"48.833 -14.833 OFFCURVE",
"2.667 -60 OFFCURVE",
"2.667 -110.667 CURVE",
"2.667 -157.167 OFFCURVE",
"37 -188 OFFCURVE",
"75 -188 CURVE"
);
}
);
width = 207.83333;
}
);
unicode = 012F;
},
{
glyphname = jdotless;
production = uni0237;
layers = (
{
anchors = (
{
name = bottom;
position = "{153, 0}";
},
{
name = top;
position = "{153, 437}";
}
);
layerId = UUID1;
paths = (
{
closed = 1;
nodes = (
"189 -171 OFFCURVE",
"223 -104 OFFCURVE",
"223 0 CURVE",
"223 437 LINE",
"83 437 LINE",
"83 8 LINE",
"83 -53 OFFCURVE",
"60 -95 OFFCURVE",
"20 -124 CURVE",
"101 -211 LINE"
);
}
);
width = 295;
},
{
anchors = (
{
name = bottom;
position = "{119, 0}";
},
{
name = top;
position = "{123, 391}";
}
);
layerId = "4C85334C-E1D4-4EB0-A0B2-9D58DDEA71D9";
paths = (
{
closed = 1;
nodes = (
"122 -149 OFFCURVE",
"147 -89 OFFCURVE",
"147 -5 CURVE",
"147 391 LINE",
"99 391 LINE",
"99 -6 LINE SMOOTH",
"99 -72 OFFCURVE",
"77 -124 OFFCURVE",
"42 -159 CURVE",
"72 -188 LINE"
);
}
);
width = 224;
},
{
anchors = (
{
name = bottom;
position = "{109, 0}";
},
{
name = top;
position = "{113.833, 377.667}";
}
);
layerId = "93649EC8-ADF5-4C20-AD08-3ED15854CD33";
paths = (
{
closed = 1;
nodes = (
"102 -142.333 OFFCURVE",
"123.667 -84 OFFCURVE",
"123.667 -6.667 CURVE",
"123.667 377.667 LINE",
"104 377.667 LINE",
"104 -10.167 LINE SMOOTH",
"104 -77.833 OFFCURVE",
"82 -132.333 OFFCURVE",
"48.667 -169 CURVE",
"63.667 -181.333 LINE"
);
}
);
width = 216;
}
);
leftMetricsKey = j;
rightMetricsKey = j;
unicode = 0237;
},
{
glyphname = k;
layers = (
{
anchors = (
{
name = bottom;
position = "{272, 0}";
},
{
name = top;
position = "{272, 437}";
}
);
layerId = UUID1;
paths = (
{
closed = 1;
nodes = (
"212 0 LINE",
"212 789 LINE",
"72 789 LINE",
"72 0 LINE"
);
},
{
closed = 1;
nodes = (
"231 217 LINE",
"358 0 LINE",
"521 0 LINE",
"323 297 LINE"
);
},
{
closed = 1;
nodes = (
"505 373 LINE",
"420 448 LINE",
"156 254 LINE",
"170 121 LINE"
);
}
);
width = 546;
},
{
anchors = (
{
name = bottom;
position = "{226, 0}";
},
{
name = top;
position = "{226, 391}";
}
);
layerId = "4C85334C-E1D4-4EB0-A0B2-9D58DDEA71D9";
paths = (
{
closed = 1;
nodes = (
"136 0 LINE",
"136 760 LINE",
"89 760 LINE",
"89 0 LINE"
);
},
{
closed = 1;
nodes = (
"193 228 LINE",
"353 0 LINE",
"408 0 LINE",
"226 254 LINE"
);
},
{
closed = 1;
nodes = (
"384 374 LINE",
"355 399 LINE",
"116 189 LINE",
"120 142 LINE"
);
}
);
width = 451;
},
{
anchors = (
{
name = bottom;
position = "{211.833, 0}";
},
{
name = top;
position = "{211.833, 377.667}";
}
);
layerId = "93649EC8-ADF5-4C20-AD08-3ED15854CD33";
paths = (
{
closed = 1;
nodes = (
"113.5 0 LINE",
"113.5 751.667 LINE",
"94 751.667 LINE",
"94 0 LINE"
);
},
{
closed = 1;
nodes = (
"181.333 231.333 LINE",
"351.333 0 LINE",
"373.833 0 LINE",
"196.833 241.5 LINE"
);
},
{
closed = 1;
nodes = (
"348.167 374 LINE",
"335 384.833 LINE",
"104.333 169.833 LINE",
"105 147.833 LINE"
);
}
);
width = 423;
}
);
leftMetricsKey = n;
rightKerningGroup = k;
unicode = 006B;
},
{
glyphname = kgreenlandic;
layers = (
{
layerId = UUID1;
paths = (
{
closed = 1;
nodes = (
"527 437 LINE",
"359 437 LINE",
"182 239 LINE",
"203 116 LINE"
);
},
{
closed = 1;
nodes = (
"212 437 LINE",
"72 437 LINE",
"72 0 LINE",
"212 0 LINE"
);
},
{
closed = 1;
nodes = (
"222 194 LINE",
"362 0 LINE",
"523 0 LINE",
"330 254 LINE"
);
}
);
width = 562;
},
{
layerId = "4C85334C-E1D4-4EB0-A0B2-9D58DDEA71D9";
paths = (
{
closed = 1;
nodes = (
"396 391 LINE",
"338 391 LINE",
"122 178 LINE",
"130 135 LINE"
);
},
{
closed = 1;
nodes = (
"136 391 LINE",
"89 391 LINE",
"89 0 LINE",
"136 0 LINE"
);
},
{
closed = 1;
nodes = (
"168 197 LINE",
"344 0 LINE",
"402 0 LINE",
"202 221 LINE"
);
}
);
width = 452;
},
{
layerId = "93649EC8-ADF5-4C20-AD08-3ED15854CD33";
paths = (
{
closed = 1;
nodes = (
"356.833 377.667 LINE",
"331.333 377.667 LINE",
"104.5 159.667 LINE",
"108.333 140.833 LINE"
);
},
{
closed = 1;
nodes = (
"113.5 377.667 LINE",
"94 377.667 LINE",
"94 0 LINE",
"113.5 0 LINE"
);
},
{
closed = 1;
nodes = (
"151.333 197.833 LINE",
"339 0 LINE",
"365.333 0 LINE",
"163.667 211 LINE"
);
}
);
width = 420;
}
);
leftMetricsKey = n;
unicode = 0138;
},
{
glyphname = l;
layers = (
{
anchors = (
{
name = bottom;
position = "{142, 0}";
},
{
name = center;
position = "{142, 219}";
},
{
name = top;
position = "{142, 807}";
},
{
name = topright;
position = "{267, 437}";
}
);
layerId = UUID1;
paths = (
{
closed = 1;
nodes = (
"72 0 LINE",
"212 0 LINE",
"212 789 LINE",
"72 789 LINE"
);
}
);
width = 284;
},
{
anchors = (
{
name = bottom;
position = "{113, 0}";
},
{
name = center;
position = "{113, 196}";
},
{
name = top;
position = "{118, 765}";
},
{
name = topright;
position = "{202, 391}";
}
);
layerId = "4C85334C-E1D4-4EB0-A0B2-9D58DDEA71D9";
paths = (
{
closed = 1;
nodes = (
"89 0 LINE",
"136 0 LINE",
"136 760 LINE",
"89 760 LINE"
);
}
);
width = 225;
},
{
anchors = (
{
name = bottom;
position = "{103.833, 0}";
},
{
name = center;
position = "{103.833, 189.333}";
},
{
name = top;
position = "{110.5, 752.5}";
},
{
name = topright;
position = "{182.833, 377.667}";
}
);
layerId = "93649EC8-ADF5-4C20-AD08-3ED15854CD33";
paths = (
{
closed = 1;
nodes = (
"94 0 LINE",
"113.5 0 LINE",
"113.5 751.667 LINE",
"94 751.667 LINE"
);
}
);
width = 208;
}
);
leftMetricsKey = n;
rightMetricsKey = n;
unicode = 006C;
},
{
glyphname = lslash;
layers = (
{
components = (
{
name = l;
transform = "{1, 0, 0, 1, 10, 0}";
}
);
layerId = UUID1;
paths = (
{
closed = 1;
nodes = (
"15 346 LINE",
"15 225 LINE",
"300 292 LINE",
"300 413 LINE"
);
}
);
width = 315;
},
{
components = (
{
name = l;
transform = "{1, 0, 0, 1, 3, 0}";
}
);
layerId = "4C85334C-E1D4-4EB0-A0B2-9D58DDEA71D9";
paths = (
{
closed = 1;
nodes = (
"25 307 LINE",
"25 265 LINE",
"211 324 LINE",
"211 366 LINE"
);
}
);
width = 219;
},
{
components = (
{
alignment = -1;
name = l;
transform = "{1, 0, 0, 1, 0.5, 0}";
}
);
layerId = "93649EC8-ADF5-4C20-AD08-3ED15854CD33";
paths = (
{
closed = 1;
nodes = (
"27.5 295.333 LINE",
"27.5 276.667 LINE",
"184.333 333.167 LINE",
"184.333 351.833 LINE"
);
}
);
width = 189.83333;
}
);
unicode = 0142;
},
{
glyphname = m;
layers = (
{
anchors = (
{
name = bottom;
position = "{432, 0}";
},
{
name = top;
position = "{432, 437}";
}
);
layerId = UUID1;
paths = (
{
closed = 1;
nodes = (
"72 437 LINE",
"72 0 LINE",
"212 0 LINE",
"212 181 LINE",
"212 257 OFFCURVE",
"247 338 OFFCURVE",
"313 338 CURVE",
"352 335 OFFCURVE",
"360 309 OFFCURVE",
"362 270 CURVE",
"362 0 LINE",
"502 0 LINE",
"502 179 LINE",
"502 257 OFFCURVE",
"537 338 OFFCURVE",
"606 338 CURVE",
"644 335 OFFCURVE",
"650 309 OFFCURVE",
"652 270 CURVE",
"652 0 LINE",
"791 0 LINE",
"791 328 LINE",
"789 405 OFFCURVE",
"735 459 OFFCURVE",
"648 459 CURVE",
"590 459 OFFCURVE",
"535 423 OFFCURVE",
"498 368 CURVE",
"503 369 LINE",
"488 430 OFFCURVE",
"438 459 OFFCURVE",
"367 459 CURVE",
"294 459 OFFCURVE",
"242 425 OFFCURVE",
"208 366 CURVE",
"210 360 LINE",
"199 437 LINE"
);
}
);
width = 863;
},
{
anchors = (
{
name = bottom;
position = "{394, 0}";
},
{
name = top;
position = "{394, 391}";
}
);
layerId = "4C85334C-E1D4-4EB0-A0B2-9D58DDEA71D9";
paths = (
{
closed = 1;
nodes = (
"89 391 LINE",
"89 0 LINE",
"136 0 LINE",
"136 210 LINE SMOOTH",
"136 294 OFFCURVE",
"203 361 OFFCURVE",
"283 361 CURVE",
"340 358 OFFCURVE",
"368 321 OFFCURVE",
"370 275 CURVE",
"370 0 LINE",
"417 0 LINE",
"417 214 LINE",
"421 295 OFFCURVE",
"486 361 OFFCURVE",
"565 361 CURVE",
"622 358 OFFCURVE",
"649 321 OFFCURVE",
"651 275 CURVE",
"651 0 LINE",
"698 0 LINE",
"698 285 LINE",
"696 354 OFFCURVE",
"650 402 OFFCURVE",
"575 402 CURVE SMOOTH",
"506 402 OFFCURVE",
"440 366 OFFCURVE",
"412 300 CURVE",
"418 306 LINE",
"412 362 OFFCURVE",
"361 402 OFFCURVE",
"296 402 CURVE SMOOTH",
"222 402 OFFCURVE",
"155 360 OFFCURVE",
"128 292 CURVE",
"135 282 LINE",
"130 391 LINE"
);
}
);
width = 787;
},
{
anchors = (
{
name = bottom;
position = "{382.333, 0}";
},
{
name = top;
position = "{382.333, 377.667}";
}
);
layerId = "93649EC8-ADF5-4C20-AD08-3ED15854CD33";
paths = (
{
closed = 1;
nodes = (
"94 377.667 LINE",
"94 0 LINE",
"113.5 0 LINE",
"113.5 219.167 LINE SMOOTH",
"113.5 304.833 OFFCURVE",
"189.667 367.667 OFFCURVE",
"273.833 367.667 CURVE",
"336.667 364.667 OFFCURVE",
"370.5 324.333 OFFCURVE",
"372.5 276.667 CURVE",
"372.5 0 LINE",
"392 0 LINE",
"392 224.833 LINE",
"396.833 305.833 OFFCURVE",
"471 367.667 OFFCURVE",
"552.5 367.667 CURVE",
"615.333 364.667 OFFCURVE",
"649 324.333 OFFCURVE",
"651 276.667 CURVE",
"651 0 LINE",
"670.5 0 LINE",
"670.5 281.667 LINE",
"668.5 339 OFFCURVE",
"624.167 385.333 OFFCURVE",
"553.333 385.333 CURVE SMOOTH",
"481 385.333 OFFCURVE",
"415.833 347.667 OFFCURVE",
"390.333 279.167 CURVE",
"393.833 285.167 LINE",
"391.167 340.333 OFFCURVE",
"337.667 385.333 OFFCURVE",
"275.167 385.333 CURVE SMOOTH",
"200.333 385.333 OFFCURVE",
"132.5 340.833 OFFCURVE",
"108 269.5 CURVE",
"111.667 260.333 LINE",
"109.167 377.667 LINE"
);
}
);
width = 765;
}
);
leftKerningGroup = n;
leftMetricsKey = n;
rightMetricsKey = n;
unicode = 006D;
},
{
glyphname = n;
layers = (
{
anchors = (
{
name = bottom;
position = "{297, 0}";
},
{
name = top;
position = "{297, 447}";
}
);
layerId = UUID1;
paths = (
{
closed = 1;
nodes = (
"72 437 LINE",
"72 0 LINE",
"212 0 LINE",
"212 178 LINE",
"212 271 OFFCURVE",
"253 339 OFFCURVE",
"318 339 CURVE",
"363 339 OFFCURVE",
"380 314 OFFCURVE",
"382 275 CURVE",
"382 0 LINE",
"522 0 LINE",
"522 327 LINE",
"520 404 OFFCURVE",
"458 458 OFFCURVE",
"376 458 CURVE",
"295 458 OFFCURVE",
"239 421 OFFCURVE",
"208 366 CURVE",
"210 359 LINE",
"199 437 LINE"
);
}
);
width = 594;
},
{
anchors = (
{
name = bottom;
position = "{256, 0}";
},
{
name = top;
position = "{256, 394}";
}
);
layerId = "4C85334C-E1D4-4EB0-A0B2-9D58DDEA71D9";
paths = (
{
closed = 1;
nodes = (
"89 391 LINE",
"89 0 LINE",
"136 0 LINE",
"136 210 LINE SMOOTH",
"136 300 OFFCURVE",
"205 361 OFFCURVE",
"284 361 CURVE",
"343 359 OFFCURVE",
"373 322 OFFCURVE",
"375 272 CURVE",
"375 0 LINE",
"423 0 LINE",
"423 285 LINE",
"421 354 OFFCURVE",
"372 402 OFFCURVE",
"299 402 CURVE SMOOTH",
"222 402 OFFCURVE",
"152 360 OFFCURVE",
"129 292 CURVE",
"135 268 LINE",
"130 391 LINE"
);
}
);
width = 512;
},
{
anchors = (
{
name = bottom;
position = "{243.5, 0}";
},
{
name = top;
position = "{243.5, 378.167}";
}
);
layerId = "93649EC8-ADF5-4C20-AD08-3ED15854CD33";
paths = (
{
closed = 1;
nodes = (
"94 377.667 LINE",
"94 0 LINE",
"113.5 0 LINE",
"113.5 219.167 LINE SMOOTH",
"113.5 308.333 OFFCURVE",
"190.833 367.667 OFFCURVE",
"274 367.667 CURVE",
"337.167 364.833 OFFCURVE",
"371.333 324.5 OFFCURVE",
"373.333 271.167 CURVE",
"373.333 0 LINE",
"393 0 LINE",
"393 272.5 LINE",
"391 339 OFFCURVE",
"346.167 385.333 OFFCURVE",
"275.667 385.333 CURVE SMOOTH",
"200.333 385.333 OFFCURVE",
"131.167 341.667 OFFCURVE",
"109.833 270.333 CURVE",
"112.5 256.333 LINE",
"109.167 377.667 LINE"
);
}
);
width = 487;
}
);
leftKerningGroup = n;
rightKerningGroup = n;
unicode = 006E;
},
{
glyphname = eng;
layers = (
{
anchors = (
{
name = bottom;
position = "{297, 0}";
},
{
name = top;
position = "{297, 447}";
}
);
layerId = UUID1;
paths = (
{
closed = 1;
nodes = (
"522 327 LINE",
"520 404 OFFCURVE",
"458 458 OFFCURVE",
"376 458 CURVE",
"295 458 OFFCURVE",
"240 421 OFFCURVE",
"209 366 CURVE",
"199 437 LINE",
"72 437 LINE",
"72 0 LINE",
"212 0 LINE",
"212 178 LINE",
"212 271 OFFCURVE",
"253 339 OFFCURVE",
"318 339 CURVE",
"363 339 OFFCURVE",
"380 314 OFFCURVE",
"382 275 CURVE",
"382 8 LINE SMOOTH",
"382 -53 OFFCURVE",
"360 -95 OFFCURVE",
"320 -124 CURVE",
"400 -211 LINE",
"484 -167 OFFCURVE",
"522 -89 OFFCURVE",
"522 7 CURVE SMOOTH"
);
}
);
width = 594;
},
{
anchors = (
{
name = bottom;
position = "{256, 0}";
},
{
name = top;
position = "{256, 394}";
}
);
layerId = "4C85334C-E1D4-4EB0-A0B2-9D58DDEA71D9";
paths = (
{
closed = 1;
nodes = (
"423 285 LINE",
"421 354 OFFCURVE",
"372 402 OFFCURVE",
"299 402 CURVE SMOOTH",
"222 402 OFFCURVE",
"158 360 OFFCURVE",
"135 292 CURVE",
"130 391 LINE",
"89 391 LINE",
"89 0 LINE",
"136 0 LINE",
"136 210 LINE SMOOTH",
"136 300 OFFCURVE",
"205 361 OFFCURVE",
"284 361 CURVE",
"343 359 OFFCURVE",
"373 322 OFFCURVE",
"375 272 CURVE",
"375 -6 LINE SMOOTH",
"375 -72 OFFCURVE",
"353 -124 OFFCURVE",
"319 -159 CURVE",
"349 -188 LINE",
"397 -148 OFFCURVE",
"423 -85 OFFCURVE",
"423 -3 CURVE SMOOTH"
);
}
);
width = 512;
},
{
anchors = (
{
name = bottom;
position = "{243.5, 0}";
},
{
name = top;
position = "{243.5, 378.167}";
}
);
layerId = "93649EC8-ADF5-4C20-AD08-3ED15854CD33";
paths = (
{
closed = 1;
nodes = (
"393 272.5 LINE",
"391 339 OFFCURVE",
"346.167 385.333 OFFCURVE",
"275.667 385.333 CURVE SMOOTH",
"200.333 385.333 OFFCURVE",
"133.833 341.667 OFFCURVE",
"112.5 270.333 CURVE",
"109.167 377.667 LINE",
"94 377.667 LINE",
"94 0 LINE",
"113.5 0 LINE",
"113.5 219.167 LINE SMOOTH",
"113.5 308.333 OFFCURVE",
"190.833 367.667 OFFCURVE",
"274 367.667 CURVE",
"337.167 364.833 OFFCURVE",
"371.333 324.5 OFFCURVE",
"373.333 271.167 CURVE",
"373.333 -10.167 LINE SMOOTH",
"373.333 -77.833 OFFCURVE",
"351.333 -132.333 OFFCURVE",
"318.167 -169 CURVE",
"333.167 -181.333 LINE",
"370.333 -142.167 OFFCURVE",
"393 -83.333 OFFCURVE",
"393 -6.333 CURVE SMOOTH"
);
}
);
width = 487;
}
);
leftMetricsKey = n;
rightMetricsKey = n;
unicode = 014B;
},
{
glyphname = nhookleft;
production = uni0272;
layers = (
{
anchors = (
{
name = bottom;
position = "{297, 0}";
},
{
name = top;
position = "{297, 447}";
}
);
layerId = UUID1;
paths = (
{
closed = 1;
nodes = (
"168 -167 OFFCURVE",
"215 -98 OFFCURVE",
"215 0 CURVE",
"215 38 LINE",
"75 38 LINE",
"75 8 LINE",
"75 -53 OFFCURVE",
"53 -95 OFFCURVE",
"13 -124 CURVE",
"93 -211 LINE"
);
},
{
closed = 1;
nodes = (
"72 437 LINE",
"72 0 LINE",
"212 0 LINE",
"212 178 LINE",
"212 271 OFFCURVE",
"253 339 OFFCURVE",
"318 339 CURVE",
"363 339 OFFCURVE",
"380 314 OFFCURVE",
"382 275 CURVE",
"382 0 LINE",
"522 0 LINE",
"522 327 LINE",
"520 404 OFFCURVE",
"458 458 OFFCURVE",
"376 458 CURVE",
"295 458 OFFCURVE",
"239 421 OFFCURVE",
"208 366 CURVE",
"210 359 LINE",
"199 437 LINE"
);
}
);
width = 594;
},
{
anchors = (
{
name = bottom;
position = "{256, 0}";
},
{
name = top;
position = "{256, 394}";
}
);
layerId = "4C85334C-E1D4-4EB0-A0B2-9D58DDEA71D9";
paths = (
{
closed = 1;
nodes = (
"106 -149 OFFCURVE",
"137 -89 OFFCURVE",
"137 -5 CURVE SMOOTH",
"137 52 LINE",
"90 52 LINE",
"90 -6 LINE SMOOTH",
"90 -72 OFFCURVE",
"68 -124 OFFCURVE",
"33 -159 CURVE",
"63 -188 LINE"
);
},
{
closed = 1;
nodes = (
"89 391 LINE",
"89 0 LINE",
"136 0 LINE",
"136 210 LINE SMOOTH",
"136 300 OFFCURVE",
"205 361 OFFCURVE",
"284 361 CURVE",
"343 359 OFFCURVE",
"373 322 OFFCURVE",
"375 272 CURVE",
"375 0 LINE",
"423 0 LINE",
"423 285 LINE",
"421 354 OFFCURVE",
"372 402 OFFCURVE",
"299 402 CURVE SMOOTH",
"222 402 OFFCURVE",
"152 360 OFFCURVE",
"129 292 CURVE",
"135 268 LINE",
"130 391 LINE"
);
}
);
width = 512;
},
{
anchors = (
{
name = bottom;
position = "{243.5, 0}";
},
{
name = top;
position = "{243.5, 378.167}";
}
);
layerId = "93649EC8-ADF5-4C20-AD08-3ED15854CD33";
paths = (
{
closed = 1;
nodes = (
"90.167 -141.5 OFFCURVE",
"113.667 -84 OFFCURVE",
"113.667 -6.667 CURVE SMOOTH",
"113.667 56.167 LINE",
"94.167 56.167 LINE",
"94.167 -10.167 LINE SMOOTH",
"94.167 -77.833 OFFCURVE",
"72.167 -132.333 OFFCURVE",
"38.833 -169 CURVE",
"53.833 -181.333 LINE"
);
},
{
closed = 1;
nodes = (
"94 377.667 LINE",
"94 0 LINE",
"113.5 0 LINE",
"113.5 219.167 LINE SMOOTH",
"113.5 308.333 OFFCURVE",
"190.833 367.667 OFFCURVE",
"274 367.667 CURVE",
"337.167 364.833 OFFCURVE",
"371.333 324.5 OFFCURVE",
"373.333 271.167 CURVE",
"373.333 0 LINE",
"393 0 LINE",
"393 272.5 LINE",
"391 339 OFFCURVE",
"346.167 385.333 OFFCURVE",
"275.667 385.333 CURVE SMOOTH",
"200.333 385.333 OFFCURVE",
"131.167 341.667 OFFCURVE",
"109.833 270.333 CURVE",
"112.5 256.333 LINE",
"109.167 377.667 LINE"
);
}
);
width = 487;
}
);
rightMetricsKey = n;
unicode = 0272;
},
{
glyphname = nj;
production = uni01CC;
layers = (
{
background = {
paths = (
{
closed = 1;
nodes = (
"385 437 LINE",
"385 0 LINE",
"525 0 LINE",
"525 178 LINE",
"525 271 OFFCURVE",
"566 339 OFFCURVE",
"631 339 CURVE",
"676 339 OFFCURVE",
"693 314 OFFCURVE",
"695 275 CURVE",
"695 0 LINE",
"835 0 LINE",
"835 327 LINE",
"833 404 OFFCURVE",
"771 458 OFFCURVE",
"689 458 CURVE",
"608 458 OFFCURVE",
"553 421 OFFCURVE",
"522 366 CURVE",
"512 437 LINE"
);
}
);
};
components = (
{
name = n;
},
{
alignment = -1;
name = j;
transform = "{1, 0, 0, 1, 568, 0}";
}
);
layerId = UUID1;
width = 874;
},
{
components = (
{
name = n;
},
{
name = j;
transform = "{1, 0, 0, 1, 512, 0}";
}
);
layerId = "4C85334C-E1D4-4EB0-A0B2-9D58DDEA71D9";
width = 736;
},
{
components = (
{
name = n;
},
{
name = j;
transform = "{1, 0, 0, 1, 487, 0}";
}
);
layerId = "93649EC8-ADF5-4C20-AD08-3ED15854CD33";
width = 703;
}
);
leftMetricsKey = n;
rightMetricsKey = j;
unicode = 01CC;
},
{
glyphname = o;
layers = (
{
anchors = (
{
name = bottom;
position = "{286, 0}";
},
{
name = center;
position = "{286, 219}";
},
{
name = ogonek;
position = "{517, 10}";
},
{
name = top;
position = "{286, 457}";
},
{
name = topright;
position = "{450, 437}";
}
);
layerId = UUID1;
paths = (
{
closed = 1;
nodes = (
"38 76 OFFCURVE",
"142 -12 OFFCURVE",
"287 -12 CURVE",
"440 -12 OFFCURVE",
"533 90 OFFCURVE",
"533 224 CURVE",
"533 358 OFFCURVE",
"439 458 OFFCURVE",
"289 458 CURVE",
"140 458 OFFCURVE",
"38 358 OFFCURVE",
"38 224 CURVE"
);
},
{
closed = 1;
nodes = (
"179 292 OFFCURVE",
"224 344 OFFCURVE",
"285 344 CURVE",
"350 344 OFFCURVE",
"392 292 OFFCURVE",
"392 223 CURVE",
"392 154 OFFCURVE",
"350 102 OFFCURVE",
"285 102 CURVE",
"224 102 OFFCURVE",
"179 154 OFFCURVE",
"179 223 CURVE"
);
}
);
width = 571;
},
{
anchors = (
{
name = bottom;
position = "{260, 0}";
},
{
name = center;
position = "{260, 196}";
},
{
name = ogonek;
position = "{441, 10}";
},
{
name = top;
position = "{260, 397}";
},
{
name = topright;
position = "{373, 391}";
}
);
layerId = "4C85334C-E1D4-4EB0-A0B2-9D58DDEA71D9";
paths = (
{
closed = 1;
nodes = (
"51 77 OFFCURVE",
"141 -8 OFFCURVE",
"259 -8 CURVE SMOOTH",
"379 -8 OFFCURVE",
"468 83 OFFCURVE",
"468 198 CURVE SMOOTH",
"468 312 OFFCURVE",
"379 404 OFFCURVE",
"260 404 CURVE SMOOTH",
"141 404 OFFCURVE",
"51 312 OFFCURVE",
"51 198 CURVE"
);
},
{
closed = 1;
nodes = (
"98 283 OFFCURVE",
"166 363 OFFCURVE",
"259 363 CURVE SMOOTH",
"349 363 OFFCURVE",
"420 289 OFFCURVE",
"420 197 CURVE SMOOTH",
"420 105 OFFCURVE",
"349 32 OFFCURVE",
"259 32 CURVE SMOOTH",
"169 32 OFFCURVE",
"98 105 OFFCURVE",
"98 197 CURVE"
);
}
);
width = 519;
},
{
anchors = (
{
name = bottom;
position = "{251.667, 0}";
},
{
name = center;
position = "{251.667, 189.333}";
},
{
name = ogonek;
position = "{418.5, 10}";
},
{
name = top;
position = "{251.667, 378.667}";
},
{
name = topright;
position = "{349.667, 377.667}";
}
);
layerId = "93649EC8-ADF5-4C20-AD08-3ED15854CD33";
paths = (
{
closed = 1;
nodes = (
"54.333 77 OFFCURVE",
"141 -6.333 OFFCURVE",
"250.667 -6.333 CURVE SMOOTH",
"360.667 -6.333 OFFCURVE",
"448.833 80.5 OFFCURVE",
"448.833 189.667 CURVE SMOOTH",
"448.833 298.667 OFFCURVE",
"360.667 387.333 OFFCURVE",
"250.833 387.333 CURVE SMOOTH",
"141 387.333 OFFCURVE",
"54.333 298.667 OFFCURVE",
"54.333 189.667 CURVE"
);
},
{
closed = 1;
nodes = (
"73.833 280.5 OFFCURVE",
"148.5 368.833 OFFCURVE",
"250.667 368.833 CURVE SMOOTH",
"349 368.833 OFFCURVE",
"428.333 288.167 OFFCURVE",
"428.333 189.5 CURVE SMOOTH",
"428.333 90.833 OFFCURVE",
"349 11.167 OFFCURVE",
"250.667 11.167 CURVE SMOOTH",
"152.333 11.167 OFFCURVE",
"73.833 90.833 OFFCURVE",
"73.833 189.5 CURVE"
);
}
);
width = 503;
}
);
leftKerningGroup = o;
rightKerningGroup = o;
unicode = 006F;
},
{
glyphname = ohorntilde;
production = uni1EE1;
layers = (
{
components = (
{
name = ohorn;
}
);
layerId = UUID1;
paths = (
{
closed = 1;
nodes = (
"371.27332 496.7779 OFFCURVE",
"410.05929 550.53416 OFFCURVE",
"397.81118 621.98288 CURVE",
"339.97249 621.98288 LINE",
"342.01329 595.44419 OFFCURVE",
"340.65303 564.82391 OFFCURVE",
"319.55869 564.82391 CURVE",
"306.63003 564.82391 OFFCURVE",
"293.70137 576.39148 OFFCURVE",
"278.73109 589.32014 CURVE",
"259.67837 605.65151 OFFCURVE",
"237.90349 624.02368 OFFCURVE",
"210.68509 624.02368 CURVE",
"146.72152 624.02368 OFFCURVE",
"114.0596 562.10174 OFFCURVE",
"121.54474 498.13899 CURVE",
"179.38343 498.13899 LINE",
"176.66209 522.63522 OFFCURVE",
"182.1056 551.89525 OFFCURVE",
"204.56103 551.89525 CURVE",
"216.80914 551.89525 OFFCURVE",
"228.37672 543.04902 OFFCURVE",
"240.62483 532.84253 CURVE",
"261.03863 516.51116 OFFCURVE",
"284.1746 496.7779 OFFCURVE",
"322.28003 496.7779 CURVE"
);
}
);
width = 571;
},
{
components = (
{
name = ohorn;
}
);
layerId = "4C85334C-E1D4-4EB0-A0B2-9D58DDEA71D9";
paths = (
{
closed = 1;
nodes = (
"374.66634 455.14163 OFFCURVE",
"408.31316 494.244 OFFCURVE",
"406.4937 571.539 CURVE",
"377.39459 572.44778 LINE",
"375.57608 511.52132 OFFCURVE",
"356.47928 488.7875 OFFCURVE",
"331.01816 488.7875 CURVE",
"307.3746 488.7875 OFFCURVE",
"291.00606 506.06578 OFFCURVE",
"273.72874 525.16162 CURVE",
"254.63194 546.07693 OFFCURVE",
"233.71663 568.81075 OFFCURVE",
"199.16198 568.81075 CURVE",
"154.60312 568.81075 OFFCURVE",
"118.229 526.98013 OFFCURVE",
"119.13873 452.41338 CURVE",
"148.23784 451.5046 LINE",
"150.05635 511.52132 OFFCURVE",
"174.60869 533.34637 OFFCURVE",
"197.34252 533.34637 CURVE",
"220.98607 533.34637 OFFCURVE",
"236.44488 516.06809 OFFCURVE",
"252.81343 498.79076 CURVE",
"272.819 477.87546 OFFCURVE",
"293.73431 455.14163 OFFCURVE",
"331.92694 455.14163 CURVE"
);
}
);
width = 519;
},
{
components = (
{
name = ohorn;
}
);
layerId = "93649EC8-ADF5-4C20-AD08-3ED15854CD33";
paths = (
{
closed = 1;
nodes = (
"360.95768 448.41193 OFFCURVE",
"392.46424 480.08321 OFFCURVE",
"394.59861 557.21037 CURVE",
"378.68062 559.01531 LINE",
"375.06975 484.84213 OFFCURVE",
"349.47017 465.97114 OFFCURVE",
"322.72254 465.97114 CURVE",
"294.66115 465.97114 OFFCURVE",
"276.93821 485.49902 OFFCURVE",
"259.87117 506.17495 CURVE",
"240.83645 528.82153 OFFCURVE",
"221.47231 552.61616 OFFCURVE",
"184.05678 552.61616 CURVE",
"148.94035 552.61616 OFFCURVE",
"112.01798 520.45173 OFFCURVE",
"109.71988 443.81772 CURVE",
"125.63788 442.01179 LINE",
"129.24875 516.02124 OFFCURVE",
"162.39652 534.72851 OFFCURVE",
"184.54994 534.72851 CURVE",
"211.79073 534.72851 OFFCURVE",
"228.52834 514.38003 OFFCURVE",
"246.25127 494.03254 CURVE",
"265.4507 471.38596 OFFCURVE",
"285.63546 448.41193 OFFCURVE",
"322.06566 448.41193 CURVE"
);
}
);
width = 503;
}
);
leftKerningGroup = o;
rightKerningGroup = o;
unicode = 1EE1;
},
{
glyphname = oogonek;
production = uni01EB;
layers = (
{
background = {
paths = (
{
closed = 1;
nodes = (
"456 0 CURVE",
"298 0 LINE",
"243 -22 OFFCURVE",
"213 -69 OFFCURVE",
"213 -113 CURVE SMOOTH",
"213 -191 OFFCURVE",
"275 -226 OFFCURVE",
"357 -226 CURVE SMOOTH",
"414 -226 OFFCURVE",
"477 -193 OFFCURVE",
"497 -144 CURVE",
"427 -92 LINE",
"421 -110 OFFCURVE",
"399 -134 OFFCURVE",
"372 -134 CURVE SMOOTH",
"349 -134 OFFCURVE",
"328 -126 OFFCURVE",
"328 -92 CURVE SMOOTH",
"328 -53 OFFCURVE",
"380 -29 OFFCURVE"
);
},
{
closed = 1;
nodes = (
"42 76 OFFCURVE",
"146 -12 OFFCURVE",
"291 -12 CURVE",
"444 -12 OFFCURVE",
"537 90 OFFCURVE",
"537 224 CURVE",
"537 358 OFFCURVE",
"443 458 OFFCURVE",
"293 458 CURVE",
"144 458 OFFCURVE",
"42 358 OFFCURVE",
"42 224 CURVE"
);
},
{
closed = 1;
nodes = (
"183 292 OFFCURVE",
"228 344 OFFCURVE",
"289 344 CURVE",
"354 344 OFFCURVE",
"396 292 OFFCURVE",
"396 223 CURVE",
"396 154 OFFCURVE",
"354 102 OFFCURVE",
"289 102 CURVE",
"228 102 OFFCURVE",
"183 154 OFFCURVE",
"183 223 CURVE"
);
}
);
};
layerId = UUID1;
paths = (
{
closed = 1;
nodes = (
"405 -232 OFFCURVE",
"464 -201 OFFCURVE",
"494 -157 CURVE",
"444 -85 LINE",
"422 -118 OFFCURVE",
"399 -134 OFFCURVE",
"372 -134 CURVE",
"349 -134 OFFCURVE",
"328 -120 OFFCURVE",
"328 -92 CURVE SMOOTH",
"328 -48 OFFCURVE",
"359 -29 OFFCURVE",
"406 1 CURVE SMOOTH",
"484 51 OFFCURVE",
"537 128 OFFCURVE",
"537 224 CURVE",
"537 358 OFFCURVE",
"443 458 OFFCURVE",
"293 458 CURVE",
"144 457 OFFCURVE",
"42 357 OFFCURVE",
"42 224 CURVE",
"42 76 OFFCURVE",
"146 -12 OFFCURVE",
"291 -12 CURVE",
"300 -12 OFFCURVE",
"326 -2 OFFCURVE",
"332 2 CURVE",
"298 10 LINE",
"243 -12 OFFCURVE",
"213 -59 OFFCURVE",
"213 -103 CURVE SMOOTH",
"213 -191 OFFCURVE",
"277 -232 OFFCURVE",
"349 -232 CURVE SMOOTH"
);
},
{
closed = 1;
nodes = (
"228 102 OFFCURVE",
"183 154 OFFCURVE",
"183 223 CURVE",
"183 292 OFFCURVE",
"228 344 OFFCURVE",
"289 344 CURVE",
"354 344 OFFCURVE",
"396 292 OFFCURVE",
"396 223 CURVE",
"396 154 OFFCURVE",
"354 102 OFFCURVE",
"289 102 CURVE"
);
}
);
width = 579;
},
{
layerId = "4C85334C-E1D4-4EB0-A0B2-9D58DDEA71D9";
paths = (
{
closed = 1;
nodes = (
"387 -198 OFFCURVE",
"422 -172 OFFCURVE",
"440 -139 CURVE",
"418 -116 LINE",
"402 -143 OFFCURVE",
"381 -162 OFFCURVE",
"354 -162 CURVE",
"328 -162 OFFCURVE",
"302 -138 OFFCURVE",
"302 -96 CURVE",
"302 -44 OFFCURVE",
"345 -4 OFFCURVE",
"395 40 CURVE SMOOTH",
"442 81 OFFCURVE",
"468 139 OFFCURVE",
"468 198 CURVE SMOOTH",
"468 312 OFFCURVE",
"379 404 OFFCURVE",
"260 404 CURVE SMOOTH",
"141 404 OFFCURVE",
"51 312 OFFCURVE",
"51 198 CURVE",
"51 77 OFFCURVE",
"141 -8 OFFCURVE",
"259 -8 CURVE SMOOTH",
"317 -8 OFFCURVE",
"362 13 OFFCURVE",
"399 48 CURVE",
"356 37 LINE",
"303 5 OFFCURVE",
"261 -35 OFFCURVE",
"261 -99 CURVE",
"261 -159 OFFCURVE",
"302 -198 OFFCURVE",
"350 -198 CURVE"
);
},
{
closed = 1;
nodes = (
"169 32 OFFCURVE",
"98 105 OFFCURVE",
"98 197 CURVE",
"98 283 OFFCURVE",
"166 363 OFFCURVE",
"259 363 CURVE SMOOTH",
"349 363 OFFCURVE",
"420 289 OFFCURVE",
"420 197 CURVE SMOOTH",
"420 105 OFFCURVE",
"349 32 OFFCURVE",
"259 32 CURVE SMOOTH"
);
}
);
width = 519;
},
{
layerId = "93649EC8-ADF5-4C20-AD08-3ED15854CD33";
paths = (
{
closed = 1;
nodes = (
"376.167 -188 OFFCURVE",
"404.5 -162.833 OFFCURVE",
"418.333 -134 CURVE",
"405.5 -125.167 LINE",
"391.167 -150.5 OFFCURVE",
"370.167 -170.333 OFFCURVE",
"344 -170.333 CURVE",
"312.167 -170.333 OFFCURVE",
"281.167 -143 OFFCURVE",
"281.167 -100.167 CURVE",
"281.167 -55.667 OFFCURVE",
"309.167 -9 OFFCURVE",
"356.667 24.167 CURVE SMOOTH",
"411.167 61.833 OFFCURVE",
"448.833 119.833 OFFCURVE",
"448.833 189.667 CURVE",
"448.833 298.667 OFFCURVE",
"360.667 387.333 OFFCURVE",
"250.833 387.333 CURVE",
"141 387.333 OFFCURVE",
"54.333 298.667 OFFCURVE",
"54.333 189.667 CURVE",
"54.333 77 OFFCURVE",
"141 -6.333 OFFCURVE",
"250.667 -6.333 CURVE",
"288.667 -6.333 OFFCURVE",
"309.5 0.5 OFFCURVE",
"338.167 17.167 CURVE",
"323.5 15.333 LINE",
"290.5 -13.333 OFFCURVE",
"261.833 -53.333 OFFCURVE",
"261.833 -100.667 CURVE",
"261.833 -153.167 OFFCURVE",
"300.333 -188 OFFCURVE",
"342.5 -188 CURVE"
);
},
{
closed = 1;
nodes = (
"152.333 11.167 OFFCURVE",
"73.833 90.833 OFFCURVE",
"73.833 189.5 CURVE",
"73.833 280.5 OFFCURVE",
"148.5 368.833 OFFCURVE",
"250.667 368.833 CURVE",
"349 368.833 OFFCURVE",
"428.333 288.167 OFFCURVE",
"428.333 189.5 CURVE",
"428.333 90.833 OFFCURVE",
"349 11.167 OFFCURVE",
"250.667 11.167 CURVE"
);
}
);
width = 503;
}
);
leftKerningGroup = o;
rightKerningGroup = o;
unicode = 01EB;
},
{
glyphname = oslash;
layers = (
{
anchors = (
{
name = top;
position = "{273, 437}";
}
);
components = (
{
name = o;
}
);
layerId = UUID1;
paths = (
{
closed = 1;
nodes = (
"448 484 LINE",
"42 24 LINE",
"109 -37 LINE",
"518 426 LINE"
);
}
);
width = 546;
},
{
anchors = (
{
name = top;
position = "{248, 391}";
}
);
components = (
{
name = o;
}
);
layerId = "4C85334C-E1D4-4EB0-A0B2-9D58DDEA71D9";
paths = (
{
closed = 1;
nodes = (
"405 404 LINE",
"72 14 LINE",
"96 -10 LINE",
"430 382 LINE"
);
}
);
width = 496;
},
{
anchors = (
{
name = top;
position = "{240.5, 377.667}";
}
);
components = (
{
alignment = -1;
name = o;
}
);
layerId = "93649EC8-ADF5-4C20-AD08-3ED15854CD33";
paths = (
{
closed = 1;
nodes = (
"391.667 379.833 LINE",
"81.167 10.667 LINE",
"91.833 -1.667 LINE",
"403.333 368.667 LINE"
);
}
);
width = 481;
}
);
rightKerningGroup = o;
unicode = 00F8;
},
{
glyphname = p;
layers = (
{
anchors = (
{
name = bottom;
position = "{313, 0}";
},
{
name = top;
position = "{313, 437}";
}
);
layerId = UUID1;
paths = (
{
closed = 1;
nodes = (
"485 -12 OFFCURVE",
"586 72 OFFCURVE",
"586 220 CURVE",
"586 369 OFFCURVE",
"496 459 OFFCURVE",
"374 459 CURVE",
"301 459 OFFCURVE",
"246 430 OFFCURVE",
"201 392 CURVE",
"212 362 LINE",
"192 447 LINE",
"72 447 LINE",
"72 -210 LINE",
"211 -210 LINE",
"211 85 LINE",
"207 44 LINE",
"240 8 OFFCURVE",
"294 -12 OFFCURVE",
"346 -12 CURVE"
);
},
{
closed = 1;
nodes = (
"267 98 OFFCURVE",
"227 125 OFFCURVE",
"212 168 CURVE",
"212 275 LINE",
"236 319 OFFCURVE",
"272 341 OFFCURVE",
"328 341 CURVE",
"392 341 OFFCURVE",
"444 292 OFFCURVE",
"444 218 CURVE",
"444 147 OFFCURVE",
"385 98 OFFCURVE",
"318 98 CURVE"
);
}
);
width = 624;
},
{
anchors = (
{
name = bottom;
position = "{281, 0}";
},
{
name = top;
position = "{281, 391}";
}
);
layerId = "4C85334C-E1D4-4EB0-A0B2-9D58DDEA71D9";
paths = (
{
closed = 1;
nodes = (
"421 -8 OFFCURVE",
"511 77 OFFCURVE",
"511 196 CURVE SMOOTH",
"511 315 OFFCURVE",
"424 403 OFFCURVE",
"312 403 CURVE SMOOTH",
"233 403 OFFCURVE",
"161 358 OFFCURVE",
"127 295 CURVE",
"136 266 LINE",
"131 394 LINE",
"89 394 LINE",
"89 -188 LINE",
"136 -188 LINE",
"136 115 LINE",
"128 98 LINE",
"158 35 OFFCURVE",
"230 -8 OFFCURVE",
"305 -8 CURVE SMOOTH"
);
},
{
closed = 1;
nodes = (
"212 31 OFFCURVE",
"142 96 OFFCURVE",
"136 179 CURVE",
"136 211 LINE",
"143 296 OFFCURVE",
"212 362 OFFCURVE",
"300 362 CURVE SMOOTH",
"391 362 OFFCURVE",
"463 290 OFFCURVE",
"463 196 CURVE SMOOTH",
"463 104 OFFCURVE",
"389 31 OFFCURVE",
"297 31 CURVE SMOOTH"
);
}
);
width = 562;
},
{
anchors = (
{
name = bottom;
position = "{271.833, 0}";
},
{
name = top;
position = "{271.833, 377.667}";
}
);
layerId = "93649EC8-ADF5-4C20-AD08-3ED15854CD33";
paths = (
{
closed = 1;
nodes = (
"401.833 -6.333 OFFCURVE",
"488.5 78.667 OFFCURVE",
"488.5 189.333 CURVE SMOOTH",
"488.5 299.167 OFFCURVE",
"402.333 386.333 OFFCURVE",
"293.667 386.333 CURVE SMOOTH",
"212.167 386.333 OFFCURVE",
"141.833 336.333 OFFCURVE",
"112 265.833 CURVE",
"113.5 236.833 LINE",
"112.667 378.167 LINE",
"94 378.167 LINE",
"94 -181.333 LINE",
"113.5 -181.333 LINE",
"113.5 138.333 LINE",
"111.333 113.833 LINE",
"139.667 43.333 OFFCURVE",
"210.833 -6.333 OFFCURVE",
"292.5 -6.333 CURVE SMOOTH"
);
},
{
closed = 1;
nodes = (
"195.333 11 OFFCURVE",
"117 87.667 OFFCURVE",
"113.5 182.333 CURVE",
"113.5 191.833 LINE",
"114.667 289.333 OFFCURVE",
"193.667 368.667 OFFCURVE",
"291.667 368.667 CURVE SMOOTH",
"390.167 368.667 OFFCURVE",
"468.833 289.167 OFFCURVE",
"468.833 189.333 CURVE SMOOTH",
"468.833 90.667 OFFCURVE",
"389.833 11 OFFCURVE",
"291.167 11 CURVE SMOOTH"
);
}
);
width = 543;
}
);
leftMetricsKey = n;
rightKerningGroup = o;
rightMetricsKey = o;
unicode = 0070;
},
{
glyphname = thorn;
layers = (
{
layerId = UUID1;
paths = (
{
closed = 1;
nodes = (
"488 -12 OFFCURVE",
"589 72 OFFCURVE",
"589 220 CURVE",
"589 369 OFFCURVE",
"499 459 OFFCURVE",
"377 459 CURVE",
"304 459 OFFCURVE",
"249 430 OFFCURVE",
"204 392 CURVE",
"215 362 LINE",
"215 789 LINE",
"75 789 LINE",
"75 -210 LINE",
"214 -210 LINE",
"214 85 LINE",
"214 41 LINE",
"247 5 OFFCURVE",
"297 -12 OFFCURVE",
"349 -12 CURVE"
);
},
{
closed = 1;
nodes = (
"270 98 OFFCURVE",
"230 125 OFFCURVE",
"215 168 CURVE",
"215 275 LINE",
"239 319 OFFCURVE",
"275 341 OFFCURVE",
"331 341 CURVE",
"393 341 OFFCURVE",
"447 288 OFFCURVE",
"447 218 CURVE",
"447 148 OFFCURVE",
"388 98 OFFCURVE",
"321 98 CURVE"
);
}
);
width = 625;
},
{
layerId = "4C85334C-E1D4-4EB0-A0B2-9D58DDEA71D9";
paths = (
{
closed = 1;
nodes = (
"414 -8 OFFCURVE",
"504 76 OFFCURVE",
"504 196 CURVE SMOOTH",
"504 315 OFFCURVE",
"417 403 OFFCURVE",
"306 403 CURVE SMOOTH",
"226 403 OFFCURVE",
"145 353 OFFCURVE",
"118 285 CURVE",
"130 271 LINE",
"130 760 LINE",
"82 760 LINE",
"82 -188 LINE",
"129 -188 LINE",
"129 129 LINE",
"123 103 LINE",
"145 39 OFFCURVE",
"223 -8 OFFCURVE",
"298 -8 CURVE SMOOTH"
);
},
{
closed = 1;
nodes = (
"207 32 OFFCURVE",
"138 93 OFFCURVE",
"130 174 CURVE",
"130 211 LINE",
"136 296 OFFCURVE",
"205 362 OFFCURVE",
"294 362 CURVE SMOOTH",
"381 362 OFFCURVE",
"457 292 OFFCURVE",
"457 196 CURVE SMOOTH",
"457 104 OFFCURVE",
"382 32 OFFCURVE",
"291 32 CURVE SMOOTH"
);
}
);
width = 544;
},
{
layerId = "93649EC8-ADF5-4C20-AD08-3ED15854CD33";
paths = (
{
closed = 1;
nodes = (
"392.333 -6.333 OFFCURVE",
"479 76.833 OFFCURVE",
"479 189.333 CURVE SMOOTH",
"479 299.167 OFFCURVE",
"392.833 386.333 OFFCURVE",
"284.333 386.333 CURVE SMOOTH",
"202.667 386.333 OFFCURVE",
"120.833 329.667 OFFCURVE",
"98.833 253.333 CURVE",
"104.167 243.5 LINE",
"104.167 751.667 LINE",
"84.5 751.667 LINE",
"84.5 -181.333 LINE",
"104 -181.333 LINE",
"104 142.333 LINE",
"102.167 121.333 LINE",
"120.833 49 OFFCURVE",
"201.333 -6.333 OFFCURVE",
"283 -6.333 CURVE SMOOTH"
);
},
{
closed = 1;
nodes = (
"187.833 12 OFFCURVE",
"110.5 83.833 OFFCURVE",
"104.167 175.667 CURVE",
"104.167 191.833 LINE",
"105.167 289.333 OFFCURVE",
"184.167 367.833 OFFCURVE",
"282.333 367.833 CURVE SMOOTH",
"377.667 367.833 OFFCURVE",
"459.5 293.667 OFFCURVE",
"459.5 189.333 CURVE SMOOTH",
"459.5 90.667 OFFCURVE",
"380.333 12 OFFCURVE",
"281.833 12 CURVE SMOOTH"
);
}
);
width = 520;
}
);
rightKerningGroup = o;
unicode = 00FE;
},
{
glyphname = q;
layers = (
{
anchors = (
{
name = bottom;
position = "{312, 0}";
},
{
name = top;
position = "{312, 437}";
}
);
layerId = UUID1;
paths = (
{
closed = 1;
nodes = (
"320 -12 OFFCURVE",
"380 11 OFFCURVE",
"415 40 CURVE",
"413 85 LINE",
"413 -210 LINE",
"552 -210 LINE",
"552 447 LINE",
"412 447 LINE",
"412 362 LINE",
"423 392 LINE",
"386 432 OFFCURVE",
"340 459 OFFCURVE",
"265 459 CURVE",
"145 459 OFFCURVE",
"38 368 OFFCURVE",
"38 219 CURVE",
"38 71 OFFCURVE",
"133 -12 OFFCURVE",
"246 -12 CURVE"
);
},
{
closed = 1;
nodes = (
"234 98 OFFCURVE",
"180 148 OFFCURVE",
"180 218 CURVE",
"180 288 OFFCURVE",
"234 341 OFFCURVE",
"296 341 CURVE",
"352 341 OFFCURVE",
"388 319 OFFCURVE",
"412 275 CURVE",
"412 168 LINE",
"396 125 OFFCURVE",
"352 98 OFFCURVE",
"296 98 CURVE"
);
}
);
width = 624;
},
{
anchors = (
{
name = bottom;
position = "{281, 0}";
},
{
name = top;
position = "{281, 391}";
}
);
layerId = "4C85334C-E1D4-4EB0-A0B2-9D58DDEA71D9";
paths = (
{
closed = 1;
nodes = (
"329 -8 OFFCURVE",
"402 33 OFFCURVE",
"432 94 CURVE",
"426 127 LINE",
"426 -188 LINE",
"473 -188 LINE",
"473 394 LINE",
"425 394 LINE",
"425 266 LINE",
"436 294 LINE",
"405 358 OFFCURVE",
"333 403 OFFCURVE",
"260 403 CURVE SMOOTH",
"142 403 OFFCURVE",
"51 316 OFFCURVE",
"51 196 CURVE SMOOTH",
"51 78 OFFCURVE",
"139 -8 OFFCURVE",
"248 -8 CURVE SMOOTH"
);
},
{
closed = 1;
nodes = (
"172 31 OFFCURVE",
"98 104 OFFCURVE",
"98 196 CURVE SMOOTH",
"98 289 OFFCURVE",
"172 362 OFFCURVE",
"261 362 CURVE SMOOTH",
"350 362 OFFCURVE",
"419 296 OFFCURVE",
"425 211 CURVE",
"425 177 LINE",
"418 95 OFFCURVE",
"348 31 OFFCURVE",
"261 31 CURVE SMOOTH"
);
}
);
width = 562;
},
{
anchors = (
{
name = bottom;
position = "{271.833, 0}";
},
{
name = top;
position = "{271.833, 377.667}";
}
);
layerId = "93649EC8-ADF5-4C20-AD08-3ED15854CD33";
paths = (
{
closed = 1;
nodes = (
"331.5 -6.333 OFFCURVE",
"402.833 43 OFFCURVE",
"431.167 113.167 CURVE",
"429.333 134.5 LINE",
"429.333 -181.333 LINE",
"448.833 -181.333 LINE",
"448.833 378.167 LINE",
"429.167 378.167 LINE",
"429.167 237.667 LINE",
"433.5 261.5 LINE",
"404.167 332.167 OFFCURVE",
"331.333 386.333 OFFCURVE",
"250.833 386.333 CURVE SMOOTH",
"141.167 386.333 OFFCURVE",
"54.333 300.167 OFFCURVE",
"54.333 189.333 CURVE SMOOTH",
"54.333 79.667 OFFCURVE",
"140.667 -6.333 OFFCURVE",
"248.833 -6.333 CURVE SMOOTH"
);
},
{
closed = 1;
nodes = (
"152.833 11 OFFCURVE",
"73.833 90.667 OFFCURVE",
"73.833 189.333 CURVE SMOOTH",
"73.833 289 OFFCURVE",
"152.833 368.667 OFFCURVE",
"251 368.667 CURVE SMOOTH",
"349.167 368.667 OFFCURVE",
"428.167 289.333 OFFCURVE",
"429.167 191.833 CURVE",
"429.167 179.5 LINE",
"424.667 85.833 OFFCURVE",
"346.333 11 OFFCURVE",
"251 11 CURVE SMOOTH"
);
}
);
width = 543;
}
);
leftKerningGroup = o;
leftMetricsKey = o;
rightMetricsKey = n;
unicode = 0071;
},
{
glyphname = r;
layers = (
{
anchors = (
{
name = bottom;
position = "{127, 0}";
},
{
name = top;
position = "{194, 437}";
}
);
layerId = UUID1;
paths = (
{
closed = 1;
nodes = (
"72 437 LINE",
"72 0 LINE",
"211 0 LINE",
"211 171 LINE",
"211 247 OFFCURVE",
"270 330 OFFCURVE",
"368 319 CURVE",
"375 459 LINE",
"340 459 OFFCURVE",
"246 412 OFFCURVE",
"208 335 CURVE",
"211 317 LINE",
"198 437 LINE"
);
}
);
width = 410;
},
{
anchors = (
{
name = bottom;
position = "{151, 0}";
},
{
name = top;
position = "{168, 391}";
}
);
layerId = "4C85334C-E1D4-4EB0-A0B2-9D58DDEA71D9";
paths = (
{
closed = 1;
nodes = (
"89 391 LINE",
"89 0 LINE",
"136 0 LINE",
"136 207 LINE SMOOTH",
"136 291 OFFCURVE",
"208 356 OFFCURVE",
"297 356 CURVE",
"299 402 LINE",
"235 401 OFFCURVE",
"155 358 OFFCURVE",
"129 286 CURVE",
"135 271 LINE",
"130 391 LINE"
);
}
);
width = 342;
},
{
anchors = (
{
name = bottom;
position = "{157.667, 0}";
},
{
name = top;
position = "{160.5, 377.667}";
}
);
layerId = "93649EC8-ADF5-4C20-AD08-3ED15854CD33";
paths = (
{
closed = 1;
nodes = (
"94 377.667 LINE",
"94 0 LINE",
"113.5 0 LINE",
"113.5 217.833 LINE SMOOTH",
"113.5 304.333 OFFCURVE",
"188.833 364.333 OFFCURVE",
"276.167 366.833 CURVE",
"276.5 385.333 LINE",
"203.333 383.5 OFFCURVE",
"132.5 342.167 OFFCURVE",
"109.833 271 CURVE",
"111.667 260.167 LINE",
"109.167 377.667 LINE"
);
}
);
width = 321;
}
);
leftKerningGroup = n;
leftMetricsKey = n;
rightKerningGroup = r;
unicode = 0072;
},
{
glyphname = s;
layers = (
{
anchors = (
{
name = bottom;
position = "{219, -10}";
},
{
name = top;
position = "{225, 447}";
}
);
layerId = UUID1;
paths = (
{
closed = 1;
nodes = (
"341 -9 OFFCURVE",
"402 65 OFFCURVE",
"402 146 CURVE",
"402 211 OFFCURVE",
"362 249 OFFCURVE",
"299 270 CURVE",
"252 285 OFFCURVE",
"196 292 OFFCURVE",
"198 331 CURVE",
"198 349 OFFCURVE",
"219 366 OFFCURVE",
"255 365 CURVE",
"282 364 OFFCURVE",
"316 348 OFFCURVE",
"341 328 CURVE",
"394 410 LINE",
"348 443 OFFCURVE",
"302 457 OFFCURVE",
"229 457 CURVE",
"106 457 OFFCURVE",
"56 378 OFFCURVE",
"56 312 CURVE",
"56 254 OFFCURVE",
"89 202 OFFCURVE",
"169 177 CURVE",
"216 163 OFFCURVE",
"262 154 OFFCURVE",
"262 120 CURVE",
"262 96 OFFCURVE",
"236 86 OFFCURVE",
"202 86 CURVE",
"173 86 OFFCURVE",
"135 101 OFFCURVE",
"93 140 CURVE",
"35 63 LINE",
"77 17 OFFCURVE",
"142 -9 OFFCURVE",
"214 -9 CURVE"
);
}
);
width = 447;
},
{
anchors = (
{
name = bottom;
position = "{183, -3}";
},
{
name = top;
position = "{185, 394}";
}
);
layerId = "4C85334C-E1D4-4EB0-A0B2-9D58DDEA71D9";
paths = (
{
closed = 1;
nodes = (
"270 -8 OFFCURVE",
"315 43 OFFCURVE",
"315 112 CURVE SMOOTH",
"315 180 OFFCURVE",
"259 202 OFFCURVE",
"202 221 CURVE SMOOTH",
"157 237 OFFCURVE",
"113 252 OFFCURVE",
"113 299 CURVE SMOOTH",
"113 342 OFFCURVE",
"157 362 OFFCURVE",
"192 362 CURVE SMOOTH",
"219 361 OFFCURVE",
"259 352 OFFCURVE",
"281 323 CURVE",
"302 356 LINE",
"269 388 OFFCURVE",
"226 400 OFFCURVE",
"185 400 CURVE SMOOTH",
"116 400 OFFCURVE",
"66 357 OFFCURVE",
"66 293 CURVE SMOOTH",
"66 234 OFFCURVE",
"107 206 OFFCURVE",
"164 187 CURVE SMOOTH",
"215 170 OFFCURVE",
"268 157 OFFCURVE",
"268 102 CURVE SMOOTH",
"268 48 OFFCURVE",
"223 30 OFFCURVE",
"178 30 CURVE SMOOTH",
"137 30 OFFCURVE",
"98 48 OFFCURVE",
"72 76 CURVE",
"50 45 LINE",
"81 7 OFFCURVE",
"135 -8 OFFCURVE",
"181 -8 CURVE SMOOTH"
);
}
);
width = 368;
},
{
anchors = (
{
name = bottom;
position = "{172.167, -0.5}";
},
{
name = top;
position = "{172.5, 378.167}";
}
);
layerId = "93649EC8-ADF5-4C20-AD08-3ED15854CD33";
paths = (
{
closed = 1;
nodes = (
"248.333 -8 OFFCURVE",
"289.167 36.333 OFFCURVE",
"289.167 102 CURVE SMOOTH",
"289.167 170.833 OFFCURVE",
"228.167 187.833 OFFCURVE",
"172.833 206.833 CURVE SMOOTH",
"128.667 222.833 OFFCURVE",
"88 240.333 OFFCURVE",
"88 289 CURVE SMOOTH",
"88 342.833 OFFCURVE",
"137.833 365.333 OFFCURVE",
"172.833 365.333 CURVE SMOOTH",
"199.833 365.167 OFFCURVE",
"241.5 353.667 OFFCURVE",
"263.5 326.333 CURVE",
"274.5 339.333 LINE",
"245.667 371.333 OFFCURVE",
"202.667 382.5 OFFCURVE",
"171.667 382.5 CURVE SMOOTH",
"119.333 382.5 OFFCURVE",
"68.5 350.333 OFFCURVE",
"68.5 287.167 CURVE SMOOTH",
"68.5 228.167 OFFCURVE",
"112.833 206.833 OFFCURVE",
"162.333 190.333 CURVE SMOOTH",
"215 172.5 OFFCURVE",
"269.667 157.833 OFFCURVE",
"269.667 97 CURVE SMOOTH",
"269.667 30.5 OFFCURVE",
"218.833 9.167 OFFCURVE",
"171.333 9.167 CURVE SMOOTH",
"126.167 9.167 OFFCURVE",
"86.333 27.167 OFFCURVE",
"66.167 51.833 CURVE",
"54.167 40 LINE",
"82.667 4.5 OFFCURVE",
"133.333 -8 OFFCURVE",
"171 -8 CURVE SMOOTH"
);
}
);
width = 344;
}
);
leftKerningGroup = s;
unicode = 0073;
},
{
glyphname = germandbls;
layers = (
{
layerId = UUID1;
paths = (
{
closed = 1;
nodes = (
"105 441 LINE",
"40 441 LINE",
"40 327 LINE",
"105 327 LINE",
"105 0 LINE",
"245 0 LINE",
"245 419 LINE SMOOTH",
"245 508 OFFCURVE",
"263 556 OFFCURVE",
"330 556 CURVE SMOOTH",
"374 556 OFFCURVE",
"400 536 OFFCURVE",
"400 496 CURVE SMOOTH",
"400 467 OFFCURVE",
"379 447 OFFCURVE",
"345 447 CURVE",
"346 326 LINE",
"352 326 LINE",
"409 328 OFFCURVE",
"440 287 OFFCURVE",
"440 205 CURVE SMOOTH",
"440 142 OFFCURVE",
"425 94 OFFCURVE",
"372 94 CURVE SMOOTH",
"355 94 OFFCURVE",
"340 97 OFFCURVE",
"322 113 CURVE",
"268 29 LINE",
"281 13 OFFCURVE",
"322 -10 OFFCURVE",
"386 -10 CURVE SMOOTH",
"503 -10 OFFCURVE",
"581 54 OFFCURVE",
"581 197 CURVE SMOOTH",
"581 316 OFFCURVE",
"539 368 OFFCURVE",
"477 398 CURVE",
"522 423 OFFCURVE",
"541 475 OFFCURVE",
"541 527 CURVE SMOOTH",
"541 607 OFFCURVE",
"465 670 OFFCURVE",
"329 670 CURVE",
"212 672 OFFCURVE",
"105 594 OFFCURVE",
"105 468 CURVE SMOOTH"
);
}
);
width = 626;
},
{
layerId = "4C85334C-E1D4-4EB0-A0B2-9D58DDEA71D9";
paths = (
{
closed = 1;
nodes = (
"112 399 LINE",
"47 399 LINE",
"47 359 LINE",
"112 359 LINE",
"112 0 LINE",
"160 0 LINE",
"160 427 LINE SMOOTH",
"160 546 OFFCURVE",
"205 621 OFFCURVE",
"301 621 CURVE SMOOTH",
"380 621 OFFCURVE",
"419 568 OFFCURVE",
"419 510 CURVE SMOOTH",
"419 449 OFFCURVE",
"372 410 OFFCURVE",
"312 410 CURVE",
"312 366 LINE",
"317 366 LINE",
"409 367 OFFCURVE",
"477 294 OFFCURVE",
"477 198 CURVE SMOOTH",
"477 106 OFFCURVE",
"409 29 OFFCURVE",
"317 29 CURVE SMOOTH",
"286 29 OFFCURVE",
"257 37 OFFCURVE",
"232 54 CURVE",
"213 24 LINE",
"239 6 OFFCURVE",
"276 -9 OFFCURVE",
"322 -9 CURVE SMOOTH",
"435 -9 OFFCURVE",
"524 75 OFFCURVE",
"524 196 CURVE SMOOTH",
"524 297 OFFCURVE",
"464 368 OFFCURVE",
"382 391 CURVE",
"435 413 OFFCURVE",
"467 459 OFFCURVE",
"467 522 CURVE SMOOTH",
"467 592 OFFCURVE",
"412 660 OFFCURVE",
"299 661 CURVE",
"186 659 OFFCURVE",
"112 579 OFFCURVE",
"112 437 CURVE SMOOTH"
);
}
);
width = 577;
},
{
layerId = "93649EC8-ADF5-4C20-AD08-3ED15854CD33";
paths = (
{
closed = 1;
nodes = (
"114.5 386.5 LINE",
"49.5 386.5 LINE",
"49.5 368.167 LINE",
"114.5 368.167 LINE",
"114.5 0 LINE",
"134.167 0 LINE",
"134.167 429.5 LINE SMOOTH",
"134.167 556.833 OFFCURVE",
"187.5 640.167 OFFCURVE",
"291.833 640.167 CURVE SMOOTH",
"381.667 640.167 OFFCURVE",
"424.833 578 OFFCURVE",
"424.833 514.167 CURVE SMOOTH",
"424.833 443.167 OFFCURVE",
"369.5 398.333 OFFCURVE",
"302 398.333 CURVE",
"302 378.5 LINE",
"306.167 378.5 LINE",
"409 378.667 OFFCURVE",
"487.833 295.667 OFFCURVE",
"487.833 195.5 CURVE SMOOTH",
"487.833 95.167 OFFCURVE",
"404 9 OFFCURVE",
"300.333 9 CURVE SMOOTH",
"265.167 9 OFFCURVE",
"232 18.667 OFFCURVE",
"204.5 36.5 CURVE",
"196.333 22.333 LINE",
"226.5 3.5 OFFCURVE",
"262.667 -8.167 OFFCURVE",
"302.833 -8.167 CURVE SMOOTH",
"415 -8.167 OFFCURVE",
"507.333 81.667 OFFCURVE",
"507.333 195.167 CURVE SMOOTH",
"507.333 291.167 OFFCURVE",
"441.5 368 OFFCURVE",
"353.667 389.333 CURVE",
"409.167 410.5 OFFCURVE",
"444.5 454 OFFCURVE",
"444.5 520.333 CURVE SMOOTH",
"444.5 587.833 OFFCURVE",
"396.167 656.667 OFFCURVE",
"289.833 658.5 CURVE",
"178.5 654.833 OFFCURVE",
"114.5 574.833 OFFCURVE",
"114.5 427.833 CURVE SMOOTH"
);
}
);
width = 562;
}
);
leftMetricsKey = f;
rightMetricsKey = s;
unicode = 00DF;
},
{
glyphname = t;
layers = (
{
anchors = (
{
name = bottom;
position = "{176, 0}";
},
{
name = center;
position = "{187, 190}";
},
{
name = top;
position = "{187, 437}";
},
{
name = topright;
position = "{374, 437}";
}
);
layerId = UUID1;
paths = (
{
closed = 1;
nodes = (
"113 439 LINE",
"45 439 LINE",
"45 330 LINE",
"113 330 LINE",
"113 0 LINE",
"253 0 LINE",
"253 330 LINE",
"359 330 LINE",
"359 439 LINE",
"253 439 LINE",
"253 629 LINE",
"113 629 LINE"
);
}
);
width = 394;
},
{
anchors = (
{
name = bottom;
position = "{149, 0}";
},
{
name = center;
position = "{162, 201}";
},
{
name = top;
position = "{162, 391}";
},
{
name = topright;
position = "{301, 391}";
}
);
layerId = "4C85334C-E1D4-4EB0-A0B2-9D58DDEA71D9";
paths = (
{
closed = 1;
nodes = (
"128 386 LINE",
"45 386 LINE",
"45 348 LINE",
"128 348 LINE",
"128 0 LINE",
"176 0 LINE",
"176 348 LINE",
"297 348 LINE",
"297 386 LINE",
"176 386 LINE",
"176 563 LINE",
"128 563 LINE"
);
}
);
width = 325;
},
{
anchors = (
{
name = bottom;
position = "{129, 0}";
},
{
name = center;
position = "{154.5, 204.333}";
},
{
name = top;
position = "{154.5, 377.667}";
},
{
name = topright;
position = "{279.333, 377.667}";
}
);
layerId = "93649EC8-ADF5-4C20-AD08-3ED15854CD33";
paths = (
{
closed = 1;
nodes = (
"133 370.167 LINE",
"45 370.167 LINE",
"45 353 LINE",
"133 353 LINE",
"133 0 LINE",
"152.667 0 LINE",
"152.667 353 LINE",
"278.667 353 LINE",
"278.667 370.167 LINE",
"152.667 370.167 LINE",
"152.667 543 LINE",
"133 543 LINE"
);
}
);
width = 304;
}
);
unicode = 0074;
},
{
glyphname = u;
layers = (
{
anchors = (
{
name = bottom;
position = "{292, 0}";
},
{
name = ogonek;
position = "{608, 10}";
},
{
name = top;
position = "{294, 457}";
},
{
name = topright;
position = "{507, 437}";
}
);
layerId = UUID1;
paths = (
{
closed = 1;
nodes = (
"291 -21 OFFCURVE",
"346 16 OFFCURVE",
"376 71 CURVE",
"374 80 LINE",
"385 0 LINE",
"512 0 LINE",
"512 437 LINE",
"372 437 LINE",
"372 259 LINE",
"372 166 OFFCURVE",
"333 98 OFFCURVE",
"271 98 CURVE",
"230 98 OFFCURVE",
"214 123 OFFCURVE",
"212 162 CURVE",
"212 437 LINE",
"72 437 LINE",
"72 110 LINE",
"74 33 OFFCURVE",
"134 -21 OFFCURVE",
"213 -21 CURVE"
);
}
);
width = 584;
},
{
anchors = (
{
name = bottom;
position = "{255, 0}";
},
{
name = ogonek;
position = "{477, 10}";
},
{
name = top;
position = "{255, 397}";
},
{
name = topright;
position = "{439, 391}";
}
);
layerId = "4C85334C-E1D4-4EB0-A0B2-9D58DDEA71D9";
paths = (
{
closed = 1;
nodes = (
"287 -11 OFFCURVE",
"360 35 OFFCURVE",
"380 96 CURVE",
"373 123 LINE",
"378 0 LINE",
"420 0 LINE",
"420 391 LINE",
"373 391 LINE",
"373 183 LINE SMOOTH",
"373 95 OFFCURVE",
"304 30 OFFCURVE",
"228 30 CURVE",
"168 33 OFFCURVE",
"138 69 OFFCURVE",
"136 120 CURVE",
"136 391 LINE",
"89 391 LINE",
"89 106 LINE",
"91 37 OFFCURVE",
"139 -11 OFFCURVE",
"212 -11 CURVE SMOOTH"
);
}
);
width = 509;
},
{
anchors = (
{
name = bottom;
position = "{243.333, 0}";
},
{
name = ogonek;
position = "{437.833, 10}";
},
{
name = top;
position = "{243.333, 378.667}";
},
{
name = topright;
position = "{418.167, 377.667}";
}
);
layerId = "93649EC8-ADF5-4C20-AD08-3ED15854CD33";
paths = (
{
closed = 1;
nodes = (
"285.333 -7.667 OFFCURVE",
"359.167 44.167 OFFCURVE",
"376.667 106.833 CURVE",
"373.833 116.333 LINE",
"376.333 0 LINE",
"392.5 0 LINE",
"392.5 377.667 LINE",
"373 377.667 LINE",
"373 159.667 LINE SMOOTH",
"373 73.333 OFFCURVE",
"295.667 10 OFFCURVE",
"214.667 10 CURVE",
"149.667 13 OFFCURVE",
"115.5 53.167 OFFCURVE",
"113.5 107.5 CURVE",
"113.5 377.667 LINE",
"94 377.667 LINE",
"94 105.167 LINE",
"96 38.667 OFFCURVE",
"140.667 -7.667 OFFCURVE",
"211.167 -7.667 CURVE SMOOTH"
);
}
);
width = 487;
}
);
leftKerningGroup = n;
leftMetricsKey = n;
rightMetricsKey = n;
unicode = 0075;
},
{
glyphname = uogonek;
layers = (
{
components = (
{
name = u;
}
);
layerId = UUID1;
paths = (
{
closed = 1;
nodes = (
"495 -232 OFFCURVE",
"554 -201 OFFCURVE",
"584 -157 CURVE",
"534 -85 LINE",
"512 -118 OFFCURVE",
"489 -134 OFFCURVE",
"462 -134 CURVE",
"439 -134 OFFCURVE",
"418 -126 OFFCURVE",
"418 -92 CURVE SMOOTH",
"418 -48 OFFCURVE",
"457 -25 OFFCURVE",
"515 0 CURVE",
"466 23 LINE",
"388 10 LINE",
"333 -12 OFFCURVE",
"303 -59 OFFCURVE",
"303 -103 CURVE SMOOTH",
"303 -181 OFFCURVE",
"367 -232 OFFCURVE",
"449 -232 CURVE"
);
}
);
width = 590;
},
{
components = (
{
name = u;
}
);
layerId = "4C85334C-E1D4-4EB0-A0B2-9D58DDEA71D9";
paths = (
{
closed = 1;
nodes = (
"418 -198 OFFCURVE",
"453 -172 OFFCURVE",
"471 -139 CURVE",
"449 -116 LINE",
"433 -143 OFFCURVE",
"412 -162 OFFCURVE",
"386 -162 CURVE",
"359 -162 OFFCURVE",
"333 -142 OFFCURVE",
"333 -106 CURVE",
"333 -67 OFFCURVE",
"366 -31 OFFCURVE",
"421 0 CURVE",
"404 9 LINE",
"380 10 LINE",
"330 -16 OFFCURVE",
"292 -62 OFFCURVE",
"292 -109 CURVE",
"292 -163 OFFCURVE",
"333 -198 OFFCURVE",
"381 -198 CURVE"
);
}
);
width = 511;
},
{
components = (
{
alignment = -1;
name = u;
}
);
layerId = "93649EC8-ADF5-4C20-AD08-3ED15854CD33";
paths = (
{
closed = 1;
nodes = (
"394.667 -188 OFFCURVE",
"423 -162.833 OFFCURVE",
"436.833 -134 CURVE",
"424 -125.167 LINE",
"409.667 -150.5 OFFCURVE",
"388.667 -170.333 OFFCURVE",
"362.667 -170.333 CURVE",
"334.833 -170.333 OFFCURVE",
"308 -147 OFFCURVE",
"308 -110.167 CURVE",
"308 -72.833 OFFCURVE",
"338.5 -32.667 OFFCURVE",
"392.667 0 CURVE",
"384.833 4.833 LINE",
"377.5 10 LINE",
"329.167 -16.833 OFFCURVE",
"288.667 -62.833 OFFCURVE",
"288.667 -110.667 CURVE",
"288.667 -157.167 OFFCURVE",
"323 -188 OFFCURVE",
"361 -188 CURVE"
);
}
);
width = 486.83333;
}
);
unicode = 0173;
},
{
glyphname = v;
layers = (
{
anchors = (
{
name = bottom;
position = "{267, 0}";
},
{
name = top;
position = "{267, 437}";
}
);
layerId = UUID1;
paths = (
{
closed = 1;
nodes = (
"276 -9 LINE",
"524 437 LINE",
"368 437 LINE",
"239 138 LINE",
"325 135 LINE",
"176 437 LINE",
"10 437 LINE",
"272 -9 LINE"
);
}
);
width = 534;
},
{
anchors = (
{
name = bottom;
position = "{227, 0}";
},
{
name = top;
position = "{227, 391}";
}
);
layerId = "4C85334C-E1D4-4EB0-A0B2-9D58DDEA71D9";
paths = (
{
closed = 1;
nodes = (
"232 -15 LINE",
"426 391 LINE",
"374 391 LINE",
"217 37 LINE",
"246 36 LINE",
"83 391 LINE",
"28 391 LINE",
"226 -15 LINE"
);
}
);
width = 454;
},
{
anchors = (
{
name = bottom;
position = "{215.333, 0}";
},
{
name = top;
position = "{215.333, 377.667}";
}
);
layerId = "93649EC8-ADF5-4C20-AD08-3ED15854CD33";
paths = (
{
closed = 1;
nodes = (
"218.667 -16.667 LINE",
"396.833 377.667 LINE",
"375.667 377.667 LINE",
"210.333 6.167 LINE",
"221.833 6 LINE",
"55.5 377.667 LINE",
"33.833 377.667 LINE",
"212.667 -16.667 LINE"
);
}
);
width = 431;
}
);
leftKerningGroup = v;
rightKerningGroup = v;
unicode = 0076;
},
{
glyphname = w;
layers = (
{
anchors = (
{
name = bottom;
position = "{342, 0}";
},
{
name = top;
position = "{342, 437}";
}
);
layerId = UUID1;
paths = (
{
closed = 1;
nodes = (
"265 437 LINE",
"288 387 LINE",
"204 201 LINE",
"252 194 LINE",
"146 437 LINE",
"10 437 LINE",
"209 -26 LINE",
"337 264 LINE",
"477 -26 LINE",
"674 437 LINE",
"538 437 LINE",
"454 210 LINE",
"480 212 LINE",
"384 437 LINE"
);
}
);
width = 684;
},
{
anchors = (
{
name = bottom;
position = "{332, 0}";
},
{
name = top;
position = "{332, 391}";
}
);
layerId = "4C85334C-E1D4-4EB0-A0B2-9D58DDEA71D9";
paths = (
{
closed = 1;
nodes = (
"266 391 LINE",
"309 298 LINE",
"209 56 LINE",
"226 51 LINE",
"75 391 LINE",
"28 391 LINE",
"212 -24 LINE",
"327 254 LINE",
"453 -24 LINE",
"637 391 LINE",
"589 391 LINE",
"446 57 LINE",
"457 58 LINE",
"309 391 LINE"
);
}
);
width = 665;
},
{
anchors = (
{
name = bottom;
position = "{329.5, 0}";
},
{
name = top;
position = "{329.5, 377.667}";
}
);
layerId = "93649EC8-ADF5-4C20-AD08-3ED15854CD33";
paths = (
{
closed = 1;
nodes = (
"266.833 377.667 LINE",
"314.833 271.333 LINE",
"210.667 12.667 LINE",
"218.5 8.5 LINE",
"54.167 377.667 LINE",
"33.833 377.667 LINE",
"212.833 -23.167 LINE",
"324.5 251.5 LINE",
"446.333 -23.167 LINE",
"625.333 377.667 LINE",
"604.833 377.667 LINE",
"443.5 11.167 LINE",
"450.333 11.333 LINE",
"286.5 377.667 LINE"
);
}
);
width = 659;
}
);
leftKerningGroup = w;
leftMetricsKey = v;
rightKerningGroup = v;
rightMetricsKey = v;
unicode = 0077;
},
{
glyphname = x;
layers = (
{
anchors = (
{
name = bottom;
position = "{256, 0}";
},
{
name = top;
position = "{256, 437}";
}
);
layerId = UUID1;
paths = (
{
closed = 1;
nodes = (
"319 197 LINE",
"492 437 LINE",
"353 437 LINE",
"270 298 LINE"
);
},
{
closed = 1;
nodes = (
"182 437 LINE",
"10 437 LINE",
"347 0 LINE",
"516 0 LINE"
);
},
{
closed = 1;
nodes = (
"188 234 LINE",
"15 0 LINE",
"154 0 LINE",
"252 140 LINE"
);
}
);
width = 526;
},
{
anchors = (
{
name = bottom;
position = "{201, 0}";
},
{
name = top;
position = "{201, 391}";
}
);
layerId = "4C85334C-E1D4-4EB0-A0B2-9D58DDEA71D9";
paths = (
{
closed = 1;
nodes = (
"224 187 LINE",
"369 391 LINE",
"320 391 LINE",
"204 222 LINE"
);
},
{
closed = 1;
nodes = (
"87 391 LINE",
"28 391 LINE",
"321 0 LINE",
"377 0 LINE"
);
},
{
closed = 1;
nodes = (
"177 199 LINE",
"33 0 LINE",
"83 0 LINE",
"203 168 LINE"
);
}
);
width = 405;
},
{
anchors = (
{
name = bottom;
position = "{184.333, 0}";
},
{
name = top;
position = "{184.333, 377.667}";
}
);
layerId = "93649EC8-ADF5-4C20-AD08-3ED15854CD33";
paths = (
{
closed = 1;
nodes = (
"195.667 183.667 LINE",
"332.333 376.833 LINE",
"310 376.833 LINE",
"184 198.667 LINE"
);
},
{
closed = 1;
nodes = (
"58.667 377.667 LINE",
"33.833 377.667 LINE",
"312.667 0 LINE",
"335.333 0 LINE"
);
},
{
closed = 1;
nodes = (
"173.667 189 LINE",
"38 0 LINE",
"61.333 0 LINE",
"188 176.333 LINE"
);
}
);
width = 369;
}
);
leftKerningGroup = x;
unicode = 0078;
},
{
glyphname = y;
layers = (
{
anchors = (
{
name = bottom;
position = "{437, -10}";
},
{
name = top;
position = "{277, 437}";
}
);
layerId = UUID1;
paths = (
{
closed = 1;
nodes = (
"242 -210 LINE",
"524 437 LINE",
"398 437 LINE",
"107 -210 LINE"
);
},
{
closed = 1;
nodes = (
"332 68 LINE",
"167 437 LINE",
"10 437 LINE",
"224 -2 LINE"
);
}
);
width = 534;
},
{
anchors = (
{
name = bottom;
position = "{353, -3}";
},
{
name = top;
position = "{230, 391}";
}
);
layerId = "4C85334C-E1D4-4EB0-A0B2-9D58DDEA71D9";
paths = (
{
closed = 1;
nodes = (
"174 -188 LINE",
"426 391 LINE",
"380 391 LINE",
"125 -188 LINE"
);
},
{
closed = 1;
nodes = (
"250 21 LINE",
"81 391 LINE",
"28 391 LINE",
"213 -4 LINE"
);
}
);
width = 454;
},
{
anchors = (
{
name = bottom;
position = "{328, -0.5}";
},
{
name = top;
position = "{215.833, 377.667}";
}
);
layerId = "93649EC8-ADF5-4C20-AD08-3ED15854CD33";
paths = (
{
closed = 1;
nodes = (
"154 -181.333 LINE",
"396.833 377.667 LINE",
"375 377.667 LINE",
"130 -181.333 LINE"
);
},
{
closed = 1;
nodes = (
"225.833 6.833 LINE",
"55.167 377.667 LINE",
"33.833 377.667 LINE",
"209.667 -4.833 LINE"
);
}
);
width = 431;
}
);
leftKerningGroup = v;
leftMetricsKey = v;
rightKerningGroup = v;
rightMetricsKey = v;
unicode = 0079;
},
{
glyphname = z;
layers = (
{
anchors = (
{
name = bottom;
position = "{261, 0}";
},
{
name = top;
position = "{261, 437}";
}
);
layerId = UUID1;
paths = (
{
closed = 1;
nodes = (
"290 323 LINE",
"269 363 LINE",
"20 0 LINE",
"463 0 LINE",
"463 114 LINE",
"198 114 LINE",
"224 85 LINE",
"466 437 LINE",
"189 437 LINE SMOOTH",
"164 437 OFFCURVE",
"155 437 OFFCURVE",
"155 465 CURVE SMOOTH",
"155 479 LINE",
"50 479 LINE",
"50 419 LINE SMOOTH",
"50 360 OFFCURVE",
"92 323 OFFCURVE",
"140 323 CURVE SMOOTH"
);
}
);
width = 522;
},
{
anchors = (
{
name = bottom;
position = "{193, 0}";
},
{
name = top;
position = "{208, 391}";
}
);
layerId = "4C85334C-E1D4-4EB0-A0B2-9D58DDEA71D9";
paths = (
{
closed = 1;
nodes = (
"303 352 LINE",
"293 365 LINE",
"36 0 LINE",
"359 0 LINE",
"359 40 LINE",
"99 40 LINE",
"109 30 LINE",
"363 391 LINE",
"110 391 LINE SMOOTH",
"87 391 OFFCURVE",
"76 400 OFFCURVE",
"76 416 CURVE SMOOTH",
"76 428 LINE",
"39 428 LINE",
"39 409 LINE SMOOTH",
"39 366 OFFCURVE",
"64 352 OFFCURVE",
"99 352 CURVE SMOOTH"
);
}
);
width = 404;
},
{
anchors = (
{
name = bottom;
position = "{173, 0}";
},
{
name = top;
position = "{192.167, 377.667}";
}
);
layerId = "93649EC8-ADF5-4C20-AD08-3ED15854CD33";
paths = (
{
closed = 1;
nodes = (
"307.167 360.333 LINE",
"300.5 365.833 LINE",
"41 0 LINE",
"327.333 0 LINE",
"327.333 17.5 LINE",
"69 17.5 LINE",
"74 13.333 LINE",
"332.167 377.667 LINE",
"85.833 377.667 LINE SMOOTH",
"63.667 377.667 OFFCURVE",
"52.667 388.333 OFFCURVE",
"52.667 401 CURVE SMOOTH",
"52.667 413 LINE",
"35.667 413 LINE",
"35.667 406.5 LINE SMOOTH",
"35.667 367.667 OFFCURVE",
"55.667 360.333 OFFCURVE",
"86.5 360.333 CURVE SMOOTH"
);
}
);
width = 368;
}
);
unicode = 007A;
},
{
glyphname = f_f;
layers = (
{
background = {
paths = (
{
closed = 1;
nodes = (
"115 437 LINE",
"115 0 LINE",
"255 0 LINE",
"255 178 LINE",
"255 271 OFFCURVE",
"296 339 OFFCURVE",
"361 339 CURVE",
"406 339 OFFCURVE",
"423 314 OFFCURVE",
"425 275 CURVE",
"425 0 LINE",
"565 0 LINE",
"565 327 LINE",
"563 404 OFFCURVE",
"501 458 OFFCURVE",
"419 458 CURVE",
"338 458 OFFCURVE",
"283 421 OFFCURVE",
"252 366 CURVE",
"242 437 LINE"
);
}
);
};
components = (
{
name = f;
},
{
alignment = -1;
name = f;
transform = "{1, 0, 0, 1, 323, 0}";
}
);
layerId = UUID1;
width = 748;
},
{
components = (
{
name = f;
},
{
alignment = -1;
name = f;
transform = "{1, 0, 0, 1, 288, 0}";
}
);
layerId = "4C85334C-E1D4-4EB0-A0B2-9D58DDEA71D9";
width = 612;
},
{
components = (
{
alignment = -1;
name = f;
},
{
alignment = -1;
name = f;
transform = "{1, 0, 0, 1, 280.5, 0}";
}
);
layerId = "93649EC8-ADF5-4C20-AD08-3ED15854CD33";
width = 571;
}
);
leftMetricsKey = f;
rightMetricsKey = f;
unicode = FB00;
},
{
glyphname = f_f_i;
layers = (
{
background = {
paths = (
{
closed = 1;
nodes = (
"429 437 LINE",
"429 0 LINE",
"569 0 LINE",
"569 178 LINE",
"569 271 OFFCURVE",
"610 339 OFFCURVE",
"675 339 CURVE",
"720 339 OFFCURVE",
"737 314 OFFCURVE",
"739 275 CURVE",
"739 0 LINE",
"879 0 LINE",
"879 327 LINE",
"877 404 OFFCURVE",
"815 458 OFFCURVE",
"733 458 CURVE",
"652 458 OFFCURVE",
"597 421 OFFCURVE",
"566 366 CURVE",
"556 437 LINE"
);
}
);
};
components = (
{
name = f_f;
},
{
alignment = -1;
name = i;
transform = "{1, 0, 0, 1, 665, 0}";
}
);
layerId = UUID1;
width = 949;
},
{
components = (
{
name = f_f;
},
{
name = i;
transform = "{1, 0, 0, 1, 612, 0}";
}
);
layerId = "4C85334C-E1D4-4EB0-A0B2-9D58DDEA71D9";
width = 837;
},
{
components = (
{
name = f_f;
},
{
name = i;
transform = "{1, 0, 0, 1, 571, 0}";
}
);
layerId = "93649EC8-ADF5-4C20-AD08-3ED15854CD33";
width = 779;
}
);
leftMetricsKey = f;
rightMetricsKey = i;
},
{
glyphname = f_f_ij;
layers = (
{
background = {
paths = (
{
closed = 1;
nodes = (
"116 437 LINE",
"116 0 LINE",
"256 0 LINE",
"256 178 LINE",
"256 271 OFFCURVE",
"297 339 OFFCURVE",
"362 339 CURVE",
"407 339 OFFCURVE",
"424 314 OFFCURVE",
"426 275 CURVE",
"426 0 LINE",
"566 0 LINE",
"566 327 LINE",
"564 404 OFFCURVE",
"502 458 OFFCURVE",
"420 458 CURVE",
"339 458 OFFCURVE",
"284 421 OFFCURVE",
"253 366 CURVE",
"243 437 LINE"
);
}
);
};
components = (
{
name = f;
},
{
alignment = -1;
name = f_ij;
transform = "{1, 0, 0, 1, 312, 0}";
}
);
layerId = UUID1;
width = 1222;
},
{
components = (
{
name = f;
},
{
name = f_ij;
transform = "{1, 0, 0, 1, 324, 0}";
}
);
layerId = "4C85334C-E1D4-4EB0-A0B2-9D58DDEA71D9";
width = 1097;
},
{
components = (
{
name = f;
},
{
name = f_ij;
transform = "{1, 0, 0, 1, 291, 0}";
}
);
layerId = "93649EC8-ADF5-4C20-AD08-3ED15854CD33";
width = 1006;
}
);
leftMetricsKey = f;
rightMetricsKey = ij;
},
{
glyphname = f_ij;
layers = (
{
background = {
paths = (
{
closed = 1;
nodes = (
"115 437 LINE",
"115 0 LINE",
"255 0 LINE",
"255 178 LINE",
"255 271 OFFCURVE",
"296 339 OFFCURVE",
"361 339 CURVE",
"406 339 OFFCURVE",
"423 314 OFFCURVE",
"425 275 CURVE",
"425 0 LINE",
"565 0 LINE",
"565 327 LINE",
"563 404 OFFCURVE",
"501 458 OFFCURVE",
"419 458 CURVE",
"338 458 OFFCURVE",
"283 421 OFFCURVE",
"252 366 CURVE",
"242 437 LINE"
);
}
);
};
components = (
{
name = f;
},
{
alignment = -1;
name = ij;
transform = "{1, 0, 0, 1, 350, 0}";
}
);
layerId = UUID1;
width = 910;
},
{
components = (
{
name = f;
},
{
name = ij;
transform = "{1, 0, 0, 1, 324, 0}";
}
);
layerId = "4C85334C-E1D4-4EB0-A0B2-9D58DDEA71D9";
width = 773;
},
{
components = (
{
name = f;
},
{
name = ij;
transform = "{1, 0, 0, 1, 291, 0}";
}
);
layerId = "93649EC8-ADF5-4C20-AD08-3ED15854CD33";
width = 715;
}
);
leftMetricsKey = f;
rightMetricsKey = ij;
},
{
glyphname = fi;
layers = (
{
anchors = (
{
name = bottom;
position = "{218, 0}";
},
{
name = top;
position = "{218, 437}";
}
);
background = {
paths = (
{
closed = 1;
nodes = (
"115 437 LINE",
"115 0 LINE",
"255 0 LINE",
"255 178 LINE",
"255 271 OFFCURVE",
"296 339 OFFCURVE",
"361 339 CURVE",
"406 339 OFFCURVE",
"423 314 OFFCURVE",
"425 275 CURVE",
"425 0 LINE",
"565 0 LINE",
"565 327 LINE",
"563 404 OFFCURVE",
"501 458 OFFCURVE",
"419 458 CURVE",
"338 458 OFFCURVE",
"283 421 OFFCURVE",
"252 366 CURVE",
"242 437 LINE"
);
}
);
};
components = (
{
alignment = -1;
name = i;
transform = "{1, 0, 0, 1, 350, 0}";
}
);
layerId = UUID1;
paths = (
{
closed = 1;
nodes = (
"254 0 LINE",
"254 315 LINE",
"366 315 LINE",
"366 439 LINE",
"254 439 LINE",
"254 587 LINE",
"254 645 OFFCURVE",
"282 671 OFFCURVE",
"322 671 CURVE",
"338 671 OFFCURVE",
"357 666 OFFCURVE",
"371 649 CURVE",
"430 750 LINE",
"395 775 OFFCURVE",
"344 786 OFFCURVE",
"307 786 CURVE",
"182 786 OFFCURVE",
"114 705 OFFCURVE",
"114 591 CURVE",
"114 439 LINE",
"40 439 LINE",
"40 315 LINE",
"114 315 LINE",
"114 0 LINE"
);
}
);
width = 634;
},
{
anchors = (
{
name = bottom;
position = "{162, 0}";
},
{
name = top;
position = "{162, 391}";
}
);
components = (
{
name = i;
transform = "{1, 0, 0, 1, 301, 0}";
}
);
layerId = "4C85334C-E1D4-4EB0-A0B2-9D58DDEA71D9";
paths = (
{
closed = 1;
nodes = (
"162 0 LINE",
"162 347 LINE",
"287 347 LINE",
"287 390 LINE",
"162 390 LINE",
"162 588 LINE SMOOTH",
"162 690 OFFCURVE",
"191 725 OFFCURVE",
"248 725 CURVE SMOOTH",
"262 725 OFFCURVE",
"274 722 OFFCURVE",
"283 715 CURVE",
"303 749 LINE",
"285 759 OFFCURVE",
"262 764 OFFCURVE",
"244 764 CURVE SMOOTH",
"159 764 OFFCURVE",
"115 712 OFFCURVE",
"115 587 CURVE SMOOTH",
"115 390 LINE",
"47 390 LINE",
"47 347 LINE",
"115 347 LINE",
"115 0 LINE"
);
}
);
width = 526;
},
{
anchors = (
{
name = bottom;
position = "{145.333, 0}";
},
{
name = top;
position = "{145.333, 377.667}";
}
);
components = (
{
alignment = -1;
name = i;
transform = "{1, 0, 0, 1, 286.833, 0}";
}
);
layerId = "93649EC8-ADF5-4C20-AD08-3ED15854CD33";
paths = (
{
closed = 1;
nodes = (
"134.5 0 LINE",
"134.5 357 LINE",
"263.667 357 LINE",
"263.667 375 LINE",
"134.5 375 LINE",
"134.5 588.833 LINE SMOOTH",
"134.5 703.333 OFFCURVE",
"163.5 741.667 OFFCURVE",
"226.333 741.667 CURVE SMOOTH",
"239.5 741.667 OFFCURVE",
"249 738.667 OFFCURVE",
"256.333 735 CURVE",
"264.667 749 LINE",
"251.667 754 OFFCURVE",
"237.833 757.333 OFFCURVE",
"224.833 757.333 CURVE SMOOTH",
"152.333 757.333 OFFCURVE",
"115 714.5 OFFCURVE",
"115 585.333 CURVE SMOOTH",
"115 375 LINE",
"49.5 375 LINE",
"49.5 357 LINE",
"115 357 LINE",
"115 0 LINE"
);
}
);
width = 494;
}
);
leftMetricsKey = f;
rightMetricsKey = i;
unicode = FB01;
},
{
glyphname = fl;
layers = (
{
anchors = (
{
name = bottom;
position = "{218, 0}";
},
{
name = top;
position = "{218, 437}";
}
);
background = {
paths = (
{
closed = 1;
nodes = (
"115 437 LINE",
"115 0 LINE",
"255 0 LINE",
"255 178 LINE",
"255 271 OFFCURVE",
"296 339 OFFCURVE",
"361 339 CURVE",
"406 339 OFFCURVE",
"423 314 OFFCURVE",
"425 275 CURVE",
"425 0 LINE",
"565 0 LINE",
"565 327 LINE",
"563 404 OFFCURVE",
"501 458 OFFCURVE",
"419 458 CURVE",
"338 458 OFFCURVE",
"283 421 OFFCURVE",
"252 366 CURVE",
"242 437 LINE"
);
}
);
};
components = (
{
alignment = -1;
name = l;
transform = "{1, 0, 0, 1, 350, 0}";
}
);
layerId = UUID1;
paths = (
{
closed = 1;
nodes = (
"254 0 LINE",
"254 315 LINE",
"366 315 LINE",
"366 439 LINE",
"254 439 LINE",
"254 587 LINE",
"254 645 OFFCURVE",
"282 671 OFFCURVE",
"322 671 CURVE",
"338 671 OFFCURVE",
"357 666 OFFCURVE",
"371 649 CURVE",
"430 750 LINE",
"395 775 OFFCURVE",
"344 786 OFFCURVE",
"307 786 CURVE",
"182 786 OFFCURVE",
"114 705 OFFCURVE",
"114 591 CURVE",
"114 439 LINE",
"40 439 LINE",
"40 315 LINE",
"114 315 LINE",
"114 0 LINE"
);
}
);
width = 634;
},
{
anchors = (
{
name = bottom;
position = "{162, 0}";
},
{
name = top;
position = "{162, 391}";
}
);
components = (
{
name = l;
transform = "{1, 0, 0, 1, 301, 0}";
}
);
layerId = "4C85334C-E1D4-4EB0-A0B2-9D58DDEA71D9";
paths = (
{
closed = 1;
nodes = (
"162 0 LINE",
"162 347 LINE",
"287 347 LINE",
"287 390 LINE",
"162 390 LINE",
"162 588 LINE SMOOTH",
"162 690 OFFCURVE",
"191 725 OFFCURVE",
"248 725 CURVE SMOOTH",
"262 725 OFFCURVE",
"274 722 OFFCURVE",
"283 715 CURVE",
"303 749 LINE",
"285 759 OFFCURVE",
"262 764 OFFCURVE",
"244 764 CURVE SMOOTH",
"159 764 OFFCURVE",
"115 712 OFFCURVE",
"115 587 CURVE SMOOTH",
"115 390 LINE",
"47 390 LINE",
"47 347 LINE",
"115 347 LINE",
"115 0 LINE"
);
}
);
width = 526;
},
{
anchors = (
{
name = bottom;
position = "{145.333, 0}";
},
{
name = top;
position = "{145.333, 377.667}";
}
);
components = (
{
alignment = -1;
name = l;
transform = "{1, 0, 0, 1, 286.833, 0}";
}
);
layerId = "93649EC8-ADF5-4C20-AD08-3ED15854CD33";
paths = (
{
closed = 1;
nodes = (
"134.5 0 LINE",
"134.5 357 LINE",
"263.667 357 LINE",
"263.667 375 LINE",
"134.5 375 LINE",
"134.5 588.833 LINE SMOOTH",
"134.5 703.333 OFFCURVE",
"163.5 741.667 OFFCURVE",
"226.333 741.667 CURVE SMOOTH",
"239.5 741.667 OFFCURVE",
"249 738.667 OFFCURVE",
"256.333 735 CURVE",
"264.667 749 LINE",
"251.667 754 OFFCURVE",
"237.833 757.333 OFFCURVE",
"224.833 757.333 CURVE SMOOTH",
"152.333 757.333 OFFCURVE",
"115 714.5 OFFCURVE",
"115 585.333 CURVE SMOOTH",
"115 375 LINE",
"49.5 375 LINE",
"49.5 357 LINE",
"115 357 LINE",
"115 0 LINE"
);
}
);
width = 494;
}
);
leftMetricsKey = f;
rightMetricsKey = l;
unicode = FB02;
},
{
glyphname = ordfeminine;
layers = (
{
layerId = UUID1;
paths = (
{
closed = 1;
nodes = (
"208 427 OFFCURVE",
"236 471 OFFCURVE",
"239 471 CURVE",
"233 488 LINE",
"233 434 LINE",
"339 434 LINE",
"339 724 LINE",
"239 724 LINE",
"232 683 LINE",
"235 697 LINE",
"218 717 OFFCURVE",
"196 736 OFFCURVE",
"147 736 CURVE",
"83 736 OFFCURVE",
"25 675 OFFCURVE",
"25 579 CURVE",
"25 474 OFFCURVE",
"80 427 OFFCURVE",
"150 427 CURVE"
);
},
{
closed = 1;
nodes = (
"155 512 OFFCURVE",
"132 543 OFFCURVE",
"132 583 CURVE",
"132 623 OFFCURVE",
"154 651 OFFCURVE",
"183 651 CURVE",
"208 651 OFFCURVE",
"225 636 OFFCURVE",
"233 611 CURVE",
"233 550 LINE",
"222 526 OFFCURVE",
"209 512 OFFCURVE",
"185 512 CURVE"
);
}
);
width = 389;
},
{
layerId = "4C85334C-E1D4-4EB0-A0B2-9D58DDEA71D9";
paths = (
{
closed = 1;
nodes = (
"241 417 OFFCURVE",
"293 456 OFFCURVE",
"310 496 CURVE",
"300 508 LINE",
"300 422 LINE",
"338 422 LINE",
"338 705 LINE",
"304 705 LINE",
"299 624 LINE",
"306 640 LINE",
"286 685 OFFCURVE",
"236 712 OFFCURVE",
"179 712 CURVE",
"104 712 OFFCURVE",
"40 657 OFFCURVE",
"40 564 CURVE",
"40 476 OFFCURVE",
"102 417 OFFCURVE",
"180 417 CURVE"
);
},
{
closed = 1;
nodes = (
"128 449 OFFCURVE",
"78 500 OFFCURVE",
"78 565 CURVE",
"78 635 OFFCURVE",
"128 680 OFFCURVE",
"189 680 CURVE",
"244 680 OFFCURVE",
"289 640 OFFCURVE",
"300 589 CURVE",
"300 552 LINE",
"297 492 OFFCURVE",
"249 449 OFFCURVE",
"189 449 CURVE"
);
}
);
width = 410;
},
{
layerId = "93649EC8-ADF5-4C20-AD08-3ED15854CD33";
paths = (
{
closed = 1;
nodes = (
"251 413.667 OFFCURVE",
"303.833 451.833 OFFCURVE",
"324.167 503.5 CURVE",
"320 513.833 LINE",
"320 417.833 LINE",
"337.167 417.833 LINE",
"337.167 699.167 LINE",
"323.167 699.167 LINE",
"319.833 609.833 LINE",
"321.833 619.167 LINE",
"300.167 671.667 OFFCURVE",
"248.5 705.333 OFFCURVE",
"189 705.333 CURVE",
"109.833 705.333 OFFCURVE",
"44.167 652 OFFCURVE",
"44.167 559 CURVE",
"44.167 476.833 OFFCURVE",
"108.667 413.667 OFFCURVE",
"189.167 413.667 CURVE"
);
},
{
closed = 1;
nodes = (
"119.667 429.833 OFFCURVE",
"62.167 487.5 OFFCURVE",
"62.167 559.167 CURVE",
"62.167 638.333 OFFCURVE",
"119.667 689.167 OFFCURVE",
"190.667 689.167 CURVE",
"254.833 689.167 OFFCURVE",
"308.167 641.667 OFFCURVE",
"320 582.333 CURVE",
"320 552.833 LINE",
"319.5 482 OFFCURVE",
"261.5 429.833 OFFCURVE",
"190.667 429.833 CURVE"
);
}
);
width = 416;
}
);
unicode = 00AA;
},
{
glyphname = ordmasculine;
layers = (
{
layerId = UUID1;
paths = (
{
closed = 1;
nodes = (
"25 484 OFFCURVE",
"92 426 OFFCURVE",
"187 426 CURVE",
"287 426 OFFCURVE",
"348 492 OFFCURVE",
"348 581 CURVE",
"348 670 OFFCURVE",
"286 735 OFFCURVE",
"188 735 CURVE",
"91 735 OFFCURVE",
"25 670 OFFCURVE",
"25 581 CURVE"
);
},
{
closed = 1;
nodes = (
"133 616 OFFCURVE",
"156 643 OFFCURVE",
"186 643 CURVE",
"219 643 OFFCURVE",
"240 616 OFFCURVE",
"240 580 CURVE",
"240 545 OFFCURVE",
"219 518 OFFCURVE",
"186 518 CURVE",
"156 518 OFFCURVE",
"133 545 OFFCURVE",
"133 580 CURVE"
);
}
);
width = 373;
},
{
layerId = "4C85334C-E1D4-4EB0-A0B2-9D58DDEA71D9";
paths = (
{
closed = 1;
nodes = (
"40 474 OFFCURVE",
"105 413 OFFCURVE",
"190 413 CURVE",
"276 413 OFFCURVE",
"341 477 OFFCURVE",
"341 560 CURVE",
"341 644 OFFCURVE",
"276 709 OFFCURVE",
"190 709 CURVE",
"105 709 OFFCURVE",
"40 644 OFFCURVE",
"40 560 CURVE"
);
},
{
closed = 1;
nodes = (
"79 620 OFFCURVE",
"126 675 OFFCURVE",
"190 675 CURVE",
"252 675 OFFCURVE",
"302 624 OFFCURVE",
"302 560 CURVE",
"302 497 OFFCURVE",
"252 447 OFFCURVE",
"190 447 CURVE",
"128 447 OFFCURVE",
"79 497 OFFCURVE",
"79 560 CURVE"
);
}
);
width = 380;
},
{
layerId = "93649EC8-ADF5-4C20-AD08-3ED15854CD33";
paths = (
{
closed = 1;
nodes = (
"44.167 470.667 OFFCURVE",
"109.167 408.833 OFFCURVE",
"190.833 408.833 CURVE",
"272.667 408.833 OFFCURVE",
"338.5 472.833 OFFCURVE",
"338.5 554.167 CURVE",
"338.5 635.667 OFFCURVE",
"272.667 701.5 OFFCURVE",
"190.833 701.5 CURVE",
"109.167 701.5 OFFCURVE",
"44.167 635.667 OFFCURVE",
"44.167 554.167 CURVE"
);
},
{
closed = 1;
nodes = (
"62.333 621.667 OFFCURVE",
"116.833 685 OFFCURVE",
"190.833 685 CURVE",
"262 685 OFFCURVE",
"320.333 626.5 OFFCURVE",
"320.333 554.167 CURVE",
"320.333 482.833 OFFCURVE",
"262 425.333 OFFCURVE",
"190.833 425.333 CURVE",
"119.667 425.333 OFFCURVE",
"62.333 482.833 OFFCURVE",
"62.333 554.167 CURVE"
);
}
);
width = 383;
}
);
unicode = 00BA;
},
{
glyphname = Delta;
production = uni0394;
layers = (
{
layerId = UUID1;
paths = (
{
closed = 1;
nodes = (
"722 0 LINE",
"372 765 LINE",
"367 765 LINE",
"12 0 LINE"
);
},
{
closed = 1;
nodes = (
"615 140 LINE",
"97 140 LINE",
"188 62 LINE",
"427 572 LINE",
"304 594 LINE",
"540 80 LINE"
);
}
);
width = 734;
},
{
layerId = "4C85334C-E1D4-4EB0-A0B2-9D58DDEA71D9";
paths = (
{
closed = 1;
nodes = (
"691 0 LINE",
"371 741 LINE",
"366 741 LINE",
"51 0 LINE"
);
},
{
closed = 1;
nodes = (
"652 46 LINE",
"92 46 LINE",
"107 12 LINE",
"391 684 LINE",
"350 684 LINE",
"627 12 LINE"
);
}
);
width = 742;
},
{
layerId = "93649EC8-ADF5-4C20-AD08-3ED15854CD33";
paths = (
{
closed = 1;
nodes = (
"650.167 0 LINE",
"338.5 733.5 LINE",
"333.5 733.5 LINE",
"18.5 0 LINE"
);
},
{
closed = 1;
nodes = (
"631.167 18.5 LINE",
"33.667 18.5 LINE",
"41.167 8.667 LINE",
"341.833 708.167 LINE",
"329.167 711.5 LINE",
"624.5 6.167 LINE"
);
}
);
width = 624;
}
);
unicode = 0394;
},
{
glyphname = mu;
production = uni03BC;
layers = (
{
anchors = (
{
name = bottom;
position = "{292, 0}";
},
{
name = ogonek;
position = "{608, 10}";
},
{
name = top;
position = "{294, 457}";
},
{
name = topright;
position = "{507, 437}";
}
);
layerId = UUID1;
paths = (
{
closed = 1;
nodes = (
"291 -21 OFFCURVE",
"346 16 OFFCURVE",
"376 71 CURVE",
"374 80 LINE",
"385 0 LINE",
"512 0 LINE",
"512 437 LINE",
"372 437 LINE",
"372 259 LINE",
"372 166 OFFCURVE",
"333 98 OFFCURVE",
"271 98 CURVE",
"230 98 OFFCURVE",
"214 123 OFFCURVE",
"212 162 CURVE",
"212 437 LINE",
"72 437 LINE",
"72 110 LINE",
"74 33 OFFCURVE",
"134 -21 OFFCURVE",
"213 -21 CURVE"
);
},
{
closed = 1;
nodes = (
"72 -237 LINE",
"198 -237 LINE",
"198 389 LINE",
"72 389 LINE"
);
}
);
width = 584;
},
{
anchors = (
{
name = bottom;
position = "{255, 0}";
},
{
name = ogonek;
position = "{477, 10}";
},
{
name = top;
position = "{255, 391}";
},
{
name = topright;
position = "{439, 391}";
}
);
layerId = "4C85334C-E1D4-4EB0-A0B2-9D58DDEA71D9";
paths = (
{
closed = 1;
nodes = (
"287 -11 OFFCURVE",
"360 35 OFFCURVE",
"380 96 CURVE",
"373 123 LINE",
"378 0 LINE",
"420 0 LINE",
"420 391 LINE",
"373 391 LINE",
"373 183 LINE SMOOTH",
"373 95 OFFCURVE",
"304 30 OFFCURVE",
"228 30 CURVE",
"168 33 OFFCURVE",
"138 69 OFFCURVE",
"136 120 CURVE",
"136 391 LINE",
"89 391 LINE",
"89 106 LINE",
"91 37 OFFCURVE",
"139 -11 OFFCURVE",
"212 -11 CURVE SMOOTH"
);
},
{
closed = 1;
nodes = (
"89 -233 LINE",
"133 -233 LINE",
"133 365 LINE",
"89 365 LINE"
);
}
);
width = 509;
},
{
anchors = (
{
name = bottom;
position = "{243.333, 0}";
},
{
name = ogonek;
position = "{437.833, 10}";
},
{
name = top;
position = "{243.333, 377.667}";
},
{
name = topright;
position = "{418.167, 377.667}";
}
);
layerId = "93649EC8-ADF5-4C20-AD08-3ED15854CD33";
paths = (
{
closed = 1;
nodes = (
"285.333 -7.667 OFFCURVE",
"359.167 44.167 OFFCURVE",
"376.667 106.833 CURVE",
"373.833 116.333 LINE",
"376.333 0 LINE",
"392.5 0 LINE",
"392.5 377.667 LINE",
"373 377.667 LINE",
"373 159.667 LINE SMOOTH",
"373 73.333 OFFCURVE",
"295.667 10 OFFCURVE",
"214.667 10 CURVE",
"149.667 13 OFFCURVE",
"115.5 53.167 OFFCURVE",
"113.5 107.5 CURVE",
"113.5 377.667 LINE",
"94 377.667 LINE",
"94 105.167 LINE",
"96 38.667 OFFCURVE",
"140.667 -7.667 OFFCURVE",
"211.167 -7.667 CURVE SMOOTH"
);
},
{
closed = 1;
nodes = (
"94 -232.167 LINE",
"113 -232.167 LINE",
"113 357.5 LINE",
"94 357.5 LINE"
);
}
);
width = 487;
}
);
unicode = 03BC;
},
{
glyphname = pi;
layers = (
{
layerId = UUID1;
paths = (
{
closed = 1;
nodes = (
"9 247 LINE",
"67 247 LINE",
"67 0 LINE",
"192 0 LINE",
"192 247 LINE",
"244 247 LINE",
"244 0 LINE",
"368 0 LINE",
"368 247 LINE",
"431 247 LINE",
"431 368 LINE",
"9 368 LINE"
);
}
);
width = 444;
},
{
layerId = "4C85334C-E1D4-4EB0-A0B2-9D58DDEA71D9";
paths = (
{
closed = 1;
nodes = (
"6 290 LINE",
"59 290 LINE",
"59 0 LINE",
"102 0 LINE",
"102 290 LINE",
"226 290 LINE",
"226 0 LINE",
"269 0 LINE",
"269 290 LINE",
"313 290 LINE",
"313 333 LINE",
"6 333 LINE"
);
}
);
width = 320;
},
{
layerId = "93649EC8-ADF5-4C20-AD08-3ED15854CD33";
paths = (
{
closed = 1;
nodes = (
"5.167 303.333 LINE",
"56.5 303.333 LINE",
"56.5 0 LINE",
"75.333 0 LINE",
"75.333 303.333 LINE",
"220.167 303.333 LINE",
"220.167 0 LINE",
"239 0 LINE",
"239 303.333 LINE",
"278 303.333 LINE",
"278 322.167 LINE",
"5.167 322.167 LINE"
);
}
);
width = 283;
}
);
unicode = 03C0;
},
{
glyphname = zero;
layers = (
{
layerId = UUID1;
paths = (
{
closed = 1;
nodes = (
"465 -2 OFFCURVE",
"593 97 OFFCURVE",
"593 335 CURVE",
"593 564 OFFCURVE",
"467 672 OFFCURVE",
"314 671 CURVE",
"154 672 OFFCURVE",
"35 590 OFFCURVE",
"35 335 CURVE SMOOTH",
"35 106 OFFCURVE",
"161 -2 OFFCURVE",
"314 -1 CURVE"
);
},
{
closed = 1;
nodes = (
"214 138 OFFCURVE",
"186 226 OFFCURVE",
"186 336 CURVE",
"186 445 OFFCURVE",
"214 531 OFFCURVE",
"313 531 CURVE",
"412 531 OFFCURVE",
"442 448 OFFCURVE",
"442 339 CURVE",
"442 226 OFFCURVE",
"413 138 OFFCURVE",
"313 138 CURVE"
);
}
);
width = 628;
},
{
layerId = "4C85334C-E1D4-4EB0-A0B2-9D58DDEA71D9";
paths = (
{
closed = 1;
nodes = (
"483 -6 OFFCURVE",
"583 142 OFFCURVE",
"583 328 CURVE",
"583 511 OFFCURVE",
"483 660 OFFCURVE",
"310 659 CURVE",
"134 660 OFFCURVE",
"36 518 OFFCURVE",
"36 328 CURVE",
"36 144 OFFCURVE",
"136 -6 OFFCURVE",
"310 -5 CURVE"
);
},
{
closed = 1;
nodes = (
"178 41 OFFCURVE",
"87 152 OFFCURVE",
"86 327 CURVE",
"87 502 OFFCURVE",
"178 613 OFFCURVE",
"309 612 CURVE",
"441 613 OFFCURVE",
"532 502 OFFCURVE",
"533 328 CURVE",
"532 152 OFFCURVE",
"441 41 OFFCURVE",
"309 42 CURVE"
);
}
);
width = 619;
},
{
layerId = "93649EC8-ADF5-4C20-AD08-3ED15854CD33";
paths = (
{
closed = 1;
nodes = (
"488 -6.833 OFFCURVE",
"580.5 155.333 OFFCURVE",
"580.5 325.5 CURVE",
"580.5 495.167 OFFCURVE",
"488 655.833 OFFCURVE",
"308.333 654.833 CURVE",
"128.167 655.833 OFFCURVE",
"36 496.333 OFFCURVE",
"36 325.5 CURVE",
"36 155.667 OFFCURVE",
"128.5 -6.833 OFFCURVE",
"308.333 -5.833 CURVE"
);
},
{
closed = 1;
nodes = (
"167.167 11.833 OFFCURVE",
"57 130.333 OFFCURVE",
"56 324.5 CURVE",
"57 518.667 OFFCURVE",
"167.167 637.167 OFFCURVE",
"308.167 636.167 CURVE",
"449.333 637.167 OFFCURVE",
"559.5 518.667 OFFCURVE",
"560.5 324.667 CURVE",
"559.5 130.333 OFFCURVE",
"449.333 11.833 OFFCURVE",
"308.167 12.833 CURVE"
);
}
);
width = 616.5;
}
);
unicode = 0030;
},
{
glyphname = one;
layers = (
{
layerId = UUID1;
paths = (
{
closed = 1;
nodes = (
"50 523 LINE",
"103 523 LINE",
"103 0 LINE",
"249 0 LINE",
"249 663 LINE",
"50 663 LINE"
);
}
);
width = 344;
},
{
layerId = "4C85334C-E1D4-4EB0-A0B2-9D58DDEA71D9";
paths = (
{
closed = 1;
nodes = (
"56 606 LINE",
"153 606 LINE",
"153 0 LINE",
"202 0 LINE",
"202 653 LINE",
"56 653 LINE"
);
}
);
width = 315;
},
{
layerId = "93649EC8-ADF5-4C20-AD08-3ED15854CD33";
paths = (
{
closed = 1;
nodes = (
"59.333 631 LINE",
"169.667 631 LINE",
"169.667 0 LINE",
"189.5 0 LINE",
"189.5 650.5 LINE",
"59.333 650.5 LINE"
);
}
);
width = 308;
}
);
rightMetricsKey = H;
unicode = 0031;
},
